<?xml version="1.0" standalone="no"?><!DOCTYPE svg PUBLIC "-//W3C//DTD SVG 1.1//EN" "http://www.w3.org/Graphics/SVG/1.1/DTD/svg11.dtd"><svg t="1740865792961" class="icon" viewBox="0 0 1024 1024" version="1.1" xmlns="http://www.w3.org/2000/svg" p-id="1502" xmlns:xlink="http://www.w3.org/1999/xlink" width="200" height="200"><path d="M377.6 547.2c-3.2 0-6.4 0-9.6 1.6s-4.8 3.2-6.4 4.8c-1.6 1.6-3.2 3.2-4.8 6.4-1.6 1.6-1.6 4.8-1.6 6.4h41.6c0-4.8-1.6-9.6-4.8-12.8-4.8-4.8-9.6-6.4-14.4-6.4zM704 547.2c-3.2 0-6.4 0-9.6 1.6-3.2 1.6-4.8 3.2-6.4 4.8-1.6 1.6-3.2 3.2-4.8 6.4-1.6 1.6-1.6 4.8-1.6 6.4h41.6c0-4.8-1.6-9.6-4.8-12.8-3.2-4.8-8-6.4-14.4-6.4z" fill="#333333" p-id="1503"></path><path d="M921.6 449.6c1.6-9.6 1.6-19.2 1.6-30.4 0-147.2-120-267.2-267.2-267.2-100.8 0-190.4 56-235.2 139.2-27.2-14.4-59.2-24-92.8-24-96 0-176 72-188.8 164.8-80 22.4-139.2 96-139.2 184 0 105.6 84.8 190.4 190.4 190.4h640c105.6 1.6 190.4-83.2 190.4-188.8 0-73.6-40-136-99.2-168z m-632 176c-9.6 4.8-19.2 6.4-28.8 6.4-11.2 0-22.4-1.6-32-4.8-9.6-3.2-17.6-8-25.6-16-6.4-6.4-12.8-14.4-16-24-3.2-9.6-6.4-20.8-6.4-32s1.6-22.4 6.4-32c3.2-9.6 9.6-17.6 16-24 6.4-6.4 16-11.2 25.6-16 9.6-3.2 20.8-4.8 32-4.8 4.8 0 8 0 12.8 1.6 4.8 0 9.6 1.6 12.8 3.2 4.8 1.6 8 3.2 12.8 6.4 4.8 3.2 8 6.4 11.2 9.6l-25.6 20.8c-3.2-3.2-6.4-6.4-11.2-9.6-4.8-1.6-9.6-3.2-16-3.2s-11.2 1.6-17.6 3.2c-4.8 1.6-9.6 6.4-12.8 9.6l-9.6 14.4c-3.2 4.8-3.2 12.8-3.2 19.2 0 6.4 1.6 12.8 3.2 19.2 1.6 6.4 4.8 11.2 9.6 14.4 3.2 4.8 8 8 12.8 9.6 4.8 1.6 11.2 3.2 16 3.2 6.4 0 12.8-1.6 17.6-4.8 4.8-3.2 9.6-6.4 12.8-11.2l27.2 20.8c-6.4 9.6-14.4 16-24 20.8z m137.6-38.4h-72c1.6 6.4 3.2 11.2 8 14.4 4.8 3.2 9.6 4.8 16 4.8 4.8 0 9.6-1.6 12.8-3.2 3.2-1.6 6.4-4.8 9.6-9.6l22.4 16c-4.8 6.4-11.2 11.2-19.2 14.4s-16 4.8-24 4.8-14.4-1.6-22.4-3.2c-6.4-3.2-12.8-6.4-17.6-11.2-4.8-4.8-9.6-9.6-11.2-16s-4.8-14.4-4.8-22.4c0-8 1.6-16 4.8-22.4 3.2-6.4 6.4-12.8 11.2-16 4.8-4.8 11.2-8 17.6-11.2 6.4-3.2 14.4-3.2 22.4-3.2 8 0 14.4 1.6 19.2 3.2s11.2 6.4 14.4 11.2c4.8 4.8 8 9.6 9.6 16 1.6 6.4 3.2 14.4 3.2 22.4v11.2z m89.6-33.6c-1.6 0-4.8-1.6-6.4-1.6h-6.4c-6.4 0-11.2 1.6-14.4 3.2-3.2 1.6-6.4 3.2-8 6.4-1.6 3.2-3.2 6.4-3.2 11.2s-1.6 8-1.6 14.4v41.6h-32V528h32v16c3.2-6.4 8-11.2 11.2-14.4 4.8-3.2 9.6-4.8 17.6-4.8h4.8c1.6 0 3.2 0 4.8 1.6v27.2z m115.2 73.6h-32v-49.6-9.6c0-3.2-1.6-6.4-1.6-8-1.6-3.2-3.2-4.8-4.8-6.4-1.6-1.6-4.8-3.2-9.6-3.2s-8 0-9.6 1.6c-3.2 1.6-4.8 3.2-6.4 6.4-1.6 3.2-1.6 4.8-3.2 8v59.2h-32v-100.8h30.4v14.4c1.6-1.6 1.6-3.2 4.8-6.4 1.6-1.6 3.2-3.2 6.4-4.8 3.2-1.6 4.8-3.2 8-3.2s6.4-1.6 9.6-1.6c8 0 14.4 1.6 19.2 3.2 4.8 3.2 8 6.4 11.2 9.6s4.8 9.6 4.8 14.4 1.6 12.8 1.6 19.2v57.6z m123.2-40h-72c1.6 6.4 3.2 11.2 8 14.4 4.8 3.2 9.6 4.8 16 4.8 4.8 0 9.6-1.6 12.8-3.2 3.2-1.6 6.4-4.8 9.6-9.6l22.4 16c-4.8 6.4-11.2 11.2-19.2 14.4-8 3.2-16 4.8-24 4.8s-14.4-1.6-22.4-3.2c-6.4-3.2-12.8-6.4-17.6-11.2-4.8-4.8-9.6-9.6-11.2-16-3.2-6.4-4.8-14.4-4.8-22.4 0-8 1.6-16 4.8-22.4 3.2-6.4 6.4-12.8 11.2-16s11.2-8 17.6-11.2c6.4-3.2 14.4-3.2 22.4-3.2 8 0 14.4 1.6 19.2 3.2s11.2 6.4 14.4 11.2c4.8 4.8 8 9.6 9.6 16 1.6 6.4 3.2 14.4 3.2 22.4v11.2z m88-35.2H816v41.6c0 1.6 1.6 4.8 1.6 6.4 1.6 1.6 3.2 3.2 4.8 3.2 1.6 1.6 4.8 1.6 8 1.6h6.4c3.2 0 4.8-1.6 6.4-1.6v25.6c-3.2 1.6-6.4 1.6-11.2 3.2h-11.2c-4.8 0-9.6 0-14.4-1.6s-8-3.2-11.2-4.8-6.4-4.8-8-9.6c-3.2-6.4-3.2-11.2-3.2-16v-48h-19.2v-25.6H784V496h32v30.4h27.2v25.6z" fill="#333333" p-id="1504"></path></svg>