<?xml version="1.0" standalone="no"?><!DOCTYPE svg PUBLIC "-//W3C//DTD SVG 1.1//EN" "http://www.w3.org/Graphics/SVG/1.1/DTD/svg11.dtd"><svg t="1739565711736" class="icon" viewBox="0 0 1024 1024" version="1.1" xmlns="http://www.w3.org/2000/svg" p-id="5887" xmlns:xlink="http://www.w3.org/1999/xlink" width="200" height="200"><path d="M498.133333 512l284.16-249.386667a384 384 0 1 0 0 498.773334z" fill="#FFC107" p-id="5888"></path><path d="M600.106667 240.853333c-24.106667-25.173333-61.653333-36.053333-77.44-20.266666s8.32 48.853333 8.32 48.853333h40.533333v40.533333s33.706667 23.253333 48.853333 8.32 4.906667-52.266667-20.266666-77.44z" fill="#263238" p-id="5889"></path><path d="M704 512m-42.666667 0a42.666667 42.666667 0 1 0 85.333334 0 42.666667 42.666667 0 1 0-85.333334 0Z" fill="#FFC107" p-id="5890"></path><path d="M874.666667 512m-42.666667 0a42.666667 42.666667 0 1 0 85.333333 0 42.666667 42.666667 0 1 0-85.333333 0Z" fill="#FFC107" p-id="5891"></path></svg>