<?xml version="1.0" standalone="no"?><!DOCTYPE svg PUBLIC "-//W3C//DTD SVG 1.1//EN" "http://www.w3.org/Graphics/SVG/1.1/DTD/svg11.dtd"><svg t="1740866262334" class="icon" viewBox="0 0 1024 1024" version="1.1" xmlns="http://www.w3.org/2000/svg" p-id="4444" xmlns:xlink="http://www.w3.org/1999/xlink" width="200" height="200"><path d="M164.565333 42.666667h694.826667a121.898667 121.898667 0 0 1 121.898667 121.898666v694.869334A121.898667 121.898667 0 0 1 859.392 981.333333H164.565333A121.898667 121.898667 0 0 1 42.666667 859.434667V164.565333A121.898667 121.898667 0 0 1 164.565333 42.666667z" fill="#023894" p-id="4445"></path><path d="M457.301333 91.477333l-6.101333 36.096c7.850667 6.997333 26.794667 18.944 26.794667 18.944 26.794667 11.946667 150.954667 110.592 150.954666 110.592l32.981334 26.965334c171.946667 139.008 220.586667 151.125333 220.586666 151.125333 29.824 8.533333 67.285333 12.245333 98.773334 13.738667l-0.042667 298.538666h-18.56l-53.034667 21.845334 0.853334 46.293333 52.181333-20.096-0.170667 4.693333c0 17.536 1.92 80.213333 3.2 118.997334-6.826667 11.946667-15.573333 22.698667-25.856 31.744h-35.2c-15.061333-0.853333-22.656-18.005333-28.586666-43.733334l-1.408-6.613333c-6.4-29.44-20.096-69.290667-21.290667-69.546667-1.152 0-1.706667 3.754667-1.706667 3.754667v105.941333c-9.088 36.096-40.533333 36.394667-40.533333 36.394667H337.237333l2.005334-44.245333c8.192-56.192 50.133333-62.890667 50.133333-62.890667 10.496-6.4 88.021333-8.106667 88.021333-8.106667l13.994667-0.938666c31.018667-2.432 33.536-6.058667 33.536-6.058667 21.333333-6.741333 10.410667-23.210667 4.352-30.378667l-3.2-3.413333c-66.432-67.84-89.472-181.034667-89.472-181.034667-16.341333-86.144-37.888-116.096-37.888-116.096-19.456-30.122667-54.186667-41.770667-70.272-45.653333l-8.704-1.792c-44.330667-10.794667-94.165333 0.853333-94.165333 0.853333-12.501333 1.749333-19.498667 1.194667-19.498667 1.194667-15.488-2.773333-21.717333-9.045333-23.936-12.288l-1.152-2.005333c-16.298667-27.306667-9.6-72.149333-9.6-72.149334-25.344-24.149333-39.338667-68.394667-39.338667-68.394666-2.944-17.493333-1.450667-34.346667-1.450666-34.346667-17.792-30.549333-18.944-65.792-18.944-65.792 11.349333-10.752 32-21.802667 32-21.802667 11.989333-8.746667 74.922667-32 74.922666-32l21.888-34.688c27.989333-6.656 123.861333-10.154667 123.861334-10.154666l0.853333-1.194667 26.837333-18.901333c9.173333-11.349333 41.301333-13.226667 56.789334-13.44l8.490666 0.042666z" fill="#FDD000" p-id="4446"></path><path d="M584.661333 725.674667h33.536l0.725334 23.424c4.096 104.192 15.018667 138.666667 15.018666 138.666666h27.093334l3.498666 32.341334h-94.421333l-4.693333-32.597334h32.341333c-9.301333-27.648-14.250667-126.293333-14.250667-126.293333l-1.450666 0.256-34.986667 12.8-1.152-34.346667 38.741333-14.250666z m376.832 21.546666l19.754667 0.256v111.957334c0 21.76-5.674667 42.154667-15.658667 59.818666l-3.797333-124.032-51.584 19.797334-1.152-45.653334 52.48-22.186666zM738.56 575.146667l33.792-0.853334-0.213333 4.608c-0.298667 11.178667-0.512 40.746667-0.64 71.893334l-0.298667 93.44h27.093333l0.853334 32.341333h-96.170667l-2.005333-32 34.090666-0.341333-0.298666-132.096-35.84 13.653333v-34.645333l39.637333-16z m179.541333-132.992c21.248 3.413333 43.434667 5.290667 63.189334 6.272v8.576c-5.333333-0.128-12.202667 0.853333-12.202667 0.853333-17.493333 4.394667-19.541333 21.248-19.541333 21.248l-0.298667 7.253333c-0.938667 32.128-2.304 158.378667-2.304 158.378667 4.352 19.2 23.04 19.754667 23.04 19.754667h11.264l0.085333 42.24c-7.594667 0.426667-17.237333 0.725333-22.954666-0.256l-6.229334-1.493334c-7.466667-1.962667-24.917333-7.936-36.778666-22.229333l-4.096-5.546667c-2.474667-3.712-10.453333-17.664-10.965334-43.264l3.498667-146.090666 1.066667-8.917334c0.853333-6.4 2.432-14.933333 4.736-20.778666l2.389333-5.12a117.76 117.76 0 0 1 6.101333-10.88z m-366.378666 22.997333l31.786666-2.901333-4.181333 23.68c-5.674667 34.56-14.677333 99.456-10.965333 144.512l27.946666-0.853334 0.128 12.757334c0.213333 5.717333 0.768 12.330667 1.92 17.493333l-98.517333 4.394667-1.194667-18.730667a172.202667 172.202667 0 0 1-0.256-12.117333l34.389334-1.194667v-20.992c0.341333-26.496 2.133333-73.258667 10.24-111.402667l-38.229334 17.450667 6.997334-32.853333 39.936-19.242667z m178.090666-127.786667l17.365334 13.226667 8.277333 5.973333a26.538667 26.538667 0 0 0-6.698667 12.544l-10.496 104.490667c-0.853333 7.850667 0.597333 13.952 6.997334 16 6.4 2.048 6.4 1.152 14.848 0.853333 8.746667-0.554667 11.946667-8.704 13.141333-10.752 1.152-2.048 1.706667-11.946667 1.706667-11.946666-0.853333-6.101333 6.442667-70.698667 8.789333-91.392l16.981333 11.818666 15.061334 10.026667-4.693334 64.896c-0.853333 26.453333-9.6 36.949333-9.6 36.949333-8.96 15.786667-26.453333 21.248-32.042666 22.613334l-1.749334 0.426666c-18.645333 4.053333-38.485333-1.493333-38.485333-1.493333-22.442667-8.704-25.6-27.946667-25.6-27.946667-3.541333-14.250667 0-31.701333 0-31.701333-0.341333-8.149333 10.453333-89.088 10.453333-89.088 1.450667-11.349333 6.101333-22.101333 8.149334-25.6a42.496 42.496 0 0 1 7.594666-9.898667z" fill="#023894" p-id="4447"></path></svg>