<?xml version="1.0" standalone="no"?><!DOCTYPE svg PUBLIC "-//W3C//DTD SVG 1.1//EN" "http://www.w3.org/Graphics/SVG/1.1/DTD/svg11.dtd"><svg t="1739559236276" class="icon" viewBox="0 0 1024 1024" version="1.1" xmlns="http://www.w3.org/2000/svg" p-id="37179" xmlns:xlink="http://www.w3.org/1999/xlink" width="200" height="200"><path d="M275.720258 497.118968a240.177548 240.177548 0 1 0 480.371613 0.033032 240.177548 240.177548 0 0 0-480.371613-0.033032z" fill="#E7EDF2" p-id="37180"></path><path d="M700.052645 433.052903h-40.035097v-32.008258h24.014452l65.651613-96.074322h102.482581v32.024774H765.687742zM692.025806 481.114839h176.144517v32.008258H692.042323z" fill="#449EFE" p-id="37181"></path><path d="M804.120774 320.974452a48.028903 48.028903 0 1 0 96.074323 0 48.028903 48.028903 0 0 0-96.074323 0z" fill="#FFFFFF" p-id="37182"></path><path d="M852.166194 385.024a64.247742 64.247742 0 0 1-64.049549-64.049548 64.247742 64.247742 0 0 1 64.049549-64.049549 64.247742 64.247742 0 0 1 64.049548 64.049549 64.247742 64.247742 0 0 1-64.049548 64.049548z m0-96.074323a32.123871 32.123871 0 0 0-32.041291 32.041291c0 17.606194 14.418581 32.008258 32.041291 32.008258a32.123871 32.123871 0 0 0 32.024774-32.024774 32.123871 32.123871 0 0 0-32.041291-32.024775zM852.166194 689.251097H749.667097l-64.049549-96.057807h-25.616516v-32.04129h43.22271l62.447484 96.074323h86.478451z" fill="#449EFE" p-id="37183"></path><path d="M804.120774 673.246968a48.028903 48.028903 0 1 0 96.074323 0 48.028903 48.028903 0 0 0-96.074323 0z" fill="#FFFFFF" p-id="37184"></path><path d="M852.166194 737.28a64.247742 64.247742 0 0 1-64.049549-64.033032 64.247742 64.247742 0 0 1 64.049549-64.049549 64.247742 64.247742 0 0 1 64.049548 64.049549 64.247742 64.247742 0 0 1-64.049548 64.049548z m0-96.057806a32.123871 32.123871 0 0 0-32.041291 32.024774c0 17.606194 14.418581 32.024774 32.041291 32.024774a32.123871 32.123871 0 0 0 32.024774-32.024774 32.123871 32.123871 0 0 0-32.041291-32.024774z" fill="#449EFE" p-id="37185"></path><path d="M820.141419 497.118968a48.028903 48.028903 0 1 0 96.074323 0 48.028903 48.028903 0 0 0-96.074323 0z" fill="#FFFFFF" p-id="37186"></path><path d="M868.170323 561.168516a64.247742 64.247742 0 0 1-64.049549-64.049548 64.247742 64.247742 0 0 1 64.049549-64.049549 64.247742 64.247742 0 0 1 64.049548 64.049549 64.247742 64.247742 0 0 1-64.049548 64.049548z m0-96.074322a32.123871 32.123871 0 0 0-32.024775 32.024774c0 17.606194 14.418581 32.024774 32.041291 32.024774a32.123871 32.123871 0 0 0 32.008258-32.04129 32.123871 32.123871 0 0 0-32.024774-32.008258zM708.046452 826.962581l-102.466065-153.715613h-9.612387v-32.024774h25.616516l113.680516 168.134193z" fill="#449EFE" p-id="37187"></path><path d="M676.021677 817.350194a48.028903 48.028903 0 1 0 96.074323 0 48.028903 48.028903 0 0 0-96.074323 0z" fill="#FFFFFF" p-id="37188"></path><path d="M724.067097 881.399742a64.247742 64.247742 0 0 1-64.049549-64.049548 64.247742 64.247742 0 0 1 64.049549-64.049549 64.247742 64.247742 0 0 1 64.049548 64.049549 64.247742 64.247742 0 0 1-64.049548 64.049548z m0-96.074323a32.123871 32.123871 0 0 0-32.041291 32.041291c0 17.606194 14.418581 32.008258 32.041291 32.008258a32.123871 32.123871 0 0 0 32.024774-32.024774 32.123871 32.123871 0 0 0-32.04129-32.024775zM621.584516 352.999226h-105.670193v-32.024774h89.666064l104.068129-121.690839 24.030968 20.810322z" fill="#449EFE" p-id="37189"></path><path d="M676.021677 208.896a48.028903 48.028903 0 1 0 96.074323 0 48.028903 48.028903 0 0 0-96.074323 0z" fill="#FFFFFF" p-id="37190"></path><path d="M724.067097 272.945548a64.247742 64.247742 0 0 1-64.049549-64.049548A64.247742 64.247742 0 0 1 724.067097 144.846452a64.247742 64.247742 0 0 1 64.049548 64.049548 64.247742 64.247742 0 0 1-64.049548 64.049548z m0-96.074322a32.123871 32.123871 0 0 0-32.041291 32.024774c0 17.606194 14.418581 32.024774 32.041291 32.024774a32.123871 32.123871 0 0 0 32.024774-32.024774 32.123871 32.123871 0 0 0-32.04129-32.024774z" fill="#449EFE" p-id="37191"></path><path d="M403.819355 128.825806c-51.233032 0-94.472258 33.626839-107.272258 80.070194-64.049548 1.602065-116.901161 62.430968-116.901162 136.092903 0 6.408258 0 11.230968 1.602065 17.62271-46.426839 22.412387-81.655742 81.655742-81.655742 150.511484 0 44.84129 14.418581 84.859871 35.228903 113.680516-3.204129 16.020645-4.806194 33.626839-3.204129 51.249548 8.010323 75.247484 68.855742 128.099097 134.507355 121.690839 17.606194 46.426839 65.635097 81.655742 121.690839 81.655742 70.44129 0 128.099097-54.437161 128.099097-120.072258v-520.423226c0-60.828903-49.647484-112.061935-112.094968-112.061935z" fill="#E7EDF2" p-id="37192"></path><path d="M387.79871 897.420387c-57.64129 0-108.874323-32.04129-131.303226-80.070193-68.839226 1.602065-131.28671-57.64129-139.297032-136.092904-1.602065-16.020645-1.602065-33.626839 1.602064-49.647484C96.388129 599.585032 83.571613 557.947871 83.571613 514.725161 83.571613 444.283871 115.612903 381.819871 163.641806 354.60129v-7.993806c0-78.451613 52.851613-142.517677 121.690839-150.528 19.208258-48.028903 67.253677-81.655742 118.48671-81.655742 70.457806 0 128.099097 57.64129 128.099097 128.099097v520.390193c0 73.661935-64.049548 134.507355-144.103226 134.507355z m-110.476387-113.697032l4.806193 11.214451c16.020645 41.620645 57.64129 70.457806 105.68671 70.457807 62.430968 0 112.078452-46.443355 112.078451-104.084645V240.920774c0-52.851613-43.239226-96.074323-96.074322-96.074322-41.620645 0-80.053677 28.820645-92.870194 68.855742l-3.204129 11.197935h-11.197935c-56.055742 1.602065-100.880516 56.055742-100.880516 120.10529 0 4.789677 0 9.595871 1.602064 14.402065l1.602065 11.214451-11.214452 4.789678C144.433548 394.652903 115.612903 450.692129 115.612903 511.537548c0 40.035097 11.230968 76.866065 32.041291 104.084646l4.789677 6.408258-1.602065 7.993806c-3.204129 14.418581-4.789677 30.42271-3.204129 46.443355 8.010323 65.651613 60.845419 113.680516 116.901162 107.272258h12.8z" fill="#E7EDF2" p-id="37193"></path><path d="M308.752516 240.920774c0-12.816516 1.602065-24.014452 4.806194-36.830968l30.422709 9.612388c-3.204129 9.612387-3.204129 17.606194-3.204129 27.21858 0 52.851613 43.239226 96.074323 96.074323 96.074323v32.024774c-70.457806 0-128.099097-57.64129-128.099097-128.099097zM251.705806 521.133419l16.020646-27.21858c28.820645 17.606194 62.430968-3.204129 84.859871-28.820645 25.616516-30.42271 60.845419-48.045419 92.870193-48.04542 25.616516 0 48.028903 11.214452 65.651613 30.42271a150.379355 150.379355 0 0 1 19.208258 28.820645l-28.820645 12.816516a67.171097 67.171097 0 0 0-14.418581-22.412387c-11.197935-12.816516-25.6-19.224774-41.620645-19.224774-24.014452 0-49.647484 14.418581-68.855742 36.830968-25.616516 32.024774-56.039226 48.045419-84.859871 48.045419-14.418581 0-27.218581-3.204129-40.035097-11.230968z m137.711484-291.427096l30.42271-11.197936c14.402065 40.018581 52.835097 62.430968 92.870194 52.835097l6.391741 32.024774c-9.595871 3.204129-16.004129 3.204129-24.014451 3.204129-46.426839 0-88.064-28.820645-105.670194-76.866064z m-1.602064 520.390193c19.208258-54.437161 73.661935-84.859871 129.684645-73.661935l-6.391742 32.04129c-40.035097-9.612387-76.866065 12.8-92.870194 52.851613l-30.422709-11.230968z" fill="#AEC1CC" p-id="37194"></path><path d="M292.236387 368.507871h-32.024774c0-41.620645 38.433032-70.44129 76.866064-80.053677l8.010323 30.422709c-25.633032 8.010323-52.851613 25.616516-52.851613 49.630968z m-3.204129 320.247742c-38.416516-9.612387-76.849548-38.433032-76.849548-80.053678h32.024774c0 24.014452 27.218581 41.620645 51.233032 48.028904l-6.408258 32.024774z" fill="#AEC1CC" p-id="37195"></path><path d="M515.914323 401.044645h48.028903v32.024774h-48.028903v-32.04129z m80.053677 0h32.024774v32.024774h-32.024774v-32.04129z m0 160.123871h32.024774v32.024774h-32.024774v-32.04129z m-80.053677 0h48.028903v32.024774h-48.028903v-32.04129z m0 80.053678h48.028903v32.024774h-48.028903v-32.024774z m0-160.123871h80.053677v32.04129h-80.053677v-32.04129z m112.078451 0h32.024774v32.04129h-32.04129v-32.04129z" fill="#449EFE" p-id="37196"></path><path d="M277.834323 812.048516c-11.214452-20.810323-17.62271-43.239226-17.62271-65.651613 0-70.457806 56.055742-128.099097 128.099097-134.507355v-1.602064c0-38.416516 46.443355-80.053677 80.070193-80.053678v32.024775c-16.020645 0-48.045419 28.820645-48.045419 48.028903v32.04129h-16.020645c-62.430968 0-112.078452 46.410323-112.078452 104.068129 0 17.62271 4.806194 35.228903 14.418581 49.630968l-28.820645 16.020645zM195.666581 577.172645v-32.024774a39.63871 39.63871 0 0 0 40.035096-40.035097 39.63871 39.63871 0 0 0-40.035096-40.01858v-32.041291a71.762581 71.762581 0 0 1 72.059871 72.059871 71.762581 71.762581 0 0 1-72.059871 72.059871z" fill="#AEC1CC" p-id="37197"></path><path d="M499.893677 96.817548h32.024775v816.606968h-32.024775V96.817548z m0-96.074322h32.024775v64.049548h-32.024775V0.743226z m0 944.72258h32.024775v64.033033h-32.024775v-64.049549z" fill="#449EFE" p-id="37198"></path></svg>