<?xml version="1.0" standalone="no"?><!DOCTYPE svg PUBLIC "-//W3C//DTD SVG 1.1//EN" "http://www.w3.org/Graphics/SVG/1.1/DTD/svg11.dtd"><svg t="1741039466264" class="icon" viewBox="0 0 1024 1024" version="1.1" xmlns="http://www.w3.org/2000/svg" p-id="7130" xmlns:xlink="http://www.w3.org/1999/xlink" width="200" height="200"><path d="M512 1024C229.632 1024 0 794.368 0 512S229.632 0 512 0s512 229.632 512 512-229.632 512-512 512z m0-972.8C257.92 51.2 51.2 257.92 51.2 512s206.72 460.8 460.8 460.8 460.8-206.72 460.8-460.8S766.08 51.2 512 51.2z" fill="#9B7E66" p-id="7131"></path><path d="M430.72 272.512c-15.616 38.4-33.92 76.288-54.528 113.024V765.44h-49.024V460.8c-16.768 22.784-34.56 44.032-51.84 61.824-4.992-12.288-19.456-40.064-28.928-52.352 54.016-51.2 105.216-131.456 135.936-213.248l48.384 15.488z m209.408 297.472c33.92 54.016 86.912 105.216 137.6 133.632-11.136 9.984-28.416 28.416-36.224 41.216-46.848-31.232-94.08-82.944-129.28-138.624v160.896h-51.84V608.896c-37.376 55.68-86.272 105.216-135.936 134.784-8.32-12.8-23.936-31.232-35.584-41.216 53.504-27.264 108.032-77.952 144.256-132.608h-126.464v-46.72h153.728v-60.672h-114.688V280.832h288v181.504h-121.472v60.672h150.4v46.72h-122.496z m-145.92-153.728h187.648v-89.728H494.208v89.728z" fill="#9B7E66" p-id="7132"></path></svg>