<?xml version="1.0" standalone="no"?><!DOCTYPE svg PUBLIC "-//W3C//DTD SVG 1.1//EN" "http://www.w3.org/Graphics/SVG/1.1/DTD/svg11.dtd"><svg t="1739568606291" class="icon" viewBox="0 0 1024 1024" version="1.1" xmlns="http://www.w3.org/2000/svg" p-id="5401" xmlns:xlink="http://www.w3.org/1999/xlink" width="200" height="200"><path d="M0 0h1024v1024H0V0z" fill="#202425" opacity=".01" p-id="5402"></path><path d="M68.266667 102.4a34.133333 34.133333 0 0 1 34.133333-34.133333h819.2a34.133333 34.133333 0 0 1 34.133333 34.133333v716.8a34.133333 34.133333 0 0 1-34.133333 34.133333H102.4a34.133333 34.133333 0 0 1-34.133333-34.133333V102.4z" fill="#11AA66" p-id="5403"></path><path d="M307.2 597.333333a17.066667 17.066667 0 0 1 17.066667-17.066666h375.466666a17.066667 17.066667 0 0 1 17.066667 17.066666v364.919467a17.066667 17.066667 0 0 1-24.712533 15.2576l-172.4416-86.2208a17.066667 17.066667 0 0 0-15.291734 0l-172.4416 86.2208A17.066667 17.066667 0 0 1 307.2 962.2528V597.333333z" fill="#FFAA44" p-id="5404"></path><path d="M238.933333 238.933333a34.133333 34.133333 0 0 1 34.133334-34.133333h477.866666a34.133333 34.133333 0 1 1 0 68.266667H273.066667a34.133333 34.133333 0 0 1-34.133334-34.133334z" fill="#FFFFFF" p-id="5405"></path><path d="M716.8 580.266667a204.8 204.8 0 1 1-409.6 0 204.8 204.8 0 0 1 409.6 0z" fill="#FFAA44" p-id="5406"></path><path d="M512 409.6a170.666667 170.666667 0 1 0 0 341.333333 170.666667 170.666667 0 0 0 0-341.333333z m-238.933333 170.666667a238.933333 238.933333 0 1 1 477.866666 0 238.933333 238.933333 0 0 1-477.866666 0z" fill="#FFFFFF" p-id="5407"></path></svg>