<?xml version="1.0" standalone="no"?><!DOCTYPE svg PUBLIC "-//W3C//DTD SVG 1.1//EN" "http://www.w3.org/Graphics/SVG/1.1/DTD/svg11.dtd"><svg t="1739552426100" class="icon" viewBox="0 0 1364 1024" version="1.1" xmlns="http://www.w3.org/2000/svg" p-id="7154" xmlns:xlink="http://www.w3.org/1999/xlink" width="266.40625" height="200"><path d="M1170.798767 874.539458a74.656718 74.656718 0 1 0 74.570905 74.656717 74.779307 74.779307 0 0 0-74.570905-74.656717zM733.082385 93.56154a332.816951 332.816951 0 0 1 226.483228 87.442753c2.133049 2.133049 3.34668 3.677671 4.572571 4.903561a51.352544 51.352544 0 0 0 8.213465 7.919251 46.963856 46.963856 0 0 0 39.228489 19.810387 46.350911 46.350911 0 0 0 45.970885-46.007662 54.956661 54.956661 0 0 0-18.265765-39.007829 75.894867 75.894867 0 0 0-9.807122-8.838668l-3.346681-2.451781A422.858592 422.858592 0 0 0 732.739136 0.001594a429.613247 429.613247 0 0 0-428.007331 400.400282 311.768415 311.768415 0 0 0 7.012092 623.451017h73.663747a45.762484 45.762484 0 0 0 45.958626-45.100503 33.099037 33.099037 0 0 0-9.120623-25.596589 45.529565 45.529565 0 0 0-33.491323-14.624871h-75.196109a221.530632 221.530632 0 0 1 0-443.061264h42.01126a41.766082 41.766082 0 0 0 31.0518-15.544288 45.872814 45.872814 0 0 0 10.358773-38.689097c-0.306473-3.052467-0.306473-6.399147-0.306473-9.807123A337.683735 337.683735 0 0 1 733.082385 93.56154z m202.124789 245.90133a56.97938 56.97938 0 0 0-40.78537-16.451448H723.275263a74.423799 74.423799 0 0 0-133.033613 30.769846 76.875579 76.875579 0 0 0 16.42693 62.765582 74.399281 74.399281 0 0 0 57.849762 25.290117 71.775876 71.775876 0 0 0 61.184184-33.51584H871.607986a25.486259 25.486259 0 0 1 17.346348 7.355341L1034.651393 561.594188a25.743696 25.743696 0 0 0 17.971551 7.93151h86.756255a74.779307 74.779307 0 0 0 58.756921 30.463373h0.600686a74.975449 74.975449 0 0 0 73.676006-61.858423 79.229289 79.229289 0 0 0-16.451448-63.746294 74.889637 74.889637 0 0 0-57.825244-25.903062 70.966788 70.966788 0 0 0-61.196443 32.608682H1090.674578a23.635165 23.635165 0 0 1-17.052133-6.70562l-121.767681-119.144276z m355.263002 334.876447a70.366102 70.366102 0 0 0-66.982645 41.680269h-220.66025a57.494254 57.494254 0 0 0-40.785369 16.157234L793.089714 900.687697a24.431993 24.431993 0 0 1-17.346347 7.355342h-95.901397a61.527433 61.527433 0 0 0-34.999167-28.036111 69.569273 69.569273 0 0 0-26.185016-5.479729 76.814285 76.814285 0 0 0-70.917753 47.233552 74.693495 74.693495 0 0 0 1.507845 56.672907 76.985909 76.985909 0 0 0 40.797629 40.527933 81.313302 81.313302 0 0 0 26.785702 4.572571 69.998335 69.998335 0 0 0 60.277025-30.475633h122.67484a57.776209 57.776209 0 0 0 41.104101-17.064392l165.286786-168.510878a29.029082 29.029082 0 0 1 19.491655-9.439355h209.051069l2.733735 0.907159a73.688264 73.688264 0 1 0 52.982978-124.624005z m-507.163066-86.229122H679.51098a68.282088 68.282088 0 0 0-59.970552-31.088578 72.609481 72.609481 0 0 0-74.583165 74.350245 73.553417 73.553417 0 0 0 75.490323 74.963191 70.672574 70.672574 0 0 0 60.583498-32.608682H782.117996a71.530698 71.530698 0 0 0 60.571239 33.5281h0.612945a74.656718 74.656718 0 1 0-59.970553-119.144276z" fill="#1296db" p-id="7155" data-spm-anchor-id="a313x.search_index.0.i0.6b953a81X6LA9U" class="selected"></path></svg>