<?xml version="1.0" standalone="no"?><!DOCTYPE svg PUBLIC "-//W3C//DTD SVG 1.1//EN" "http://www.w3.org/Graphics/SVG/1.1/DTD/svg11.dtd"><svg t="1741635466663" class="icon" viewBox="0 0 1024 1024" version="1.1" xmlns="http://www.w3.org/2000/svg" p-id="8807" xmlns:xlink="http://www.w3.org/1999/xlink" width="200" height="200"><path d="M41.599662 41.599662m58.66619 0l854.393058 0q58.66619 0 58.66619 58.66619l0 854.393058q0 58.66619-58.66619 58.66619l-854.393058 0q-58.66619 0-58.66619-58.66619l0-854.393058q0-58.66619 58.66619-58.66619Z" fill="#FFFFFF" p-id="8808"></path><path d="M954.65891 52.266242A47.99961 47.99961 0 0 1 1002.65852 101.33251v853.3264A47.99961 47.99961 0 0 1 954.65891 1002.65852h-853.3264a47.99961 47.99961 0 0 1-49.066268-47.99961v-853.3264a47.99961 47.99961 0 0 1 49.066268-49.066268h853.3264m0-21.33316h-853.3264a69.33277 69.33277 0 0 0-70.399428 70.399428v853.3264A69.33277 69.33277 0 0 0 101.33251 1023.99168h853.3264A69.33277 69.33277 0 0 0 1023.99168 954.65891v-853.3264a69.33277 69.33277 0 0 0-69.33277-70.399428z" fill="#6DB4F4" p-id="8809"></path><path d="M581.968605 341.33056v-26.66645a5.759953 5.759953 0 0 1-3.199974-8.319932 42.66632 42.66632 0 0 1-13.013228-14.933212h-29.439761v3.199974h-9.813253a18.986512 18.986512 0 0 1-16.213202 8.1066l-85.33264 42.66632a22.826481 22.826481 0 0 1-22.826481-1.706652v-5.546622h-2.133316a85.33264 85.33264 0 0 0 6.399948-23.466476h3.199974v-6.61328h3.199974v-6.186616h3.199974v-6.61328a16.213202 16.213202 0 0 0 6.399948-3.199974 15.146544 15.146544 0 0 1 3.199974-9.813253h3.199974v-6.61328a85.33264 85.33264 0 0 0 16.213202-18.133186c7.893269-13.866554 11.519906-21.33316 19.626507-34.559719h3.199974v-6.826611l17.493191-23.039813v-9.813254h-4.266632v-3.199974h4.266632v-10.026585h-10.66658v-3.199974h3.199974v-6.613279a6.826611 6.826611 0 0 1-6.399948-8.319933 130.132276 130.132276 0 0 0-35.839709-36.266372 16.426533 16.426533 0 0 0-19.413175-3.199974 15.573207 15.573207 0 0 1-19.413176-1.706653h-26.239787a4.479964 4.479964 0 0 1-6.399948 3.199974v6.61328h-3.199974V117.33238h-3.626637a187.091813 187.091813 0 0 1-9.813254 19.839839v70.826091a50.772921 50.772921 0 0 1-9.599922 24.746466v9.813253h3.199974v3.199974h-2.986642v6.61328l-6.61328 9.813253v9.813254h-3.199974v9.813254a298.66424 298.66424 0 0 1-22.826481 36.266372v9.813253h-3.199974v3.413306a179.198544 179.198544 0 0 0-27.519776 42.66632 110.079106 110.079106 0 0 0-17.919855 29.653092 78.932692 78.932692 0 0 0-3.199974 32.853067 63.99948 63.99948 0 0 0 16.213202 16.426533v3.413305h6.61328a55.892879 55.892879 0 0 0 26.026455 11.519907l29.226429 4.906627a6.826611 6.826611 0 0 1 9.813254 3.413305h9.813253a133.118918 133.118918 0 0 0 22.826481 16.426533v6.61328h-3.199974v7.466606l-22.826481 19.839839v6.613279h-3.626637v-3.199974H341.33056a49.706263 49.706263 0 0 1-26.66645 19.413176v3.199974h-3.199974a44.372973 44.372973 0 0 1-16.213202 11.519906 169.171959 169.171959 0 0 1-52.05291 29.653093l-52.05291 13.226559-6.61328 1.493321a257.704573 257.704573 0 0 1-26.026455 29.653093v6.613279h3.199974v3.413306h-2.559979v26.453118h3.199974v2.773311h-3.199974v9.813254a4.693295 4.693295 0 0 1 3.199974 6.613279h2.986642v6.61328a249.811304 249.811304 0 0 0 22.826481 23.039813H211.198284l6.61328-6.61328h9.599922v-6.61328h3.413305v-3.199974h3.199974v3.199974h13.013228a2.773311 2.773311 0 0 1 3.199974-3.199974l61.866164-31.359745a47.786278 47.786278 0 0 1 19.413175-11.519906v-6.61328h3.199974v3.413306h3.199974a22.61315 22.61315 0 0 1 26.026456-8.319933 18.559849 18.559849 0 0 0 9.813253 8.319933v3.199974h3.199974v3.199974h-3.199974v10.026585h-3.199974v6.61328l-6.399948 6.613279v3.413306h3.199974v3.413305h-6.613279V703.99428h-3.413306v19.839839a163.412006 163.412006 0 0 0-14.506549 36.266372 8.533264 8.533264 0 0 0-4.906627 9.813253 15.146544 15.146544 0 0 1-6.613279 3.199974v6.61328h-3.199974l-3.199974 6.61328h-3.199974v6.613279a460.156261 460.156261 0 0 0-48.852937 42.66632h-6.399948v3.199974a33.493061 33.493061 0 0 0-16.213201 16.426533h-6.399948v3.199974a2.986642 2.986642 0 0 0-3.199974 3.199974h-3.199974v3.413306h-3.199974v-3.413306h-3.199974v3.413306h-10.026585v4.266632h-13.013228l-11.306575 16.426533a6.399948 6.399948 0 0 0 1.706653 9.813254v6.613279h3.199974v3.413306h3.199974a20.05317 20.05317 0 0 0 13.013228 13.226559v3.199974h3.199974v3.413306h6.399948a42.66632 42.66632 0 0 0 29.226429 3.199974v-3.199974h3.199974v-3.413306h3.413305v3.413306h3.199974c21.33316-11.733238 31.359745-17.706523 52.052911-29.653093v-5.119958h6.613279v-3.199974a246.184666 246.184666 0 0 0 32.213072-30.506419 138.238877 138.238877 0 0 1 9.813254-18.133186h3.199974v-6.613279h3.199974a42.66632 42.66632 0 0 1 13.226559-26.879782v-6.61328h3.199974a12.373233 12.373233 0 0 1 6.613279-13.226559 119.892359 119.892359 0 0 1 3.413306-29.226429h3.413306v-3.199974h-3.413306v-3.199974h3.413306V746.6606l6.399948-13.226559v-13.439891h3.199974v-6.399948h-6.399948v-3.413306h9.813253c2.773311-21.33316 4.0533-31.573077 6.399948-52.692905h3.199974v-3.413305h-3.199974v-3.413306h3.199974v-3.199974l6.399948-9.813254v-9.813253h6.61328a32.426403 32.426403 0 0 1 19.413175-13.226559 118.61237 118.61237 0 0 0 26.879782-3.199974v-3.413306h3.199974v-3.199974h3.199974v3.199974h3.199974a6.61328 6.61328 0 0 1 9.813254-3.199974v-3.413306h9.813253a125.012318 125.012318 0 0 1 19.413176-18.133186 42.66632 42.66632 0 0 0 3.199974-23.039812c-11.306575-11.519906-17.27986-17.066528-29.226429-27.94644h-9.813254v-3.199974h-46.292957a6.61328 6.61328 0 0 0-6.61328-6.61328 130.132276 130.132276 0 0 1 3.199974-36.266372l6.61328-3.413305a8.746596 8.746596 0 0 1 4.906627-9.813254 65.919464 65.919464 0 0 1 16.213201-19.839839 29.439761 29.439761 0 0 0 11.306575-6.613279v-6.61328H490.66268v2.773311h3.199974a196.05174 196.05174 0 0 0 22.826481-19.626507 10.879912 10.879912 0 0 0 9.813254-3.413306v-2.559979h6.399948v-3.199974a65.066138 65.066138 0 0 0 30.933082-23.039813 127.99896 127.99896 0 0 1 11.306575-13.226559 67.199454 67.199454 0 0 1 6.826611-36.266372z m-198.398388 205.864994a132.265592 132.265592 0 0 1-32.426403 26.453118 150.825441 150.825441 0 0 1-45.439631 27.94644v3.413306h-9.813254l-6.399948 6.613279h-9.813253v3.199974h-3.413306a17.27986 17.27986 0 0 1-3.199974 6.61328 14.079886 14.079886 0 0 1-13.013228-3.413306 34.559719 34.559719 0 0 1 14.719881-19.839839 3.626637 3.626637 0 0 0 4.906627-3.199974h3.199974v3.199974h3.199974v-6.186616a75.519386 75.519386 0 0 0 22.826481-14.933212l48.426273-37.973025a2.986642 2.986642 0 0 0 3.199974-3.413305h3.199974v3.413305h3.199974v-6.826611h13.013228a16.213202 16.213202 0 0 1 3.626637 14.933212z" fill="#137AD7" p-id="8810"></path><path d="M562.342098 802.553479h-3.199974v-10.026585a24.319802 24.319802 0 0 1-9.813254-14.71988 158.505379 158.505379 0 0 0-30.933082-27.94644 9.38659 9.38659 0 0 0-11.306575-3.199974v-3.199974h-6.613279v-3.413306h-3.199974v3.413306h-3.199974v-3.413306h-3.199974v-3.413305h-22.826482l-9.813253-6.61328h-3.199974v3.199974h-3.199974v-6.613279h-13.013228a11.519906 11.519906 0 0 1-4.906627 6.613279 50.346258 50.346258 0 0 0 1.706653 29.439761h7.039943v3.413306h-3.199974v3.199974a76.586044 76.586044 0 0 1 11.306575 29.653092l16.213201 32.853066a29.866424 29.866424 0 0 0 11.306575 13.22656v6.613279h3.199974a55.892879 55.892879 0 0 0 17.919855 23.039813 3.626637 3.626637 0 0 1 4.906626 3.199974h9.813254V874.65956h3.199974v3.199974h6.61328a114.985732 114.985732 0 0 0 29.226429-23.039813h3.413305v-3.199974h3.199974v-6.613279l6.61328-13.22656a24.746466 24.746466 0 0 0-3.413306-23.039812zM920.099191 436.903117h-3.413306v-15.573207h-3.199974v-6.61328h-3.199974v-6.613279a193.491761 193.491761 0 0 1-29.226429-19.626507h-9.813254v3.199974h-3.413305v-3.199974h-22.61315a18.346518 18.346518 0 0 1-16.213201 6.613279v4.906627h-2.346648v-3.199974h-3.199974a49.919594 49.919594 0 0 1-16.213202 8.106601 38.186356 38.186356 0 0 1-22.613149 4.906627 216.104911 216.104911 0 0 1-48.852937 19.839838 27.733108 27.733108 0 0 1-19.413175 6.61328v3.413306h-9.813254v2.986642a56.106211 56.106211 0 0 1-16.213201 3.413306v6.613279h-4.479964v3.413306H682.66112v-2.773311h-6.399948a11.733238 11.733238 0 0 1-9.813254 6.61328 222.291527 222.291527 0 0 0-35.626377 31.359745 74.452728 74.452728 0 0 1-9.813253-1.706653 117.972375 117.972375 0 0 0-6.399948-13.226559 25.599792 25.599792 0 0 0-16.213202-18.133186 7.679938 7.679938 0 0 0-9.813254 4.906627h-3.199974v6.613279h-3.199974v6.61328h6.61328v3.199974h-9.813254v36.266372h3.199974v6.613279h3.199974v3.199974h-3.199974v9.813254a88.319282 88.319282 0 0 1 6.61328 39.466346h3.199974v9.813254l6.399948 10.026585v36.266372h3.199974a14.293217 14.293217 0 0 0 3.199974 13.013227h3.199974v6.61328h3.199974v6.61328h3.199974a122.239007 122.239007 0 0 0 21.33316 52.692905l13.013228 13.226559a46.079626 46.079626 0 0 0 30.933082 1.706653 122.452338 122.452338 0 0 0 26.026455-6.61328 5.33329 5.33329 0 0 1 6.399948-1.706653v-6.613279h3.413305v3.413305h3.199974a178.345218 178.345218 0 0 0 32.426404-19.839838h6.613279v-3.413306a6.61328 6.61328 0 0 0 9.813254-3.199974h48.426273a174.078586 174.078586 0 0 0 48.852936-30.933082 14.933212 14.933212 0 0 1 6.61328-8.319932 27.94644 27.94644 0 0 0-4.906627-19.626508 33.27973 33.27973 0 0 1-11.306575-13.226559h-7.253274v-10.026585a11.733238 11.733238 0 0 1-1.706653-16.426533 178.558549 178.558549 0 0 0 23.039813-46.079626 55.679548 55.679548 0 0 1 19.626507-29.653092c10.879912-13.439891 16.426533-19.839839 27.519777-33.066398a18.986512 18.986512 0 0 1 6.613279-16.426533 21.33316 21.33316 0 0 0-3.199974-19.839839z m-97.492541 55.892879h-3.199974a4.693295 4.693295 0 0 1-3.199974 6.61328v7.253274h-3.199974v9.813254c-8.959927 17.066528-13.439891 25.599792-22.61315 42.66632v6.613279h-3.199974a43.94631 43.94631 0 0 1-4.906627 16.426533 8.746596 8.746596 0 0 0-4.906627 10.026586 177.918554 177.918554 0 0 1-22.613149 23.039812v3.199974h-7.039943v3.413306a63.99948 63.99948 0 0 1-26.026455 9.813254v2.986642h-9.813254a6.61328 6.61328 0 0 1-9.813253 3.199974 17.919854 17.919854 0 0 0-8.106601-6.61328 21.33316 21.33316 0 0 1-4.906627-19.839838h-3.199974v-9.813254H682.66112v-3.413306h3.199974v-3.199974H682.66112v-6.613279a37.33303 37.33303 0 0 1-3.413306-26.453119 228.478144 228.478144 0 0 1-9.599922-23.039812v-16.426534h6.61328v-3.199974h-3.199974v-3.413305a19.839839 19.839839 0 0 0 13.013228-13.226559h6.399948v-3.199974h3.199974v-3.413306h6.399948v-3.413306h6.613279v-2.986642h9.813254l6.399948-6.61328a13.653222 13.653222 0 0 0 16.213201-3.199974h9.813254v-3.199974h9.813254v-3.413305h6.399948v-3.199974h26.026455v3.199974h3.199974v-3.199974h3.199974a8.319932 8.319932 0 0 1 13.013227-1.706653 31.573077 31.573077 0 0 0 9.813254 4.906627z" fill="#137AD7" p-id="8811"></path></svg>