<?xml version="1.0" standalone="no"?><!DOCTYPE svg PUBLIC "-//W3C//DTD SVG 1.1//EN" "http://www.w3.org/Graphics/SVG/1.1/DTD/svg11.dtd"><svg t="1741039249952" class="icon" viewBox="0 0 1024 1024" version="1.1" xmlns="http://www.w3.org/2000/svg" p-id="4843" xmlns:xlink="http://www.w3.org/1999/xlink" width="200" height="200"><path d="M780.8 349.866667H247.466667V59.733333c0-8.533333 8.533333-17.066667 17.066666-17.066666H768c8.533333 0 17.066667 8.533333 17.066667 17.066666v290.133334h-4.266667z" fill="#FFF7D7" p-id="4844"></path><path d="M247.466667 42.666667h128v277.333333h-128V42.666667z m204.8 0h128v277.333333h-128V42.666667z m200.533333 0h128v277.333333h-128V42.666667z" fill="#F94F46" p-id="4845"></path><path d="M128 597.333333c0 213.333333 174.933333 384 388.266667 384s388.266667-170.666667 388.266666-384-174.933333-384-388.266666-384S128 384 128 597.333333z" fill="#FEE701" p-id="4846"></path><path d="M226.133333 597.333333a285.866667 285.866667 0 1 0 571.733334 0 285.866667 285.866667 0 0 0-571.733334 0z" fill="#F5B319" p-id="4847"></path><path d="M558.933333 448v281.6h-76.8v-183.466667c-12.8 8.533333-25.6 17.066667-38.4 21.333334-12.8 4.266667-25.6 12.8-42.666666 17.066666v-64c25.6-8.533333 46.933333-17.066667 59.733333-29.866666 12.8-12.8 25.6-25.6 34.133333-42.666667h64zM285.866667 366.933333c-4.266667 0-8.533333 0-12.8-4.266666-4.266667-4.266667-4.266667-17.066667 4.266666-21.333334l17.066667-17.066666c4.266667-4.266667 8.533333-4.266667 8.533333-8.533334 8.533333-4.266667 17.066667-4.266667 21.333334 4.266667 8.533333 8.533333 4.266667 17.066667 0 21.333333-4.266667 4.266667-8.533333 4.266667-8.533334 8.533334-8.533333 4.266667-12.8 8.533333-17.066666 12.8-4.266667 4.266667-8.533333 4.266667-12.8 4.266666zM853.333333 567.466667c-8.533333 0-12.8-4.266667-17.066666-12.8-4.266667-25.6-8.533333-46.933333-17.066667-68.266667-29.866667-76.8-85.333333-136.533333-153.6-174.933333-46.933333-21.333333-93.866667-34.133333-140.8-34.133334-46.933333 0-98.133333 8.533333-140.8 29.866667-8.533333 4.266667-12.8 4.266667-21.333333 8.533333s-17.066667 4.266667-21.333334-4.266666c-4.266667-8.533333 0-17.066667 8.533334-21.333334 8.533333-4.266667 12.8-8.533333 21.333333-8.533333 46.933333-25.6 98.133333-38.4 153.6-34.133333 55.466667 0 106.666667 12.8 157.866667 38.4 81.066667 38.4 140.8 106.666667 170.666666 192 8.533333 25.6 17.066667 51.2 21.333334 76.8-4.266667 4.266667-8.533333 12.8-21.333334 12.8z" fill="#FFFFFF" p-id="4848"></path></svg>