<?xml version="1.0" standalone="no"?><!DOCTYPE svg PUBLIC "-//W3C//DTD SVG 1.1//EN" "http://www.w3.org/Graphics/SVG/1.1/DTD/svg11.dtd"><svg t="1741131425876" class="icon" viewBox="0 0 1024 1024" version="1.1" xmlns="http://www.w3.org/2000/svg" p-id="6901" xmlns:xlink="http://www.w3.org/1999/xlink" width="200" height="200"><path d="M536.462222 70.741333c-14.392889-8.988444-31.658667-8.988444-48.924444 0l-152.576 92.728889c-14.392889 8.96-23.04 23.893333-23.04 41.841778v182.471111c0 17.92 8.647111 32.881778 23.04 41.870222l152.576 92.728889c14.392889 8.96 31.658667 8.96 48.924444 0l152.547556-92.728889c14.392889-8.988444 23.04-23.921778 23.04-41.870222V205.312c0-17.92-8.647111-32.881778-23.04-41.870222l-152.547556-92.728889z" fill="#3F92FE" p-id="6902"></path><path d="M288.512 501.646222c-14.392889-8.988444-31.658667-8.988444-48.924444 0l-152.547556 92.728889c-14.392889 8.96-23.04 23.893333-23.04 41.841778v182.471111c0 17.92 8.647111 32.881778 23.04 41.870222l152.547556 92.728889c14.392889 8.96 31.658667 8.96 48.924444 0l152.576-92.728889c14.364444-8.988444 23.04-23.950222 23.04-41.898666v-182.442667c0-17.92-8.675556-32.881778-23.04-41.870222l-152.576-92.728889zM784.412444 501.646222c-14.392889-8.988444-31.658667-8.988444-48.924444 0l-152.547556 92.728889c-14.392889 8.96-23.04 23.893333-23.04 41.841778v182.471111c0 17.92 8.618667 32.881778 23.04 41.870222l152.547556 92.728889c14.392889 8.96 31.658667 8.96 48.924444 0l152.547556-92.728889c14.392889-8.988444 23.04-23.950222 23.04-41.898666v-182.442667c0-17.92-8.647111-32.881778-23.04-41.870222l-152.547556-92.728889z" fill="#3F92FE" fill-opacity=".6" p-id="6903"></path></svg>