<svg width="88" height="88" viewBox="0 0 88 88" fill="none" xmlns="http://www.w3.org/2000/svg">
<path fill-rule="evenodd" clip-rule="evenodd" d="M42.0873 23.9994C43.3592 23.8762 44.642 23.8753 45.914 23.9968L46.7859 21.5303L46.8247 21.535C48.8749 21.7901 50.882 22.3305 52.7874 23.1288L52.8234 23.1439L52.3435 25.724C53.505 26.2547 54.6157 26.8957 55.6561 27.6362L57.6461 25.9346L57.6773 25.9583C59.2837 27.1733 60.7206 28.6063 61.9493 30.2019L61.9831 30.2457H60.1999L60.2527 30.1841C59.5074 29.3084 58.6919 28.4927 57.8163 27.7473L55.8489 29.4292L55.8175 29.4037C54.2872 28.1659 52.5673 27.1756 50.7329 26.4633L50.6952 26.4487L51.1686 23.9023C50.0858 23.5158 48.9715 23.2179 47.8404 23.0122L46.977 25.4545L46.9371 25.4481C45.9663 25.292 44.9831 25.219 44.0001 25.219C43.0171 25.219 42.0337 25.292 41.063 25.4481L41.023 25.4545L40.1599 23.0122C39.0288 23.2179 37.9145 23.5158 36.8316 23.902L37.305 26.4487L37.2674 26.4633C35.4329 27.1756 33.713 28.1658 32.1826 29.4037L32.1511 29.4292L30.1841 27.7474C29.3085 28.4928 28.4927 29.3083 27.7474 30.1839L27.8002 30.2457H26.017L26.0508 30.2019C27.2795 28.6062 28.7165 27.1733 30.3229 25.9583L30.3541 25.9346L32.3412 27.6336C33.3819 26.8922 34.4936 26.2518 35.6565 25.7225L35.1769 23.1439L35.213 23.1288C37.1183 22.3305 39.1253 21.7901 41.1757 21.535L41.2144 21.5303L42.0873 23.9994Z" fill="#004B9D"/>
<path fill-rule="evenodd" clip-rule="evenodd" d="M44 26.5321C48.0468 26.5321 51.7718 27.9086 54.7334 30.2185H53.6285C50.9011 28.3095 47.5817 27.1886 44 27.1886C40.4183 27.1886 37.099 28.3095 34.3716 30.2185H33.2667C36.2282 27.9086 39.9531 26.5321 44 26.5321Z" fill="#004B9D"/>
<path fill-rule="evenodd" clip-rule="evenodd" d="M66.3434 35.5772C67.6668 37.0532 68.5311 38.8192 68.4981 41.3499C69.1731 40.8229 69.4204 38.615 70.5878 37.7851C70.8673 40.9151 69.6577 43.1519 67.7623 45.147C67.6306 43.1414 66.0579 44.3943 65.6221 39.4723C66.4147 39.9327 66.4394 41.1727 67.6538 41.8527C66.2509 39.323 66.3883 38.1371 66.3434 35.5772ZM62.5897 59.8323C62.6105 60.107 62.6494 60.3755 62.677 60.5269C61.9702 60.7322 61.2803 60.9978 60.6264 61.4404C61.6442 60.1222 62.0378 58.1145 61.8093 56.6789C60.1414 59.0337 57.829 60.8579 58.0551 63.4351C58.0349 63.5958 58.0405 63.8937 58.0491 64.1249C57.2329 64.3686 56.4586 64.7323 55.711 65.3307C55.571 65.4427 55.3932 65.6648 55.36 65.6172C55.3268 65.5695 55.5238 65.3667 55.6446 65.2128C56.5929 64.0039 57.1968 62.3635 57.7273 61.0815C54.1883 63.8078 53.2536 63.7001 51.3956 66.0551C50.8675 66.7243 48.5183 67.2068 47.7557 67.3589C47.5738 67.3953 47.5743 67.6441 47.7489 67.6288C48.6158 67.5532 50.1712 67.6567 50.7667 67.8849C53.8616 69.0714 56.2789 68.4451 59.5102 66.7257C57.8087 66.8737 56.1051 66.7715 54.3985 66.2977C54.6798 66.2043 54.9476 65.9494 55.2424 66.0171C58.9419 66.868 61.5131 65.4828 64.0491 62.8289C61.8477 63.389 60.1447 63.5896 58.4442 64.0164L58.4471 64.0084C58.5549 63.6821 59.0662 63.4372 59.0675 63.4366C61.5972 62.3335 64.3774 63.3141 66.9893 59.0719C65.67 59.8945 64.3119 60.0838 62.9652 60.4493C62.9682 60.2393 62.9455 59.9747 63.0905 59.7105C65.0184 57.8347 67.4632 58.6478 69.8532 53.3642C68.6271 53.5356 67.3859 54.5773 66.3285 55.3682C66.4023 55.0983 66.5448 54.7423 66.719 54.4267C68.7997 52.5845 70.8285 51.2063 71.1473 48.2488C70.4888 48.911 69.3648 49.5739 68.5317 50.0547C70.0252 47.8158 71.4569 45.2391 71.1546 41.9698C70.5678 44.6603 68.9133 44.9672 67.9582 47.0204C67.4194 45.4456 66.8133 44.5749 65.9553 43.5576C65.7124 48.1682 67.4837 47.9934 67.6344 51.3151L66.9686 51.8395C66.9705 50.2389 66.4128 48.5999 65.6099 47.2638C65.497 49.6792 64.5674 52.5701 66.0057 54.6184C66.1282 55.029 66.1129 55.3518 66.0771 55.5538C65.5209 55.9579 65.0283 56.2639 64.6357 56.2945C64.8803 54.888 64.8786 53.2999 64.3313 51.8783C63.9524 54.4626 62.1844 56.54 62.5897 59.8323Z" fill="#004B9D"/>
<path fill-rule="evenodd" clip-rule="evenodd" d="M21.6566 35.5772C20.3333 37.0532 19.4689 38.8192 19.502 41.3499C18.827 40.8229 18.5797 38.615 17.4123 37.7851C17.1327 40.9151 18.3423 43.1519 20.2377 45.147C20.3695 43.1414 21.9422 44.3943 22.378 39.4723C21.5854 39.9327 21.5606 41.1727 20.3463 41.8527C21.7492 39.323 21.6117 38.1371 21.6566 35.5772ZM25.4104 59.8323C25.3896 60.107 25.3506 60.3755 25.3231 60.5269C26.0298 60.7322 26.7199 60.9978 27.3737 61.4404C26.3559 60.1222 25.9622 58.1145 26.1908 56.6789C27.8586 59.0337 30.1711 60.8579 29.945 63.4351C29.9651 63.5958 29.9596 63.8937 29.9509 64.1249C30.7671 64.3686 31.5414 64.7323 32.2891 65.3307C32.429 65.4427 32.6068 65.6648 32.64 65.6172C32.6733 65.5695 32.4762 65.3667 32.3555 65.2128C31.4071 64.0039 30.8033 62.3635 30.2728 61.0815C33.8118 63.8078 34.7464 63.7001 36.6045 66.0551C37.1326 66.7243 39.4818 67.2068 40.2444 67.3589C40.4263 67.3953 40.4257 67.6441 40.2511 67.6288C39.3842 67.5532 37.8288 67.6567 37.2334 67.8849C34.1385 69.0714 31.7211 68.4451 28.4898 66.7257C30.1913 66.8737 31.8949 66.7715 33.6016 66.2977C33.3203 66.2043 33.0524 65.9494 32.7576 66.0171C29.0582 66.868 26.4871 65.4828 23.9509 62.8289C26.1524 63.389 27.8553 63.5896 29.5559 64.0164L29.553 64.0084C29.4452 63.6821 28.9338 63.4372 28.9325 63.4366C26.4029 62.3335 23.6227 63.3141 21.0107 59.0719C22.33 59.8945 23.6881 60.0838 25.0348 60.4493C25.0319 60.2393 25.0545 59.9747 24.9096 59.7105C22.9816 57.8347 20.5369 58.6478 18.1468 53.3642C19.3731 53.5356 20.6141 54.5773 21.6716 55.3682C21.5977 55.0983 21.4553 54.7423 21.2811 54.4267C19.2003 52.5845 17.1715 51.2063 16.8528 48.2488C17.5112 48.911 18.6353 49.5739 19.4684 50.0547C17.9749 47.8158 16.5431 45.2391 16.8455 41.9698C17.4322 44.6603 19.0868 44.9672 20.0419 47.0204C20.5807 45.4456 21.1867 44.5749 22.0447 43.5576C22.2877 48.1682 20.5164 47.9934 20.3657 51.3151L21.0314 51.8395C21.0296 50.2389 21.5873 48.5999 22.3902 47.2638C22.5031 49.6792 23.4327 52.5701 21.9944 54.6184C21.8719 55.029 21.8871 55.3518 21.923 55.5538C22.4792 55.9579 22.9717 56.2639 23.3644 56.2945C23.1197 54.888 23.1214 53.2999 23.6689 51.8783C24.0476 54.4626 25.8156 56.54 25.4104 59.8323Z" fill="#004B9D"/>
<path fill-rule="evenodd" clip-rule="evenodd" d="M44.002 67.8009L45.2338 65.6673H42.7702L44.002 67.8009ZM67.9702 30.2185L44.002 71.7395L20.0299 30.2185C36.01 30.2185 51.9901 30.2185 67.9702 30.2185ZM43.9846 59.7592L42.8474 57.7897H39.4494L38.8358 58.8528L39.3591 59.7592H43.9846ZM42.4684 57.1334L41.1484 54.8472L39.8285 57.1334H42.4684ZM38.3124 57.1334L39.4495 55.164H36.706L37.8431 57.1334H38.3124ZM39.8285 54.5076L40.3905 53.5342L39.8154 52.5381H36.777L35.9835 53.9125L36.3271 54.5076H39.8285ZM39.4364 51.8817L38.2994 49.9124H38.293L37.1561 51.8817H39.4364ZM35.6401 51.8817L36.7771 49.9124H33.674L34.811 51.8817H35.6401ZM37.1561 49.2559L38.293 47.2864H32.158L33.295 49.2559H37.1561ZM38.2995 47.2864L39.4365 49.2559H42.8605L43.9976 47.2864H38.2995ZM39.8154 49.9124L41.1485 52.2212L42.4816 49.9124H39.8154ZM44.0038 47.2864L45.1409 49.2559H48.565L49.7019 47.2864H44.0038ZM45.5199 49.9124L46.853 52.2213L48.186 49.9124H45.5199ZM49.7082 47.2864L50.8453 49.2559H54.709L55.846 47.2864H49.7082ZM51.2243 49.9124L52.3613 51.8817H53.193L54.33 49.9124H51.2243ZM52.0191 53.915L51.2243 52.5381H48.1859L47.611 53.5341L48.1728 54.5076H51.6769L52.0191 53.915ZM50.8453 51.8817L49.7082 49.9124H49.7019L48.565 51.8817H50.8453ZM48.552 55.164L49.6889 57.1334H50.1609L51.298 55.164H48.552ZM49.167 58.855L48.552 57.7897H45.154L44.0169 59.7592H48.645L49.167 58.855ZM48.1728 57.1334L46.853 54.8471L45.5329 57.1334H48.1728ZM41.9065 53.5341L42.4685 54.5076H45.533L46.0949 53.5342L45.5199 52.5381H42.4815L41.9065 53.5341ZM42.8475 55.164L43.9846 57.1334H44.0169L45.154 55.164H42.8475ZM45.1409 51.8817L44.0039 49.9124H43.9975L42.8605 51.8817H45.1409ZM23.4409 32.1878H64.5632L60.0152 40.0654H27.9888L23.4409 32.1878ZM29.126 42.0348H58.878L57.741 44.0041H30.2629L29.126 42.0348ZM45.6128 65.0109L46.7499 63.0415H41.2542L42.3913 65.0109H45.6128ZM47.1288 62.3851L48.266 60.4157H39.7382L40.8752 62.3851H47.1288ZM56.2249 46.6301H31.7791L30.6419 44.6606H57.3621L56.2249 46.6301Z" fill="#004B9D"/>
<path fill-rule="evenodd" clip-rule="evenodd" d="M44 0C68.3006 0 88 19.6994 88 44C88 68.3006 68.3006 88 44 88C19.6994 88 0 68.3006 0 44C0 19.6994 19.6994 0 44 0ZM44 2.62582C21.1488 2.62582 2.62582 21.1488 2.62582 44C2.62582 66.8512 21.1488 85.3742 44 85.3742C66.8512 85.3742 85.3741 66.8512 85.3741 44C85.3741 21.1488 66.8512 2.62582 44 2.62582Z" fill="#004B9D"/>
<path fill-rule="evenodd" clip-rule="evenodd" d="M52.4517 12.6649C52.3152 13.1269 52.1788 13.4524 52.1198 13.8218C52.0969 13.968 53.0586 13.7246 53.1521 13.7143C53.1631 13.713 53.1737 13.7122 53.1839 13.7115C53.1977 13.7078 53.2115 13.7042 53.2255 13.7009C53.3977 13.6597 53.5823 13.6427 53.7565 13.594L54.2001 13.4493L54.279 13.4178L54.3673 13.3896C54.3961 13.3779 54.4378 13.352 54.44 13.3187C54.4421 13.2857 54.4385 13.2519 54.4412 13.2241C54.444 13.1954 54.4063 13.1852 54.4401 13.1663C54.4699 13.1599 54.4011 13.0843 54.4969 13.1065L54.5657 13.1383L54.6225 13.1687C54.6701 13.1994 54.7162 13.2553 54.7558 13.2986C54.8213 13.3708 54.8749 13.4325 54.9083 13.5095C54.9351 13.5697 54.9807 13.7324 54.9835 13.7952L54.9763 13.798L54.9732 13.8371C54.9772 13.8472 54.913 14.0006 54.9078 14.0036C54.9072 14.0351 54.8921 14.0846 54.8589 14.0977L54.8611 14.1035C54.8202 14.138 54.8004 14.1237 54.7482 14.1473C54.7262 14.2279 54.4933 14.2873 54.4289 14.2823C54.424 14.2707 54.0545 14.3433 53.7212 14.3945C53.2368 14.5006 52.7342 14.5714 52.455 14.615L52.4267 14.6265L52.4132 14.6217C52.3703 14.628 52.3341 14.6338 52.3054 14.6391C52.2293 14.6534 52.0686 14.6559 52.0904 14.7299C52.1386 14.8973 52.0954 15.0775 52.2885 15.4391C52.3455 15.544 52.4036 15.947 52.4495 16.0911C52.5046 16.2641 52.6168 16.5919 52.6787 16.7574C52.7319 16.8996 52.8342 17.1001 52.8989 17.2484C52.9461 17.3572 52.978 17.476 53.029 17.5803C53.17 17.8667 53.2732 18.032 53.4439 18.2497C53.5007 18.3215 53.6028 18.4554 53.6633 18.5171C53.7235 18.5779 53.8121 18.6547 53.8746 18.7064C54.0173 18.8242 54.1973 18.9104 54.34 18.9878C54.5963 19.127 54.805 19.2175 54.9772 19.2707C55.061 19.2958 55.1646 19.3193 55.2126 19.3373C55.3341 19.3833 55.2863 19.409 55.0307 19.4661C54.8737 19.5008 54.6162 19.5909 54.2589 19.6129C54.1343 19.6205 53.9619 19.6222 53.8128 19.6501C53.6366 19.6836 53.4012 19.5822 53.2426 19.489C53.0649 19.3847 52.9583 19.3203 52.8135 19.1237C52.7487 19.0369 52.6959 18.899 52.6395 18.8037C52.4471 18.4787 52.2899 18.1998 52.2173 17.9455C52.1436 17.713 52.0935 17.4294 52.0361 17.2413C51.8608 16.6665 51.7505 16.2849 51.6375 16.009C51.599 15.9152 51.5915 15.8848 51.5235 15.8716C51.4659 15.8606 51.4463 15.9235 51.43 15.9493C51.2642 16.2038 51.139 16.5108 50.9583 16.7653C50.7995 16.9885 50.5892 17.1624 50.393 17.3444C50.1475 17.5716 49.878 17.7723 49.4987 17.8279C49.3797 17.8444 49.2085 17.8429 49.0728 17.8376C48.827 17.8278 48.5625 17.7361 48.2019 17.6575C47.8193 17.5741 47.1778 17.5187 46.7769 17.3831C46.3807 17.2494 46.3559 17.1751 46.5602 17.088C47.0233 17.0781 48.1359 17.099 48.567 17.0342C48.9818 16.9727 49.2972 16.8075 49.6447 16.5461C49.8183 16.4151 49.9472 16.2497 50.1031 16.0613C50.2276 15.9113 50.4099 15.6946 50.4707 15.4951C50.5078 15.4732 50.6537 15.211 50.7874 14.9289C50.6822 14.9369 50.5874 14.9257 50.5031 14.9377C50.3482 14.9597 50.2305 14.9554 50.1326 14.9761C49.937 15.0181 49.8352 15.0754 49.7769 15.0819C49.6758 15.0933 49.6622 15.0936 49.5345 15.1096C49.4349 15.1223 49.4242 15.1704 49.3243 15.1867C49.2298 15.2018 49.2236 15.208 49.1513 15.2357C49.1023 15.254 49.0265 15.2585 49.0051 15.2853C48.898 15.3739 48.768 15.3415 48.6807 15.3951C48.5955 15.4028 48.4212 15.3389 48.3563 15.2103C48.3551 15.2072 48.2891 15.0523 48.2822 15.0363C48.2351 14.9232 48.1835 14.8411 48.1758 14.8384C48.1827 14.5514 48.4235 14.4496 48.5909 14.4226L48.9006 14.3724C49.0741 14.3896 49.3008 14.3057 49.5972 14.2539C49.9896 14.1853 50.4599 14.1875 50.8864 14.0746C50.9719 14.0523 51.0456 14.0328 51.1111 14.0162C51.1892 13.8193 51.2803 13.6052 51.3721 13.379C51.534 12.7507 52.0946 11.2726 52.2802 10.4033L52.4431 9.36786L52.429 9.36594C52.4499 9.23455 52.2893 9.03494 52.3084 8.91296L52.3226 8.9323C52.3267 8.90529 52.3317 8.88594 52.319 8.85927L52.32 8.85803L52.3255 8.86614C52.3372 8.79122 52.3882 8.71925 52.4485 8.67656L52.5428 8.68581L52.5384 8.68482C52.7838 8.72021 53.0361 8.83586 53.2569 8.93335L53.2551 8.945L53.301 8.97781C53.3175 8.98045 53.346 9.03826 53.3471 9.06009C53.3909 9.07912 53.4356 9.12206 53.4351 9.1731C53.4743 9.19775 53.5245 9.25302 53.5163 9.30431L53.525 9.30574C53.5375 9.38255 53.5885 9.40385 53.5797 9.48703C53.6637 9.57433 53.4837 9.87111 53.429 9.94768L53.4119 9.94547C53.3921 10.0703 53.3349 10.244 53.2581 10.3453L53.2029 10.4898C53.2033 10.4898 53.1934 10.5095 53.1914 10.518C52.9598 10.9894 52.6364 12.0515 52.4435 12.6629L52.4517 12.6649Z" fill="#004B9D"/>
<path fill-rule="evenodd" clip-rule="evenodd" d="M63.3693 17.3189C63.5413 17.4185 63.5008 17.525 63.527 17.6693C63.5413 17.7459 63.5902 17.8086 63.5716 17.9005C63.5424 18.0464 63.2417 18.3603 63.1476 18.3791C63.0263 18.403 62.9384 18.3866 62.8075 18.394C62.7251 18.423 62.6425 18.4531 62.5595 18.4823C62.2742 18.5852 61.9641 17.9593 62.0508 17.7175C62.2441 17.5886 62.4547 17.6032 62.674 17.5508C62.7867 17.524 62.8665 17.4311 62.975 17.393C63.0892 17.353 63.2525 17.3439 63.3693 17.3189ZM70.7766 16.7233C70.2226 16.856 69.5007 16.9706 69.2118 17.0595C69.1544 17.0749 69.1202 17.2029 69.1342 17.2426C69.1676 17.3382 69.2215 17.4541 69.2195 17.5471C69.1771 17.5822 68.9486 17.5542 68.8592 17.5735C68.7102 17.6065 68.645 17.5866 68.4641 17.5896C68.2008 17.5941 68.1037 17.5746 67.9959 17.6687C67.9246 17.7313 68.0337 18.2323 67.9327 18.4006C67.8222 18.5835 67.4772 18.5325 67.4412 18.743C67.5322 18.8391 67.556 18.9318 67.5093 19.042C67.6086 19.0778 67.8054 19.0349 67.9859 19.0175C68.1027 19.0067 68.1774 19.0434 68.2564 18.9748C68.2726 18.9601 68.2898 18.9456 68.3065 18.9311C68.2787 18.7177 68.2355 18.532 68.3541 18.3132C68.3739 18.2757 68.4457 18.0548 68.6353 17.9787C68.7589 17.9293 68.8051 17.7222 68.9138 17.702C69.0788 17.6705 69.2142 17.7096 69.323 17.7571C69.5547 17.9664 69.3098 18.2511 69.4334 18.5222C69.5917 18.6177 70.337 18.3003 70.5125 18.2339C70.5143 18.2258 70.5162 18.2175 70.5179 18.21C70.2307 17.9789 69.8775 17.7697 69.8986 17.4763C70.1625 17.1895 70.7141 17.5797 71.03 17.7086C71.2663 17.8047 71.4002 17.6844 71.59 17.7636C71.8648 17.8777 71.9932 19.1649 71.6448 19.2983C70.9302 19.0715 69.3331 19.4052 68.5052 19.6037C68.4986 19.6178 68.4924 19.6312 68.4861 19.6446C68.5267 19.7102 68.5083 19.7406 68.4936 19.8084C68.8339 20.0856 69.25 20.296 69.628 20.5754C69.7487 20.6648 69.8832 20.8747 70.0205 21.3064C70.1047 21.571 69.7674 21.6548 69.7013 21.7347C69.5538 21.8337 69.4171 21.7556 69.1259 21.747C68.9571 21.7425 68.7253 21.659 68.5258 21.6113C68.3287 21.5631 68.1644 21.5511 67.9443 21.4763C67.768 21.4161 67.4388 21.3697 67.2521 21.3081C66.8702 21.1814 66.4797 21.088 66.1143 20.9765C66.0444 20.9693 65.9784 20.9605 65.9608 20.9466C65.9197 20.9501 65.8777 20.9206 65.8476 20.8955L65.8415 20.903L65.7214 20.8492L65.7263 20.8507C65.7215 20.8462 65.7141 20.8413 65.7062 20.8362C65.6731 20.8234 65.6415 20.8109 65.6101 20.7972C65.5511 20.7724 65.4937 20.7466 65.4364 20.7219C65.3793 20.7061 65.3301 20.7 65.3053 20.7135L65.2474 20.6658L65.1827 20.7443L65.3396 20.8732L65.3421 20.8703L65.343 20.8708C65.3664 20.9699 65.6419 20.9908 65.7178 21.0529L65.7267 21.0421L65.9275 21.1182C65.9443 21.1547 66.1137 21.2467 66.1505 21.2766C66.1532 21.3054 66.1608 21.3326 66.1834 21.3528L66.179 21.349L66.1891 21.4395L66.1888 21.4404C66.2165 21.4629 66.2091 21.5211 66.2302 21.5497L66.2026 21.5832C66.2533 21.6251 66.241 21.619 66.2461 21.6739C66.2475 21.6897 66.2264 21.7144 66.216 21.7265L66.2239 21.7323L66.2198 21.8697L66.1655 21.9482L66.176 21.9563L66.1112 22.035L66.1009 22.0266L66.09 22.0399L65.9578 22.0407L65.9529 22.0467L65.8194 22.0584L65.8147 22.0547L65.782 22.0693L65.7078 22.0983L65.6714 22.0686C65.627 22.1225 65.6217 22.0991 65.5572 22.1062L65.5284 22.0825L65.514 22.1003C65.3032 22.0793 65.2674 22.0551 65.0672 22.0568C65.0243 22.0575 64.9525 22.0603 64.8975 22.0838C64.8529 22.1028 64.846 22.1318 64.8157 22.1611C64.7802 22.1949 64.7285 22.2352 64.753 22.2823C64.7761 22.3263 64.8896 22.3741 64.921 22.3857L64.92 22.3854C64.9081 22.3757 64.9423 22.3983 64.9569 22.4021L64.9513 22.3976C64.9915 22.4295 65.0546 22.4273 65.0928 22.4588C65.0957 22.4549 65.4153 22.5802 65.6985 22.7071C65.9996 22.842 66.3883 23.0435 66.3963 23.0453L66.3904 23.0406C66.66 23.2554 66.5608 23.2131 66.6842 23.5211L66.6682 23.5413C66.7123 23.5783 66.7104 23.5909 66.7155 23.6428L66.6815 23.6843L66.7241 23.7192C66.7218 23.8176 66.8259 24.017 66.7502 24.0995C66.5617 24.3064 66.6463 24.2638 66.3778 24.1713C66.2746 24.1362 66.117 24.007 66.0202 23.963C65.8174 23.8711 65.6423 23.7591 65.4442 23.6721C65.2103 23.5694 65.0182 23.4197 64.8081 23.3279C64.5882 23.2318 64.4895 23.0899 64.3082 23.0311C64.3159 23.0212 64.1801 23.0249 64.163 23.0111C63.7768 23.4405 63.1963 24.3997 62.8555 24.8332C62.7658 25.0988 62.5664 25.1997 62.3667 25.3532L62.3587 25.3469L62.1845 25.5547L62.1892 25.5524C62.1766 25.5587 62.1685 25.5655 62.1603 25.5755L62.1649 25.5738L61.9742 25.6885L61.9573 25.6747C61.9016 25.7422 61.835 25.8075 61.797 25.7718C61.692 25.6724 61.3759 25.3776 61.0532 25.0902L61.055 25.0831L61.0002 24.9184L61.0155 24.8996L60.974 24.866C60.971 24.8345 60.9039 24.7159 60.9232 24.692L60.9187 24.689C60.9154 24.6476 60.8577 24.5176 60.829 24.4869L60.8306 24.4848L60.7773 24.3988C60.7773 24.3988 60.6738 24.2715 60.6687 24.2197C60.6503 24.0255 60.5824 23.4428 60.4373 23.3226C60.4385 23.2971 60.4276 23.2733 60.4086 23.2572L60.3675 23.0641L60.402 23.0037L60.3487 22.947C60.3512 22.9362 60.353 22.9263 60.3558 22.9151C60.4404 22.899 60.5822 23.074 60.7945 23.2984C60.93 23.4416 61.0749 23.5316 61.2182 23.6878C61.3299 23.8095 61.3934 23.9676 61.4843 24.0804C61.549 24.1613 61.6009 24.2285 61.6561 24.2707C61.6911 24.2971 61.7399 24.3099 61.7545 24.3221C61.7708 24.3019 61.787 24.2815 61.8044 24.2598C62.0225 23.9779 62.2866 23.5428 62.4655 23.311C62.6219 23.1079 62.86 22.8196 63.0783 22.5848C62.8693 22.4128 61.4249 21.8373 61.3567 21.8668L61.3792 21.8564C61.1938 21.7042 60.7179 21.6036 60.6914 21.3045C60.6797 21.31 60.6861 21.2791 60.6788 21.2686L60.6875 21.258C60.6256 21.207 60.6172 21.1351 60.5758 21.0733L60.5949 21.05C60.5461 21.0071 60.4452 20.7525 60.4889 20.6993L60.4678 20.5652L60.4754 20.556L60.4459 20.4955C60.4277 20.5182 60.443 20.4362 60.4613 20.4132L60.4442 20.3987C60.4415 20.3713 60.4419 20.3577 60.4301 20.331C60.4616 20.3064 60.5288 20.1639 60.5838 20.1765C60.7133 20.02 60.9608 20.3325 61.0749 20.3322C61.6107 20.597 61.5518 20.69 62.0025 20.9163C62.5015 21.1672 63.1497 21.5247 63.2275 21.5886L63.2671 21.6071C63.3656 21.6886 63.7102 21.7722 63.92 21.7774C64.1684 21.7826 64.2899 21.6183 64.4224 21.5225L64.5179 21.5144C64.5896 21.5027 64.656 21.4698 64.7145 21.4131L64.8732 21.2802C64.7294 21.1615 64.6638 21.0116 64.5298 20.898L64.5311 20.8987L64.4579 20.8252L64.4671 20.8139C64.307 20.6819 64.1711 20.6166 64.1347 20.4186L64.1399 20.4128L64.1328 20.407L64.1758 20.2785C64.2153 20.2866 64.3319 20.2757 64.3631 20.2497C64.4075 20.2737 64.582 20.303 64.6258 20.2989C64.657 20.2947 64.691 20.3394 64.712 20.3563L64.7452 20.3175C64.8298 20.3865 65.2332 20.3556 65.3362 20.3431L65.3626 20.3652L65.3777 20.3473C65.4419 20.3688 65.5039 20.3665 65.5593 20.3987C65.5731 20.398 65.5867 20.3975 65.6 20.3968L65.6056 20.3904L65.6323 20.3942C65.6979 20.3888 65.7648 20.3808 65.8316 20.3807C65.9035 20.3809 65.9807 20.4081 66.045 20.423C66.9489 20.6366 67.9004 20.721 68.7318 20.7415C68.7387 20.7331 68.7459 20.7246 68.753 20.7158C68.7526 20.7108 68.7523 20.7055 68.7514 20.7005C68.17 20.1942 67.1705 19.9958 66.4428 19.7435C65.9655 19.5779 65.3727 19.3639 64.9612 19.219C64.8992 19.2099 64.8259 19.1656 64.7532 19.1017C64.7426 19.0956 64.7319 19.0911 64.7208 19.0888C64.707 19.078 64.6941 19.0701 64.6725 19.0685C64.6669 19.0668 64.6616 19.0651 64.6555 19.0644C64.6452 19.0572 64.6277 19.0489 64.6161 19.0455C64.6099 19.0417 64.6036 19.038 64.5955 19.0355C64.5862 19.0276 64.5786 19.0214 64.5669 19.0167L64.379 18.8613L64.3672 18.8767C64.3399 18.8535 64.3166 18.8312 64.285 18.8153L64.1885 18.7354C64.1839 18.7299 64.1786 18.7235 64.1739 18.7186C64.1669 18.6952 64.1545 18.6795 64.1362 18.6643L64.1373 18.6627L63.783 18.3713C63.7792 18.3621 63.7736 18.3541 63.7668 18.3468C63.7631 18.3362 63.7565 18.3261 63.7482 18.3174C63.7424 18.3013 63.7329 18.2808 63.7228 18.2689C63.7206 18.2491 63.7111 18.2299 63.6945 18.216L63.7112 18.2297C63.7105 18.2198 63.7096 18.2109 63.707 18.2012L63.7205 18.1844L63.8114 18.0725C63.8185 18.064 63.8231 18.0548 63.8259 18.0461C63.832 18.0385 63.8364 18.0304 63.8392 18.0214L63.8856 17.9653L63.8593 17.9676C63.8745 17.9661 63.8894 17.9602 63.9023 17.9502C63.908 17.9474 63.9135 17.9453 63.9194 17.9423C63.9334 17.9255 63.9757 17.9252 63.9949 17.9235C64.0004 17.9228 64.0172 17.9277 64.0274 17.9276C64.0423 17.9309 64.0592 17.9341 64.0744 17.9343L64.1474 17.9943L64.1781 17.9569C64.1879 17.9583 64.1978 17.9585 64.2077 17.9566C64.2178 17.9613 64.2292 17.9642 64.2413 17.9647C64.2494 17.9698 64.2639 17.9752 64.273 17.9781C64.2821 17.9854 64.2909 17.9915 64.3021 17.9949C64.3182 18.008 64.3366 18.026 64.3561 18.0326C64.3614 18.0366 64.3668 18.0406 64.3724 18.0438L64.4553 18.1127L64.4735 18.0899C64.48 18.0928 64.4873 18.0952 64.4969 18.0974C64.5112 18.1066 64.5473 18.1193 64.5649 18.1233C64.5759 18.1288 64.5884 18.132 64.6018 18.1323C64.6128 18.1376 64.6259 18.1405 64.6395 18.1405C64.6602 18.1452 64.6661 18.1509 64.6825 18.1645L64.6905 18.1546C64.6979 18.1559 64.7056 18.1566 64.713 18.1564C64.7219 18.1596 64.7311 18.161 64.7409 18.1614C64.7526 18.1675 64.7665 18.1704 64.7807 18.1692C64.7933 18.1736 64.802 18.1775 64.8153 18.1808C64.8277 18.187 64.8417 18.1902 64.8559 18.1895C64.8647 18.1918 64.874 18.1938 64.8822 18.1959C64.8914 18.2032 64.901 18.2088 64.91 18.2165L64.9128 18.2127C64.9209 18.2149 64.9291 18.2163 64.9371 18.2162C64.9458 18.2204 64.9558 18.2235 64.9664 18.2242C64.9751 18.2272 64.9864 18.2323 64.9942 18.234C65.014 18.2388 65.032 18.2505 65.0542 18.2512C65.061 18.2556 65.0698 18.2585 65.0788 18.261C65.1334 18.2719 65.1871 18.2833 65.2388 18.2912C65.9137 18.3934 66.6644 19.0982 67.1486 18.1736C67.1347 18.1098 67.18 17.8762 67.0821 17.8464C66.9392 17.8521 66.7077 17.8888 66.565 17.8947C66.4264 17.8874 66.1261 17.9201 65.9176 17.8669C65.8308 17.8451 65.7543 17.8197 65.702 17.7922C65.7016 17.7867 65.7008 17.7815 65.7007 17.7765C65.7572 17.7062 65.8221 17.6224 65.8962 17.5726C66.2182 17.3586 66.6791 17.3294 67.0292 17.2377C67.0069 17.1283 66.966 16.9851 66.957 16.8386C66.9396 16.5581 66.7544 16.7609 66.6052 16.7268C66.4556 16.6923 66.6581 16.7702 66.607 16.9404C66.5551 17.1115 66.1287 17.133 66.015 17.1636C65.9007 17.1943 65.7971 17.1267 65.6995 17.2238C65.4972 17.4248 65.3058 17.9299 64.9363 17.6964C64.8685 17.6542 64.4505 17.113 64.5207 17.0687C64.5627 16.9676 64.7013 16.7858 64.7399 16.7385C64.8837 16.5643 65.1094 16.2306 65.1761 15.9603C65.2037 15.8485 65.1701 15.743 65.1532 15.6618C65.1428 15.6128 65.1918 15.6001 65.2165 15.5924C65.4292 15.7354 65.6215 16.1238 65.6343 16.3536C65.7754 16.6502 66.1956 15.8319 66.3739 15.6956C66.5187 15.5839 66.6837 15.7264 66.721 15.8099C66.7583 15.8938 66.7215 16.2189 66.6257 16.3351C66.5301 16.4513 66.7691 16.5063 66.7691 16.5063L67.011 16.1906C67.011 16.1906 67.0606 16.0008 66.9297 15.8578C66.84 15.7594 66.7792 15.4177 66.8264 15.274C66.887 15.0853 67.1384 15.3864 67.1869 15.3751C67.3568 15.3909 67.4763 15.4475 67.64 15.5305C67.7585 15.591 67.812 15.6439 67.9169 15.7083C68.1523 15.8519 67.9275 16.3743 68.1995 16.3916C68.8634 16.1868 69.5915 15.9944 70.2546 15.7432L70.3228 15.7172C70.3834 15.707 70.5515 15.6893 70.5756 15.6524C70.5854 15.6493 70.5946 15.6441 70.6024 15.6376C70.616 15.6321 70.6462 15.6143 70.6557 15.6052C70.7249 15.5651 70.7976 15.555 70.8649 15.5017C70.8741 15.4975 70.8911 15.4881 70.899 15.4815C70.9156 15.475 70.9362 15.462 70.9472 15.4483C71.0225 15.3958 71.1772 15.2828 71.1752 15.1911C71.1745 15.1662 71.1846 15.1584 71.1978 15.137C71.2922 14.983 71.2685 15.0858 71.3022 14.9359C71.3105 14.9239 71.3258 14.9063 71.3296 14.892L71.3521 14.8578C71.3564 14.8597 71.3606 14.8608 71.3656 14.8617C71.4844 14.9404 71.4084 14.8641 71.5055 14.9274C71.5112 14.9355 71.5183 14.9431 71.5271 14.9492C71.5316 14.9553 71.5364 14.9611 71.5423 14.9663C71.5635 15.0088 71.7212 15.1417 71.7325 15.1489C71.7357 15.1538 71.739 15.1584 71.7424 15.162C71.7474 15.1773 71.7578 15.1888 71.7692 15.1969C71.8248 15.2399 71.7923 15.2119 71.8276 15.2696C71.8492 15.3054 71.8823 15.3397 71.9114 15.3594C71.9208 15.3679 71.9257 15.3764 71.9374 15.3851C71.9418 15.3935 71.9475 15.4015 71.9542 15.4086C71.957 15.4142 71.9603 15.4198 71.9642 15.4248C71.9678 15.4477 71.9806 15.4643 71.9945 15.4821C71.9986 15.4917 72.0045 15.5017 72.0129 15.5104C72.0177 15.5265 72.027 15.5414 72.0409 15.553C72.0482 15.5681 72.0584 15.5835 72.0711 15.5946C72.0758 15.6011 72.0817 15.607 72.0879 15.6126C72.094 15.6209 72.1013 15.6287 72.1103 15.635C72.1128 15.6384 72.115 15.6412 72.1177 15.6441C72.1197 15.6506 72.1223 15.6562 72.125 15.6618C72.13 15.6853 72.133 15.6963 72.1446 15.717C72.1468 15.7208 72.1492 15.7377 72.1507 15.743C72.1548 15.7633 72.1659 15.7784 72.1704 15.7967C72.1742 15.8152 72.1775 15.836 72.1862 15.8525C72.1919 15.8831 72.2014 15.8717 72.1934 15.8998C72.1904 15.9122 72.1892 15.9247 72.1909 15.9368C72.1886 15.956 72.1954 15.9731 72.1978 15.9918C72.1957 16.0071 72.1943 16.0202 72.198 16.0357C72.1979 16.0399 72.1972 16.0438 72.1972 16.0479C72.1942 16.0591 72.1936 16.0709 72.1953 16.0832C72.1941 16.0922 72.1942 16.1075 72.1947 16.1178C72.1915 16.1288 72.1905 16.1398 72.1919 16.1512C72.1848 16.1709 72.1849 16.1926 72.1919 16.2122C72.1927 16.2243 72.1845 16.238 72.1879 16.26C72.1843 16.2739 72.1847 16.2885 72.1878 16.3016C72.1869 16.31 72.1855 16.3185 72.1856 16.3268C72.1817 16.3415 72.1771 16.3566 72.178 16.3719C72.175 16.381 72.1734 16.3936 72.1731 16.4034L72.1191 16.4856C72.1009 16.4921 72.0897 16.5071 72.0779 16.5248C72.0707 16.5361 72.0603 16.5411 72.0516 16.5532C72.0342 16.5619 72.0112 16.6054 71.9784 16.627C71.9596 16.6366 71.9385 16.663 71.9183 16.6671C71.9037 16.6703 71.8889 16.6728 71.8756 16.6803C71.8708 16.6813 71.8658 16.6823 71.861 16.6843C71.8045 16.6879 71.6774 16.692 71.6266 16.7179C71.6144 16.7172 71.5819 16.7205 71.5705 16.7246C71.5403 16.7223 71.5439 16.72 71.5171 16.7369C71.5067 16.7348 71.4877 16.7374 71.4778 16.7411C71.4635 16.7375 71.4486 16.7373 71.4349 16.7406C71.4233 16.7403 71.4119 16.7411 71.3997 16.741C71.2586 16.7091 71.1196 16.7199 70.9725 16.7383C70.9571 16.7368 70.9369 16.7294 70.9205 16.7304C70.9123 16.7303 70.9037 16.7285 70.8956 16.7282C70.886 16.7247 70.8765 16.7233 70.8674 16.7242L70.7751 16.7215L70.7766 16.7233Z" fill="#004B9D"/>
<path fill-rule="evenodd" clip-rule="evenodd" d="M38.3684 15.5222C38.6045 15.4788 38.797 15.3615 38.9928 15.2458C39.1139 15.1743 39.2414 15.0945 39.3756 15.0684C39.8201 14.9824 40.1227 15.3849 39.9547 15.8243C39.845 16.1111 39.73 16.3957 39.621 16.6827C39.5828 16.7834 39.5552 16.8882 39.5133 17.0213C39.6431 17.0684 39.7518 17.1128 39.8636 17.1474C39.9786 17.183 40.0968 17.2082 40.2131 17.2401C40.5496 17.3324 40.6207 17.3981 40.6281 17.621C40.6364 17.8711 40.4407 18.1447 40.2019 18.2233C39.9279 18.3136 39.6837 18.2629 39.4654 18.0765C39.3421 17.9718 39.218 17.868 39.0943 17.7635C38.8292 18.0735 38.5769 18.3608 38.3333 18.6552C38.1126 18.9216 37.6913 18.9951 37.3961 18.808C37.3776 18.7965 37.3611 18.7818 37.3434 18.7687C36.9667 18.4901 36.9765 18.3941 37.3754 18.148C37.655 17.9758 37.9258 17.7882 38.1911 17.5942C38.2936 17.5192 38.3703 17.4083 38.46 17.312C38.4058 17.1824 38.3524 17.0749 38.3152 16.962C38.2464 16.7526 38.3044 16.6729 38.5211 16.6686C38.639 16.6662 38.7572 16.6694 38.8958 16.6702C38.9565 16.4429 39.0119 16.2356 39.0636 16.0419C38.9053 15.9079 38.7643 15.8956 38.6095 15.969C38.5409 16.0016 38.46 16.0539 38.3956 16.0412C38.0878 15.9813 37.9906 16.1951 37.8426 16.3963C37.3983 16.9993 37.0415 17.6504 36.6992 18.3128C36.554 18.594 36.3809 18.8613 36.2086 19.1273C36.1516 19.2157 36.0623 19.286 35.9799 19.3553C35.8701 19.4472 35.753 19.4387 35.6579 19.3338C35.5335 19.1964 35.4038 19.0599 35.3051 18.9045C35.2154 18.7631 35.2011 18.5979 35.2684 18.4303C35.4126 18.0709 35.6065 17.7377 35.8975 17.4858C36.4214 17.0318 36.8169 16.4893 37.1221 15.8724C37.1944 15.7267 37.2973 15.5962 37.4012 15.4348C37.3386 15.3424 37.2748 15.2438 37.2066 15.1484C37.1555 15.0775 37.0867 15.0169 37.0464 14.9407C36.9233 14.7087 37.0209 14.4998 37.2759 14.4523C37.4265 14.4243 37.5819 14.4238 37.7333 14.399C38.0529 14.3467 38.2646 14.1387 38.3413 13.8277C38.3685 13.7169 38.3574 13.6308 38.2491 13.5792C38.1506 13.5325 38.0939 13.5896 38.0279 13.6608C37.6622 14.0551 37.3731 14.0897 36.9387 13.8006C37.0095 13.6311 37.0806 13.461 37.1493 13.2962C36.9108 13.1219 36.9058 13.1167 36.7379 13.2856C36.6195 13.4047 36.5027 13.4766 36.3151 13.3712C36.3332 13.2544 36.3558 13.1394 36.3676 13.0231C36.3793 12.9066 36.3803 12.7889 36.3856 12.6776C36.2167 12.6265 36.1595 12.7357 36.0939 12.8164C36.0459 12.875 36.0031 12.9434 35.9782 13.0144C35.6425 13.9755 35.0611 14.8093 34.592 15.7012C34.2555 16.3413 33.9239 16.9842 33.5989 17.6301C33.343 18.1388 33.1123 18.6599 32.8488 19.1641C32.6259 19.5906 32.3727 20.0011 32.1306 20.4172C32.0979 20.4736 32.0547 20.5244 32.0111 20.573C31.7223 20.8935 31.5899 20.8683 31.4198 20.4643C31.3943 20.4041 31.3664 20.3412 31.3248 20.2923C31.1022 20.03 31.1335 19.7461 31.2492 19.4565C31.363 19.1718 31.5009 18.8955 31.5952 18.6047C31.6436 18.4551 31.7791 18.5284 31.8447 18.4499C32.0129 18.2481 32.2159 18.0682 32.3501 17.8465C33.5099 15.9331 34.657 14.012 35.8098 12.0946C35.8896 11.9617 35.9508 11.8383 35.9407 11.6687C35.9272 11.4374 36.1067 11.2798 36.2753 11.1731C36.4046 11.0911 36.4857 10.9939 36.563 10.8758C36.7913 10.528 37.025 10.1837 37.2507 9.83447C37.2938 9.76809 37.3115 9.68529 37.3693 9.53778C37.1486 9.62456 36.9983 9.6792 36.8515 9.74239C36.4198 9.92817 35.9886 10.1156 35.5591 10.3067C35.4494 10.3558 35.3472 10.4213 35.241 10.4788C34.7865 10.7248 34.316 10.8199 33.8202 10.6127C33.5154 10.4853 33.4223 10.3394 33.4394 10.0575C34.0317 9.90749 34.6327 9.7915 35.2083 9.59894C35.783 9.40701 36.3633 9.20861 36.9365 8.86337C36.5482 8.61325 36.2062 8.38672 35.8573 8.17066C35.6855 8.06417 35.5773 7.9266 35.5723 7.722C35.5686 7.55617 35.6584 7.47213 35.8199 7.51559C36.2066 7.61936 36.5983 7.61451 36.9933 7.62721C37.2267 7.63485 37.4722 7.70545 37.6854 7.80505C37.9882 7.9465 38.0388 8.12717 37.9229 8.49735C38.0341 8.46056 38.122 8.44127 38.201 8.40343C38.4672 8.27554 38.7241 8.12664 38.9958 8.01241C39.4219 7.8333 39.5706 7.97069 39.6924 8.28787C39.7159 8.34931 39.7478 8.40765 39.7698 8.46953C39.887 8.79966 39.7546 9.06369 39.4201 9.15872C39.1059 9.24789 38.7875 9.32269 38.4763 9.42045C38.368 9.45461 38.245 9.51614 38.1806 9.6036C37.7115 10.2374 37.255 10.8808 36.7963 11.5224C36.7713 11.5572 36.7595 11.6014 36.738 11.6495C36.7824 11.7098 36.8208 11.7777 36.8739 11.8306C37.0297 11.9854 37.1097 11.9734 37.2324 11.7932C37.3124 11.6757 37.3909 11.5556 37.4828 11.4474C37.834 11.033 38.1356 10.5964 38.1551 10.0268C38.3604 9.89834 38.5508 9.96602 38.7196 10.0665C38.784 10.105 38.8382 10.2342 38.8272 10.3121C38.7956 10.5359 38.728 10.7547 38.6729 10.9828C38.8945 11.1412 38.9226 11.15 39.0987 10.9784C39.2313 10.8497 39.3619 10.7086 39.4517 10.5495C39.5261 10.4173 39.6175 10.3902 39.7434 10.3981C39.9782 10.4129 40.1768 10.5862 40.2664 10.8375C40.351 11.0743 40.2556 11.2408 40.0718 11.3773C39.8957 11.5077 39.7305 11.6578 39.5399 11.7619C39.1568 11.9719 38.921 12.3108 38.6914 12.6597C38.6684 12.6945 38.6614 12.7401 38.6443 12.7883C38.7757 12.9161 38.8968 12.9068 39.0102 12.7791C39.1122 12.6644 39.197 12.5322 39.3088 12.4289C39.4106 12.3349 39.5294 12.2433 39.6573 12.198C39.8533 12.1288 39.9805 12.2205 40.0607 12.4187C40.1085 12.5368 40.1695 12.6526 40.243 12.7564C40.3711 12.9367 40.3692 13.0893 40.195 13.2459C40.0647 13.3627 39.9157 13.4584 39.7788 13.568C39.5657 13.7385 39.5546 13.7813 39.6364 14.0413C39.7194 14.305 39.6797 14.4195 39.4359 14.5563C39.2259 14.6742 39.0061 14.7752 38.7955 14.8923C38.5476 15.03 38.4088 15.2372 38.3684 15.5222ZM37.9112 12.6143C38.0409 12.3836 38.1636 12.1896 38.2583 11.9827C38.2855 11.9226 38.2573 11.7944 38.2085 11.7553C38.1668 11.7221 38.0421 11.7488 37.9831 11.7901C37.7676 11.9406 37.6799 12.1795 37.5648 12.4243C37.676 12.4855 37.7701 12.5369 37.9112 12.6143ZM36.5791 14.5348C36.5346 14.7033 36.5049 14.8158 36.4859 14.8876C36.5663 15.096 36.7026 15.2803 36.6847 15.4477C36.6645 15.6348 36.5314 15.8312 36.3985 15.9795C36.1521 16.2547 35.8229 16.3101 35.3299 15.9161C35.4767 15.2761 35.8368 14.8651 36.5791 14.5348Z" fill="#004B9D"/>
<path fill-rule="evenodd" clip-rule="evenodd" d="M20.1231 12.1075C20.1559 12.1054 20.1438 12.0754 20.2861 12.0988C20.4009 12.154 20.4062 12.1457 20.5227 12.1768C20.6391 12.208 20.8517 12.3648 21.052 12.5037C21.2524 12.6425 21.5329 13.0027 21.6103 13.313C21.6876 13.6231 21.6668 14.0081 21.5975 14.2788C21.5806 14.3452 21.4787 14.5944 21.4051 14.911C21.3201 15.277 21.2558 15.7407 21.1297 16.2349C21.0683 16.4754 20.9603 16.7605 20.9039 16.9847C20.8413 17.2331 20.8099 17.4822 20.7597 17.6708C20.7002 17.8938 20.6299 18.0645 20.6042 18.1425C20.4626 18.5748 20.2826 19.1637 20.1692 19.2418C20.1692 19.2418 20.2117 18.47 20.2384 17.8893C20.25 17.6381 20.2586 17.4226 20.2596 17.321C20.2509 17.0259 20.3166 16.7156 20.3211 16.4249C20.3332 15.6351 20.3126 14.8678 20.3057 14.018C20.3162 13.7048 20.2743 13.4259 20.2139 13.1274C20.1531 12.8266 19.9811 12.2183 20.1231 12.1075ZM24.5225 21.1804L24.8324 21.5055L24.8568 21.5207C24.9724 21.7012 25.0809 21.9209 25.1496 22.0852C25.1865 22.1735 25.24 22.2299 25.2752 22.2692C25.3246 22.3244 25.3883 22.2951 25.5274 22.2427C25.6026 22.2143 25.6699 22.2482 25.7367 22.239C25.8247 22.2267 25.8855 22.2725 25.9185 22.2993C25.9575 22.331 26.0705 22.421 26.1043 22.5155C26.1457 22.6312 26.1481 22.7596 26.1622 22.8352C26.1878 22.9727 26.181 23.0692 26.181 23.0692C26.1771 23.2524 26.1771 23.3422 26.2059 23.5066C26.2452 23.7297 26.24 23.8958 26.24 23.8958C26.3287 23.9288 26.3796 23.8704 26.4422 23.8097C26.607 23.65 26.7386 23.3202 26.7386 23.3202C26.8305 23.0178 26.9574 23.0047 27.0458 22.9407C27.1319 22.8784 27.4647 22.9389 27.6417 23.0831C27.8337 23.2395 27.8347 23.5081 27.7692 23.6007C27.5924 23.8512 27.4233 24.0357 27.2426 24.2855C27.1115 24.4668 26.9687 24.7129 26.8392 24.897C26.828 24.9379 26.6208 25.1055 26.5713 25.3528C26.5281 25.569 26.1742 25.741 26.0662 25.7178C25.8644 25.6746 25.3396 25.5396 25.2669 25.3231C25.2072 25.1455 25.1212 24.8452 25.0995 24.7971C25.0727 24.738 25.0926 24.2267 24.956 23.9356C24.8655 23.7427 24.792 23.6279 24.7488 23.501C24.7198 23.416 24.6906 23.3953 24.6246 23.3751C24.6246 23.3751 24.5051 23.3823 24.368 23.393C24.2815 23.3997 24.1826 23.4835 24.0914 23.4774C24.0334 23.4735 23.8858 23.4774 23.8409 23.4625C23.7839 23.4434 23.7637 23.379 23.8239 23.2746C23.842 23.2432 23.8555 23.1488 23.8871 23.1117C23.9148 23.0793 23.95 23.0415 23.9714 23.016C23.9858 22.999 24.0238 22.9616 24.0347 22.9502C24.1748 22.8044 24.3734 22.7072 24.3734 22.7072L24.3579 22.6652C24.3324 22.6089 24.32 22.5702 24.2589 22.5075C24.2118 22.4593 24.1079 22.3821 24.0232 22.2831C23.9539 22.2021 23.7332 21.8044 23.6172 21.5448L23.4589 21.3156L23.4571 21.3119L23.3875 21.394C23.3325 21.4913 23.3333 21.6431 23.2333 21.7191C23.247 21.739 23.1089 21.9047 23.14 21.9499L23.11 22.057L23.0949 22.0674C23.12 22.1181 23.0862 22.1429 23.0961 22.1928C23.063 22.2157 22.8283 23.0479 22.7964 23.0016C22.794 23.0144 22.7923 23.0246 22.7937 23.0362C22.6938 23.1202 22.5985 23.1371 22.473 23.1703C22.4464 23.1318 22.3434 23.199 22.2996 23.2161L22.2263 23.1786L22.2226 23.1812C21.9392 22.9857 21.8702 22.6683 21.9002 22.358C21.9073 22.353 21.9455 22.1065 21.9378 22.0793C21.9599 22.0119 21.8864 21.9926 21.9252 21.8352L21.9247 21.8343C21.9529 21.7602 21.9774 21.6409 21.9532 21.5633L21.9514 21.5075C21.976 21.4279 21.9818 21.3579 21.9483 21.257C21.9551 21.2251 21.9489 21.1986 21.9718 21.1712C21.9657 21.1562 22.0158 20.9301 22.0222 20.8836C22.0316 20.802 22.057 20.677 22.0746 20.5948C22.0999 20.5774 22.1224 20.3481 22.1281 20.3053C22.1311 20.3031 22.1354 19.8453 22.1376 19.7931L22.1402 19.7692L22.177 19.6396C22.1435 19.5862 22.2271 19.3465 22.2243 19.3425C22.2306 19.3077 22.2667 19.0382 22.2663 19.0377L22.2849 18.9333C22.2689 18.9012 22.2729 18.8705 22.2568 18.8384C22.2416 18.8079 22.2062 18.7759 22.1909 18.7454L22.1054 18.8044C22.1335 18.8451 22.0371 18.9778 21.9935 19.0079C21.9982 19.0147 21.8256 19.3766 21.7697 19.4151C21.7833 19.4349 21.6654 19.7399 21.6313 19.7634C21.6418 19.7784 21.4004 20.1601 21.4389 20.216C21.4255 20.275 21.28 20.5344 21.284 20.5402C21.2291 20.5855 21.1265 20.8606 21.1497 20.8941C21.1346 20.927 21.1331 20.9917 21.1044 21.0115L21.1079 21.0166C21.0835 21.0626 20.9901 21.2116 21.0104 21.241C20.9922 21.2718 20.9979 21.3378 20.9661 21.3597L20.9679 21.3624C20.929 21.4886 20.8564 21.5667 20.8374 21.7013L20.8277 21.7079L20.8338 21.7168L20.8033 21.8013C20.7847 21.9022 20.7219 22.0605 20.687 22.1841L20.6792 22.2242C20.6648 22.273 20.6069 22.4852 20.6258 22.5127C20.6073 22.5439 20.6178 22.611 20.5837 22.6345L20.5869 22.6391C20.5444 22.8712 20.3203 23.2509 20.2912 23.426C20.2676 23.5553 19.8656 23.8653 19.7411 23.8832C19.7355 23.8751 19.542 23.9115 19.5135 23.9192C19.5088 23.9125 19.2423 24.0026 19.1971 24.0093C19.1953 24.0068 18.6365 24.1751 18.5607 24.1844C18.5499 24.1688 18.3457 24.2538 18.3182 24.1258L18.2547 23.8315C18.2954 23.777 18.293 23.4569 18.3484 23.4187L18.345 23.4137C18.3579 23.3615 18.4753 23.0538 18.4715 23.0483C18.4877 23.0153 18.5973 22.8649 18.5897 22.8538L18.6271 22.8084C18.794 22.6565 20.086 20.45 20.0859 20.4499C20.2243 20.276 20.3294 19.9035 20.5075 19.7806L20.5033 19.7746C20.5286 19.7199 20.8122 19.3078 20.8099 19.3045C20.8385 19.237 21.1165 18.8344 21.1142 18.8311C21.1447 18.7918 21.3228 18.5845 21.311 18.5674C21.4345 18.4822 21.4454 18.2489 21.5474 18.1785L21.5439 18.1736C21.5758 18.1111 21.5972 18.0178 21.6592 17.975L21.6557 17.9698C21.6823 17.9313 21.7093 17.8785 21.6796 17.8345L21.6857 17.8303L21.322 17.3033C21.3395 17.2695 21.4643 16.9609 21.4618 16.9572C21.4759 16.9071 21.9032 16.1813 21.9237 16.1672C21.8688 16.1572 22.0104 16.1318 22.0495 16.0858L22.1339 16.1317C22.1485 16.1659 22.186 16.1777 22.2064 16.2073C22.226 16.1938 22.2912 16.3007 22.305 16.3187L22.3093 16.2952C22.3042 16.323 22.5232 16.6664 22.5609 16.721L22.6253 16.6315C22.717 16.6043 23.2139 16.1616 23.1792 16.1113C23.3884 15.9669 23.341 16.0001 23.5529 15.9743L23.6751 16.0591C23.975 16.2202 23.712 16.5178 23.7403 16.5587C23.7175 16.6266 23.7125 16.7915 23.6692 16.8214C23.6985 16.8638 23.6106 17.2409 23.5899 17.2552L23.5978 17.2667L23.3454 17.7195L23.3444 17.7201C23.3525 17.7319 23.2987 18.1258 23.2651 18.154C23.2745 18.1674 23.3524 18.7566 23.4873 18.952C23.4849 18.9537 23.5885 19.1231 23.5972 19.1374L23.7486 18.8081C23.8699 18.7245 23.8649 18.373 23.9908 18.2862C23.9658 18.2498 24.3575 17.9626 24.3414 17.9597C24.6242 17.8478 25.0602 17.7913 25.2612 18.0827C25.2677 18.0459 25.3962 18.3197 25.311 18.3785C25.3338 18.4115 25.3082 18.4505 25.3039 18.5098L25.3052 19.1745C25.3001 19.178 25.3054 19.2844 25.3126 19.2957C25.287 19.3134 25.2663 19.662 25.2641 19.7297L25.2601 19.8589C25.2363 19.8752 25.2562 20.1601 25.2549 20.2309C25.2017 20.3601 25.1967 20.4351 25.1403 20.5355C25.0894 20.6262 24.9821 20.7117 24.8954 20.823C24.7709 21.0364 24.7121 21.0509 24.5225 21.1804ZM24.5367 19.4015C24.5131 19.6253 24.5623 19.7143 24.4961 19.8914C24.5308 19.9417 24.4071 20.2025 24.372 20.2603L24.3705 20.2677L24.2071 20.3871L23.8979 19.939C23.9152 19.9269 23.9074 19.8618 23.9712 19.7668L23.9732 19.7737L24.1301 19.361L24.2294 19.2006L24.2285 19.2023L24.3004 19.0591L24.3858 19L24.4967 19.0516C24.4859 19.1559 24.522 19.2757 24.5367 19.4015ZM22.493 21.7178C22.4117 21.5503 22.4663 21.1211 22.4583 20.9619C22.4541 20.8441 22.5262 20.6026 22.5376 20.5281L22.539 20.5271C22.5495 20.462 22.6314 20.1153 22.6169 20.0943L22.6537 20.0481L22.7024 20.0352L22.7615 20.109L22.9387 20.3777C22.986 20.4867 23.0929 20.5746 22.9709 20.7826C22.9531 20.8282 22.9633 20.8979 22.892 21.0417C22.8888 21.044 22.8343 21.1442 22.7811 21.268C22.7465 21.3482 22.7229 21.437 22.6786 21.5202C22.6352 21.6019 22.5892 21.6761 22.5448 21.7248C22.5142 21.7439 22.5061 21.7447 22.493 21.7178Z" fill="#004B9D"/>
<path fill-rule="evenodd" clip-rule="evenodd" d="M29.2506 38.8475V38.2455C29.5927 38.2405 29.8247 38.1953 29.9468 38.1112C30.0689 38.0272 30.13 37.873 30.13 37.6497V35.0332C30.13 34.7923 30.0787 34.6356 29.9772 34.5628C29.8759 34.4888 29.6341 34.4487 29.2506 34.4411V33.8767C29.5975 33.8717 29.9047 33.8453 30.174 33.7976C30.4432 33.75 30.682 33.5014 30.8921 33.406H31.5617V37.6497C31.5617 37.8727 31.6251 38.0275 31.7509 38.1112C31.8777 38.1954 32.1198 38.2405 32.4777 38.2455V38.8475H29.2506Z" fill="#004B9D"/>
<path fill-rule="evenodd" clip-rule="evenodd" d="M39.8869 36.5713C39.6517 36.7167 39.4109 36.8242 39.1656 36.8925C38.9218 36.962 38.6605 36.9962 38.3817 36.9962C37.7622 36.9962 37.2556 36.8381 36.8637 36.5232C36.4704 36.2083 36.2745 35.8012 36.2745 35.3029C36.2745 34.7616 36.5052 34.3228 36.9668 33.9877C37.4284 33.6513 38.0335 33.4831 38.781 33.4831C39.6053 33.4831 40.2409 33.7057 40.688 34.1521C41.1364 34.5972 41.36 35.2321 41.36 36.054C41.36 36.938 41.1132 37.6247 40.6183 38.1142C40.1234 38.6035 39.4311 38.8476 38.5386 38.8476C37.9595 38.8476 37.4849 38.749 37.112 38.553C36.739 38.3569 36.5531 38.1179 36.5531 37.8359C36.5531 37.6601 36.6141 37.521 36.7361 37.4173C36.858 37.3136 37.0204 37.2618 37.2252 37.2618C37.5445 37.2618 37.7708 37.4552 37.9 37.8435C37.9174 37.8928 37.9305 37.9295 37.9392 37.951C37.9725 38.0572 38.0277 38.1293 38.1017 38.1685C38.1771 38.2064 38.3034 38.2254 38.4791 38.2254C38.9159 38.2254 39.2599 38.0787 39.5095 37.7853C39.7606 37.4919 39.8869 37.0873 39.8869 36.5713ZM39.81 35.2524C39.81 34.9185 39.7243 34.6605 39.5531 34.4784C39.3818 34.295 39.1394 34.204 38.8274 34.204C38.5009 34.204 38.2482 34.2938 38.0684 34.4746C37.8884 34.6542 37.7984 34.9097 37.7984 35.2371C37.7984 35.5558 37.8855 35.8074 38.0581 35.9921C38.2309 36.1755 38.4661 36.2678 38.7634 36.2678C39.1075 36.2678 39.3673 36.1818 39.5444 36.0086C39.7214 35.8353 39.81 35.5836 39.81 35.2524Z" fill="#004B9D"/>
<path fill-rule="evenodd" clip-rule="evenodd" d="M57.9597 36.5713C57.7246 36.7167 57.4837 36.8242 57.2385 36.8925C56.9946 36.962 56.7333 36.9962 56.4547 36.9962C55.835 36.9962 55.3285 36.8381 54.9366 36.5232C54.5433 36.2083 54.3475 35.8012 54.3475 35.3029C54.3475 34.7616 54.5781 34.3228 55.0398 33.9877C55.5012 33.6513 56.1064 33.4831 56.8539 33.4831C57.6782 33.4831 58.3139 33.7057 58.7608 34.1521C59.2094 34.5972 59.4329 35.2321 59.4329 36.054C59.4329 36.938 59.1861 37.6247 58.6912 38.1142C58.1963 38.6035 57.504 38.8476 56.6114 38.8476C56.0324 38.8476 55.5578 38.749 55.1849 38.553C54.8119 38.3569 54.626 38.1179 54.626 37.8359C54.626 37.6601 54.687 37.521 54.8089 37.4173C54.9309 37.3136 55.0933 37.2618 55.298 37.2618C55.6173 37.2618 55.8437 37.4552 55.9729 37.8435C55.9903 37.8928 56.0034 37.9295 56.0121 37.951C56.0454 38.0572 56.1005 38.1293 56.1746 38.1685C56.2501 38.2064 56.3763 38.2254 56.5519 38.2254C56.9888 38.2254 57.3328 38.0787 57.5824 37.7853C57.8335 37.4919 57.9597 37.0873 57.9597 36.5713ZM57.8829 35.2524C57.8829 34.9185 57.7973 34.6605 57.6259 34.4784C57.4547 34.295 57.2123 34.204 56.9003 34.204C56.5738 34.204 56.3212 34.2938 56.1413 34.4746C55.9613 34.6542 55.8712 34.9097 55.8712 35.2371C55.8712 35.5558 55.9584 35.8074 56.1311 35.9921C56.3038 36.1755 56.5389 36.2678 56.8364 36.2678C57.1804 36.2678 57.4402 36.1818 57.6173 36.0086C57.7942 35.8353 57.8829 35.5836 57.8829 35.2524Z" fill="#004B9D"/>
<path fill-rule="evenodd" clip-rule="evenodd" d="M45.1575 38.8476C45.5825 37.1106 46.1838 36.9263 47.6958 36.3242C48.4413 36.0272 48.6707 35.4582 48.6707 35.0049C48.6707 34.7307 48.5023 34.519 48.3394 34.3688C48.1765 34.2185 47.9477 34.1427 47.6526 34.1427C47.4207 34.1427 47.2197 34.1912 47.051 34.2865C46.8822 34.3818 46.7985 34.4888 46.7985 34.6052C46.7985 34.6235 46.8337 34.6927 46.9072 34.8142C46.9804 34.9356 47.0171 35.0584 47.0171 35.1838C47.0171 35.3562 46.9497 35.4961 46.8131 35.6006C46.6767 35.7051 46.4961 35.7572 46.2687 35.7572C46.0486 35.7572 45.874 35.6906 45.7463 35.5588C45.6187 35.4256 45.5556 35.2452 45.5556 35.0193C45.5556 33.9073 47.0055 33.4058 47.8823 33.4058C48.6016 33.4058 49.2681 33.5857 49.6983 33.88C50.5374 34.4544 50.5632 35.9245 49.6327 36.4492C48.8749 36.8765 46.7217 36.869 46.6909 37.6053C46.6836 37.7804 46.7447 37.9968 47.174 37.98C47.5534 37.9651 49.1959 37.9556 49.4746 37.7411C49.6485 37.6074 49.7681 37.3799 49.9031 37.0925L50.4343 37.0935L50.5507 38.8476H45.1575Z" fill="#004B9D"/>
<path fill-rule="evenodd" clip-rule="evenodd" d="M72.7179 31.1825C72.7579 31.2661 72.8021 31.3414 72.8483 31.4063C72.8961 31.472 72.95 31.5314 73.0111 31.5828C73.1059 31.6672 73.2131 31.735 73.3337 31.7841C73.4531 31.8352 73.5831 31.8798 73.7211 31.9189C74.0081 31.9974 74.3178 32.0766 74.6504 32.1578C74.9831 32.2388 75.3471 32.3258 75.7452 32.4179C75.9986 32.4803 76.187 32.5076 76.3084 32.4996C76.4305 32.4927 76.6283 32.4418 76.9008 32.3489L77.6385 32.0972C77.7261 32.0672 77.7968 32.0251 77.8519 31.9701C77.9066 31.9139 77.939 31.8334 77.9485 31.7272C77.9519 31.6804 77.9443 31.5856 77.926 31.4431C77.9088 31.3002 77.8915 31.1978 77.8747 31.1326L78.1598 31.0353L79.1507 33.9079L78.8657 34.0053C78.8375 33.9398 78.7936 33.845 78.7362 33.7229C78.6773 33.6011 78.6293 33.5188 78.5918 33.4746C78.522 33.3983 78.4498 33.3549 78.3731 33.3435C78.297 33.3333 78.2127 33.3441 78.1202 33.3757L77.2036 33.6884C77.1236 33.7157 77.0527 33.7413 76.9923 33.7647C76.9319 33.7881 76.8836 33.8142 76.8472 33.8421C76.8069 33.8752 76.7571 33.9254 76.7 33.9909C76.6416 34.0567 76.5662 34.142 76.4752 34.2469C76.21 34.5473 75.9596 34.8342 75.7236 35.1107C75.4892 35.3868 75.2689 35.6481 75.0646 35.8944C74.9583 36.0238 74.8795 36.1439 74.8257 36.2553C74.7737 36.3676 74.7365 36.4748 74.7157 36.5806C74.701 36.6593 74.7009 36.7483 74.713 36.8483C74.7265 36.948 74.743 37.0368 74.7644 37.1145L74.4792 37.2117L73.4572 34.2495L73.7425 34.1521C73.8439 34.4221 73.9256 34.5984 73.9883 34.6827C74.0526 34.7678 74.1115 34.8005 74.1652 34.7821C74.1915 34.7732 74.2387 34.7362 74.308 34.6736C74.376 34.6115 74.4792 34.5054 74.6171 34.3584C74.7471 34.2208 74.9231 34.0259 75.1471 33.7716C75.371 33.5173 75.6313 33.2144 75.9275 32.8617C75.0331 32.6512 74.4098 32.5096 74.0575 32.4364C73.7067 32.3629 73.4981 32.3382 73.4319 32.3608C73.348 32.3895 73.3031 32.4618 73.2929 32.5779C73.2844 32.6947 73.3135 32.8682 73.3794 33.1001L73.0943 33.1974L72.4327 31.2798L72.7179 31.1825ZM53.1951 74.2086C53.1227 74.2307 53.0196 74.2682 52.8861 74.3222C52.751 74.3753 52.6434 74.4444 52.5626 74.5271C52.4777 74.6093 52.4312 74.7361 52.4244 74.9076C52.4163 75.0779 52.4452 75.3289 52.5093 75.6546L52.9007 77.6482C53.0158 78.2346 52.9084 78.7451 52.5777 79.1805C52.2472 79.6157 51.7512 79.8986 51.0924 80.0264C50.3234 80.1755 49.6936 80.1187 49.2056 79.8559C48.7163 79.5934 48.4114 79.1529 48.2904 78.5362L47.7524 75.7955C47.7353 75.7077 47.7034 75.6348 47.6573 75.5783C47.6101 75.5231 47.5341 75.4789 47.4282 75.4473C47.3554 75.4265 47.2699 75.4164 47.1699 75.4144C47.0699 75.4137 46.9894 75.4146 46.9269 75.4188L46.8691 75.1246L49.6872 74.5767L49.745 74.8712C49.6642 74.8922 49.5839 74.9174 49.5027 74.9477C49.4214 74.9779 49.341 75.0151 49.2592 75.0593C49.1693 75.1089 49.1144 75.1717 49.0943 75.248C49.0758 75.3253 49.0746 75.4079 49.0919 75.4963L49.6229 78.2008C49.7271 78.7318 49.9213 79.0967 50.2049 79.292C50.4896 79.4873 50.8563 79.5416 51.3061 79.4543C51.7483 79.3687 52.069 79.1681 52.2681 78.8522C52.4673 78.5363 52.516 78.1182 52.4143 77.5994L52.0575 75.7827C51.9943 75.4601 51.9245 75.2228 51.8492 75.0717C51.7741 74.9205 51.6824 74.8187 51.5776 74.7654C51.5009 74.724 51.3768 74.6959 51.2042 74.6812C51.0318 74.6679 50.9124 74.6629 50.8442 74.6654L50.7849 74.3635L53.1358 73.9066L53.1951 74.2086ZM60.1284 71.157C60.0657 71.1946 59.9783 71.2508 59.866 71.3257C59.7532 71.3996 59.664 71.4957 59.5994 71.6138C59.5425 71.7169 59.5312 71.8524 59.5657 72.0235C59.6007 72.1927 59.6872 72.4256 59.8254 72.7224L61.4778 76.272L60.8431 76.5647L55.9712 74.1527L57.055 76.4809C57.1892 76.7693 57.3108 76.9802 57.4191 77.1129C57.5286 77.2449 57.6426 77.3271 57.7613 77.3564C57.8488 77.3784 57.9707 77.3773 58.1274 77.3543C58.2838 77.3301 58.4062 77.3054 58.4945 77.2822L58.6212 77.554L56.469 78.5462L56.3423 78.2742C56.4302 78.225 56.5268 78.1602 56.6328 78.078C56.7382 77.9976 56.8183 77.91 56.8713 77.8173C56.9309 77.7074 56.946 77.5773 56.917 77.424C56.8873 77.2724 56.7974 77.0358 56.647 76.7125L55.552 74.3603C55.4977 74.2434 55.4279 74.1407 55.3437 74.0537C55.2596 73.9666 55.1614 73.903 55.0502 73.8644C54.9315 73.8219 54.8102 73.8025 54.6824 73.8064C54.5551 73.8087 54.4185 73.8281 54.2724 73.8652L54.1458 73.593L56.027 72.726L60.2946 74.8385L59.4178 72.9551C59.2786 72.6557 59.1543 72.442 59.0469 72.3147C58.9391 72.1861 58.8251 72.107 58.7053 72.0782C58.6113 72.0549 58.4895 72.056 58.3367 72.0786C58.1859 72.1018 58.0656 72.1253 57.9762 72.1491L57.8528 71.8843L60.0051 70.8922L60.1284 71.157ZM66.3934 73.1503L63.889 74.8613L63.7185 74.6143C63.7731 74.5703 63.8527 74.5065 63.9577 74.4219C64.0636 74.3384 64.131 74.2733 64.1614 74.2269C64.2183 74.142 64.2425 74.0631 64.236 73.991C64.2293 73.9207 64.1968 73.8438 64.1416 73.7637L61.9358 70.5691C61.8858 70.4966 61.8274 70.4422 61.7626 70.4068C61.6973 70.3701 61.6121 70.3628 61.5083 70.3843C61.4432 70.3969 61.3531 70.4266 61.2378 70.4735C61.1229 70.5185 61.0263 70.5622 60.9484 70.6026L60.7778 70.3555L63.2823 68.6445L63.4528 68.8916C63.3942 68.9412 63.3205 69.0044 63.2329 69.0819C63.1464 69.1583 63.0768 69.2298 63.0257 69.2952C62.9623 69.3799 62.936 69.4601 62.9491 69.5372C62.9622 69.6142 62.9938 69.6902 63.0446 69.7639L65.2488 72.9562C65.3011 73.0319 65.3603 73.0873 65.4261 73.1221C65.493 73.1562 65.5781 73.1635 65.6819 73.142C65.7389 73.1317 65.8258 73.0995 65.9403 73.0467C66.0564 72.9945 66.15 72.9465 66.2229 72.9032L66.3934 73.1503ZM68.7245 63.8219C68.6697 63.8867 68.6217 63.9541 68.5837 64.0245C68.5449 64.0957 68.5134 64.1765 68.4884 64.2693C68.4547 64.3928 68.4419 64.5013 68.4506 64.5963C68.4592 64.6911 68.4883 64.8048 68.5367 64.938C68.6046 65.1189 68.7073 65.3819 68.8441 65.7259C68.9817 66.0689 69.1379 66.4606 69.3122 66.8988C69.4701 67.2922 69.6445 67.7211 69.8355 68.1874C70.0273 68.6526 70.2111 69.0983 70.3865 69.5244L69.8318 70.068C68.953 69.6927 68.0593 69.3116 67.151 68.9249C66.2425 68.5383 65.6097 68.2724 65.2509 68.1258C65.1174 68.0755 65.0072 68.0469 64.9214 68.0387C64.8363 68.0316 64.725 68.0448 64.5902 68.0791C64.4927 68.1064 64.414 68.1355 64.3531 68.1695C64.2911 68.2025 64.216 68.2521 64.1258 68.3186L63.9142 68.105L66.0327 66.0284L66.2388 66.2362C66.0653 66.4545 65.9566 66.6108 65.912 66.7062C65.8682 66.8006 65.8659 66.8695 65.9056 66.9097C65.9259 66.9303 65.9512 66.9481 65.9792 66.9651C66.0081 66.9812 66.0491 67.0019 66.0994 67.0283C66.3181 67.1312 66.6853 67.29 67.2016 67.5038C67.7179 67.7176 68.4996 68.0495 69.5443 68.5004C69.2779 67.8626 69.0509 67.3264 68.8627 66.8909C68.6742 66.4554 68.508 66.0702 68.3617 65.7374C68.2918 65.575 68.2219 65.4277 68.1508 65.296C68.0809 65.1653 68.0197 65.0738 67.9687 65.0223C67.9114 64.9644 67.8197 64.9561 67.696 64.9999C67.5713 65.0446 67.3853 65.1697 67.1369 65.378L66.9199 65.1588L68.5073 63.6029L68.7245 63.8219ZM72.5538 59.7024L72.3961 59.9579C72.1787 59.9134 71.9302 59.9116 71.6516 59.9561C71.3725 59.999 71.1701 60.0884 71.0423 60.2202C70.9868 60.2775 70.92 60.3631 70.8448 60.4777C70.7694 60.5924 70.7082 60.6892 70.6612 60.7653L70.2442 61.4414L72.056 62.5458L72.352 62.0659C72.4266 61.9447 72.4798 61.8261 72.5124 61.7102C72.544 61.5937 72.5441 61.4704 72.5127 61.3401C72.4931 61.2587 72.4347 61.1523 72.3392 61.0231C72.2419 60.8944 72.1511 60.7927 72.0661 60.7194L72.2238 60.4638L74.1775 61.6547L74.0199 61.9102C73.9192 61.8674 73.7824 61.8303 73.6102 61.7978C73.4373 61.7664 73.3087 61.759 73.2271 61.7756C73.1028 61.7985 72.9955 61.8519 72.9054 61.9327C72.8141 62.0128 72.7298 62.1171 72.6494 62.2472L72.3535 62.7269L73.7056 63.5512C73.8475 63.6378 73.9653 63.6956 74.0607 63.7244C74.1565 63.7551 74.2439 63.7544 74.3231 63.724C74.3985 63.6944 74.473 63.6365 74.5441 63.5487C74.6166 63.4617 74.7033 63.3358 74.8051 63.171C74.8522 63.0946 74.9077 63.0021 74.9718 62.8931C75.0358 62.7841 75.0872 62.6857 75.1257 62.5982C75.1723 62.5 75.2086 62.4033 75.2359 62.309C75.2635 62.2163 75.2675 62.137 75.2502 62.0723C75.2068 61.901 75.1145 61.6811 74.9735 61.4148C74.833 61.1471 74.7207 60.9599 74.6358 60.8511L74.7852 60.609L76.1907 61.5876L73.4909 65.9657L73.2341 65.809C73.2676 65.7447 73.3098 65.6562 73.3631 65.5422C73.4145 65.4285 73.4443 65.3448 73.454 65.2891C73.4701 65.1848 73.4608 65.102 73.4248 65.0398C73.3879 64.9788 73.3282 64.9223 73.2448 64.8717L69.939 62.8566C69.859 62.8077 69.7861 62.7803 69.7196 62.7722C69.6526 62.7652 69.5705 62.7954 69.472 62.8619C69.4098 62.9026 69.3363 62.9688 69.2503 63.0583C69.1652 63.1485 69.1022 63.218 69.0629 63.2666L68.806 63.1099L71.3572 58.9729L72.5538 59.7024ZM74.7226 54.7841C74.3803 54.6513 74.0927 54.6498 73.8601 54.7796C73.6264 54.909 73.4401 55.1515 73.3015 55.5043L73.1894 55.7896L75.3391 56.6242L75.4469 56.35C75.5861 55.996 75.601 55.6869 75.4917 55.4199C75.3822 55.1531 75.1265 54.941 74.7226 54.7841ZM79.4883 53.8223L78.721 55.7746C78.07 55.9114 77.5465 56.03 77.1518 56.1352C76.7565 56.2384 76.2926 56.379 75.7583 56.5539L75.6789 56.7562L77.2315 57.3588C77.3177 57.3924 77.3966 57.4045 77.4699 57.3949C77.5428 57.3864 77.6177 57.3437 77.6941 57.2688C77.7316 57.2312 77.7797 57.1665 77.8374 57.0774C77.8964 56.9887 77.9426 56.9107 77.9774 56.8438L78.2581 56.9528L77.1897 59.6718L76.909 59.5629C76.929 59.4901 76.9552 59.3945 76.9865 59.2753C77.0178 59.1561 77.0335 59.069 77.033 59.0124C77.0305 58.907 77.0064 58.827 76.96 58.7723C76.9128 58.7188 76.844 58.6738 76.753 58.6383L73.1405 57.236C73.053 57.202 72.9764 57.1877 72.9083 57.191C72.8399 57.1955 72.7643 57.2395 72.6819 57.3233C72.6195 57.388 72.5581 57.4687 72.495 57.5641C72.4326 57.6614 72.3843 57.7372 72.3511 57.7934L72.0703 57.6845L73.194 54.8245C73.4452 54.1852 73.7369 53.7394 74.0679 53.4853C74.3989 53.2313 74.7681 53.1841 75.1756 53.3422C75.534 53.4814 75.7829 53.6966 75.9204 53.9857C76.058 54.2748 76.1051 54.6532 76.0637 55.1198C76.3394 55.0391 76.6592 54.9443 77.0226 54.8356C77.386 54.7268 77.7602 54.6123 78.1426 54.4913C78.2655 54.4528 78.4196 54.3968 78.6056 54.3209C78.7909 54.2461 78.919 54.1657 78.9887 54.0786C79.0276 54.03 79.0698 53.966 79.1142 53.8858C79.1598 53.8062 79.1912 53.7478 79.2075 53.7133L79.4883 53.8223ZM80.2438 50.5744C80.198 50.9066 80.1136 51.2097 79.9917 51.4837C79.8684 51.759 79.738 51.9881 79.598 52.172L79.83 52.4716L79.7848 52.7999L77.8138 52.5797L77.8592 52.2515C78.0554 52.2025 78.2648 52.1354 78.4874 52.0489C78.7088 51.9622 78.9117 51.8558 79.0963 51.7269C79.2892 51.5952 79.4519 51.4409 79.5846 51.2625C79.7184 51.0857 79.8031 50.8688 79.8385 50.6109C79.8862 50.2657 79.8378 49.9885 79.6942 49.7804C79.5494 49.5737 79.3485 49.4522 79.0906 49.4171C78.8797 49.3883 78.6908 49.4424 78.5252 49.5791C78.3595 49.7159 78.2018 49.9412 78.0503 50.255C77.9514 50.4606 77.86 50.6485 77.7765 50.8189C77.6928 50.9908 77.6093 51.1504 77.5259 51.3011C77.3291 51.6446 77.0835 51.8872 76.7868 52.0261C76.4913 52.1664 76.1751 52.2136 75.84 52.1681C75.6277 52.1392 75.4298 52.0658 75.2459 51.9466C75.0622 51.8287 74.9052 51.6708 74.7736 51.4736C74.6499 51.2857 74.5605 51.0545 74.5049 50.7803C74.4481 50.5059 74.4414 50.2143 74.4841 49.9055C74.5257 49.6047 74.6062 49.329 74.7276 49.0788C74.8474 48.8282 74.9598 48.6325 75.0657 48.4942L74.8673 48.2298L74.9126 47.9015L76.7715 48.1224L76.7262 48.4507C76.5165 48.5004 76.2999 48.5613 76.0776 48.636C75.8551 48.7105 75.6658 48.7961 75.5125 48.8921C75.3475 48.9957 75.2083 49.1241 75.0982 49.2751C74.9881 49.4246 74.9171 49.6101 74.8869 49.8289C74.849 50.1039 74.8967 50.3385 75.0287 50.5331C75.1605 50.7287 75.3422 50.8423 75.5728 50.8736C75.7903 50.9033 75.9787 50.8518 76.1372 50.7195C76.297 50.586 76.4513 50.3666 76.6001 50.0604C76.6905 49.8804 76.7811 49.6977 76.871 49.5095C76.9622 49.3227 77.0477 49.1565 77.1276 49.0122C77.3228 48.6618 77.5591 48.4087 77.8386 48.2502C78.1165 48.093 78.4427 48.0391 78.8172 48.09C79.053 48.122 79.2734 48.2077 79.4784 48.3471C79.6833 48.4865 79.8464 48.6586 79.9673 48.8649C80.1005 49.0899 80.1923 49.3426 80.2419 49.6214C80.2927 49.9017 80.293 50.2189 80.2438 50.5744ZM80.61 43.8126L80.5264 46.8328L80.225 46.8245C80.2216 46.7547 80.2165 46.6533 80.2097 46.5191C80.2041 46.3848 80.1908 46.2924 80.1711 46.2404C80.1354 46.1448 80.0857 46.079 80.0231 46.0417C79.9621 46.0059 79.8806 45.9866 79.7828 45.9838L75.8871 45.8771C75.7986 45.8748 75.72 45.8897 75.6532 45.9208C75.5848 45.9518 75.5289 46.0159 75.4851 46.1121C75.4571 46.1718 75.4281 46.2618 75.3983 46.382C75.3674 46.5007 75.3459 46.6041 75.3329 46.6906L75.0316 46.6822L75.1153 43.6622L75.4166 43.6704C75.4224 43.7468 75.4303 43.8431 75.4417 43.9593C75.4529 44.0739 75.4701 44.1717 75.493 44.2514C75.5247 44.3521 75.5743 44.4205 75.6448 44.4553C75.7152 44.4901 75.7953 44.5095 75.8851 44.5119L79.7783 44.6185C79.8708 44.6211 79.9505 44.6061 80.0176 44.5738C80.0846 44.5401 80.1406 44.4759 80.1844 44.3797C80.2095 44.3278 80.2344 44.239 80.259 44.1161C80.285 43.9918 80.301 43.8884 80.3086 43.8044L80.61 43.8126ZM76.0896 37.5936L76.127 37.891C75.9046 37.9981 75.6726 38.1555 75.4295 38.3632C75.1863 38.5696 75.0636 38.7491 75.0611 38.8992C75.0608 38.9814 75.0655 39.0828 75.0728 39.2038C75.0797 39.3235 75.0887 39.4271 75.0998 39.5145L75.1222 39.6932L79.3972 39.1624C79.4891 39.151 79.5683 39.1239 79.635 39.0826C79.7017 39.0411 79.7487 38.969 79.7773 38.8675C79.7936 38.8071 79.8057 38.7129 79.814 38.5873C79.8233 38.4603 79.8275 38.3539 79.827 38.2664L80.1261 38.2292L80.5044 41.243L80.2052 41.2801C80.1881 41.2081 80.1647 41.1049 80.1335 40.9736C80.1023 40.8423 80.074 40.7544 80.0483 40.7086C79.9938 40.6147 79.9305 40.555 79.8581 40.5309C79.7845 40.5068 79.7011 40.5 79.6054 40.5119L75.2921 41.0474L75.3146 41.2261C75.3255 41.3135 75.3425 41.4161 75.3652 41.5338C75.3881 41.6528 75.4087 41.7523 75.4292 41.8318C75.4687 41.9767 75.632 42.1207 75.9187 42.2614C76.2057 42.4033 76.4695 42.4992 76.7115 42.5485L76.7489 42.8459L75.1904 43.0394L74.5311 37.7871L76.0896 37.5936Z" fill="#004B9D"/>
<path fill-rule="evenodd" clip-rule="evenodd" d="M8.94409 33.1897C9.07241 32.8109 9.25408 32.4764 9.49047 32.1866C9.72631 31.8979 10.0029 31.6702 10.3216 31.5036C10.634 31.3391 10.9825 31.245 11.3688 31.2204C11.7552 31.1959 12.1522 31.2512 12.5581 31.3872C12.9628 31.5228 13.3136 31.7182 13.6106 31.9743C13.9065 32.2288 14.1392 32.526 14.3053 32.8632C14.4689 33.1956 14.5599 33.5576 14.5769 33.9518C14.5953 34.3464 14.5368 34.7416 14.4021 35.1391C14.3051 35.4256 14.1813 35.6756 14.0297 35.8884C13.8794 36.1015 13.7318 36.274 13.5888 36.4079L13.7136 36.7022L13.6073 37.0161L11.6954 36.4089L11.8042 36.0874C12.4483 36.1007 12.9499 36.0246 13.3096 35.8606C13.668 35.6963 13.9096 35.4319 14.0342 35.0643C14.189 34.6071 14.1037 34.1915 13.7784 33.8175C13.4531 33.4435 12.9237 33.133 12.1896 32.887C11.7749 32.748 11.4064 32.6703 11.0858 32.653C10.7652 32.6359 10.4934 32.6641 10.2699 32.7348C10.0357 32.8131 9.84248 32.9343 9.68989 33.0969C9.5384 33.2597 9.42279 33.4569 9.34349 33.6911C9.22818 34.0313 9.21958 34.3654 9.31639 34.6934C9.41276 35.0226 9.61236 35.36 9.91684 35.7049L9.6187 35.9546C9.43871 35.7776 9.28627 35.5934 9.16227 35.4034C9.03712 35.2131 8.94285 35.0094 8.87967 34.7926C8.8105 34.5558 8.77706 34.3088 8.7796 34.0501C8.78162 33.7928 8.83698 33.5061 8.94409 33.1897ZM8.85151 50.1731C9.10067 50.2588 9.37463 50.3082 9.67747 50.3223C9.979 50.3366 10.3154 50.3213 10.6881 50.2751C11.0041 50.2357 11.3096 50.1754 11.6032 50.0938C11.8967 50.0123 12.1534 49.9023 12.3734 49.7664C12.5944 49.6276 12.7638 49.4596 12.8815 49.2607C13.0005 49.0618 13.043 48.8287 13.0092 48.5586C12.9512 48.0968 12.6868 47.7732 12.2158 47.5879C11.7451 47.4038 11.1083 47.3609 10.3042 47.4608C9.96174 47.5033 9.64369 47.5693 9.34594 47.6593C9.04935 47.7491 8.79606 47.8641 8.58326 48.0044C8.3694 48.1475 8.20923 48.3144 8.10404 48.5064C7.99879 48.6983 7.96305 48.9227 7.99544 49.1811C8.02713 49.4328 8.11866 49.6414 8.26986 49.8068C8.42107 49.9707 8.61496 50.0938 8.85151 50.1731ZM12.881 50.6692C12.6678 50.9659 12.398 51.2154 12.0688 51.4152C11.7395 51.6151 11.3532 51.7426 10.9072 51.7981C10.5097 51.8474 10.1235 51.8277 9.74885 51.7403C9.3728 51.652 9.04065 51.4997 8.74968 51.2828C8.44774 51.054 8.20041 50.7707 8.00512 50.4358C7.81126 50.1008 7.68353 49.6888 7.62212 49.1995C7.57257 48.8043 7.59123 48.423 7.67704 48.0559C7.76435 47.6887 7.91561 47.3558 8.13003 47.0577C8.34072 46.7625 8.60959 46.5159 8.939 46.3172C9.26842 46.1187 9.64552 45.9924 10.0746 45.9392C10.5192 45.884 10.9341 45.9091 11.3151 46.0156C11.6961 46.122 12.0334 46.2922 12.3249 46.5249C12.6123 46.7555 12.8469 47.0431 13.0285 47.3862C13.2115 47.7292 13.3279 48.1044 13.3791 48.5126C13.4299 48.917 13.4106 49.3051 13.3226 49.6764C13.2336 50.0491 13.0858 50.3788 12.881 50.6692ZM15.8379 58.1968C15.804 58.1324 15.753 58.0422 15.6846 57.9263C15.6174 57.8098 15.5263 57.7153 15.4117 57.6442C15.3118 57.5815 15.1764 57.5621 15.0026 57.586C14.8306 57.6106 14.592 57.6824 14.2855 57.8017L10.622 59.2281L10.367 58.5805L13.0847 53.8895L10.6817 54.825C10.3838 54.9411 10.1651 55.0489 10.0255 55.1485C9.88623 55.2492 9.79682 55.3574 9.76012 55.4733C9.73267 55.5589 9.7264 55.68 9.73987 55.8371C9.75475 55.9936 9.77201 56.1168 9.78996 56.2058L9.50938 56.3151L8.64476 54.1188L8.92544 54.0095C8.96946 54.0996 9.02867 54.1995 9.1047 54.3096C9.17891 54.4191 9.26208 54.5039 9.35175 54.5622C9.45852 54.628 9.58814 54.6509 9.74366 54.6313C9.89759 54.6109 10.1406 54.536 10.4742 54.406L12.9018 53.4608C13.0223 53.4139 13.1296 53.351 13.2223 53.2726C13.3149 53.1942 13.3846 53.1007 13.4301 52.9925C13.4798 52.8772 13.5067 52.7581 13.5105 52.6308C13.5162 52.5044 13.5049 52.3677 13.4767 52.2205L13.7575 52.1111L14.5131 54.0309L12.1328 58.14L14.0767 57.3831C14.3857 57.2628 14.6076 57.1524 14.7419 57.0535C14.8775 56.9542 14.9639 56.8457 15.0002 56.7286C15.0293 56.6367 15.0355 56.5157 15.0221 56.3627C15.0081 56.2115 14.9919 56.0907 14.9734 56.0005L15.2467 55.8941L16.1113 58.0903L15.8379 58.1968ZM17.1171 65.7334C17.067 65.6701 17.0215 65.6162 16.9791 65.57C16.9378 65.5228 16.878 65.4688 16.8025 65.4076C16.716 65.3363 16.6321 65.3084 16.549 65.3207C16.4655 65.3348 16.3872 65.3642 16.3158 65.4096L15.7768 65.7524C15.6677 65.8217 15.5815 65.8782 15.5161 65.9229C15.4507 65.9675 15.3715 66.0226 15.2764 66.0893C15.0061 65.9569 14.6778 65.7147 14.2906 65.3663C13.9039 65.0161 13.5968 64.6652 13.3689 64.3107C13.1545 63.9773 13.0051 63.6324 12.9202 63.2758C12.8346 62.9183 12.8226 62.5654 12.886 62.2147C12.9469 61.8653 13.0869 61.5313 13.3053 61.2146C13.5248 60.897 13.8283 60.6152 14.216 60.3687C14.5768 60.1393 14.9495 59.9867 15.3331 59.9096C15.7175 59.8339 16.0917 59.8376 16.4578 59.9216C16.8202 60.0019 17.1625 60.1634 17.4865 60.4037C17.8093 60.6446 18.0952 60.9576 18.343 61.3431C18.511 61.6045 18.6347 61.8676 18.7121 62.1321C18.7906 62.3956 18.8387 62.6243 18.8584 62.8161L19.1675 62.9036L19.3469 63.1828L17.6732 64.2844L17.4894 63.9987C17.8931 63.511 18.1438 63.0738 18.2437 62.6873C18.3433 62.3025 18.2803 61.9338 18.0553 61.5838C17.789 61.1694 17.4004 60.9656 16.8898 60.9719C16.3782 60.9789 15.8021 61.186 15.1605 61.5939C14.4789 62.0273 14.0176 62.4766 13.7747 62.9432C13.5318 63.4097 13.5405 63.8458 13.8019 64.2523C13.9244 64.4428 14.0623 64.5938 14.2139 64.705C14.3672 64.8167 14.5081 64.8894 14.6365 64.9232L15.5756 64.3262C15.6534 64.2766 15.7098 64.2204 15.7444 64.1594C15.7794 64.0967 15.7905 64.0116 15.7754 63.9025C15.7635 63.8181 15.7359 63.7217 15.6933 63.6115C15.6508 63.5011 15.6122 63.4118 15.5791 63.3408L15.833 63.1793L17.3711 65.572L17.1171 65.7334ZM20.1298 70.4757C20.3774 70.3855 20.6221 70.2507 20.8648 70.0722C21.1085 69.8929 21.3604 69.6686 21.6198 69.3986C21.8408 69.1684 22.0391 68.9297 22.2148 68.682C22.3914 68.4335 22.5203 68.1869 22.6054 67.9422C22.6877 67.6967 22.7121 67.46 22.6779 67.231C22.6437 67.0021 22.5286 66.7946 22.3307 66.6065C21.9924 66.2851 21.5818 66.2005 21.0982 66.3539C20.6165 66.507 20.0946 66.875 19.534 67.4588C19.2957 67.707 19.0902 67.959 18.9165 68.2159C18.744 68.4718 18.6196 68.721 18.5437 68.9636C18.4691 69.2089 18.4511 69.439 18.4915 69.6538C18.5319 69.8687 18.6457 70.0661 18.8351 70.2458C19.0195 70.4211 19.223 70.5253 19.4454 70.5583C19.6668 70.5905 19.8963 70.5629 20.1298 70.4757ZM23.5725 68.323C23.5959 68.6869 23.5444 69.0506 23.4163 69.4126C23.2889 69.7734 23.0697 70.116 22.7592 70.4393C22.3181 70.8984 21.8153 71.1916 21.2507 71.3207C20.687 71.4489 20.121 71.3892 19.5522 71.1399C19.3452 71.3668 19.2277 71.6224 19.2015 71.9067C19.1744 72.1918 19.2497 72.4179 19.4256 72.585C19.5337 72.6877 19.6356 72.7718 19.7288 72.8367C19.8228 72.9006 19.9101 72.9563 19.9907 73.0018L19.7569 73.2453C19.6087 73.1881 19.4071 73.082 19.154 72.9288C18.9018 72.7746 18.6609 72.5894 18.4306 72.3706C18.117 72.0727 17.9475 71.7335 17.9237 71.3545C17.9009 70.9747 18.0374 70.6061 18.334 70.2497C18.0949 69.9735 17.9123 69.6744 17.7842 69.3547C17.6572 69.034 17.5907 68.7034 17.5875 68.3623C17.5853 68.0257 17.6497 67.6904 17.7803 67.3564C17.9102 67.0215 18.1134 66.7109 18.39 66.4229C18.7005 66.0996 19.0381 65.8585 19.401 65.7014C19.7649 65.5435 20.1343 65.4635 20.5081 65.4606C20.8774 65.4587 21.242 65.5341 21.6007 65.6859C21.9606 65.8367 22.289 66.0543 22.5883 66.3385C22.8845 66.6201 23.1162 66.9329 23.2838 67.2759C23.4517 67.6208 23.5468 67.9692 23.5725 68.323ZM25.1286 75.3263L22.5709 73.6961L22.7336 73.4437C22.7955 73.4768 22.8854 73.5248 23.0046 73.5884C23.1231 73.653 23.2096 73.6894 23.2644 73.6993C23.3651 73.7182 23.4475 73.7099 23.5119 73.6759C23.5744 73.6423 23.6331 73.5828 23.6858 73.501L25.7887 70.2378C25.8365 70.1637 25.8641 70.0892 25.872 70.0161C25.8805 69.9418 25.854 69.861 25.7938 69.7741C25.7569 69.7194 25.6945 69.6484 25.6063 69.561C25.5199 69.4731 25.442 69.4015 25.3743 69.346L25.5369 69.0935L28.0946 70.7237L27.9319 70.9763C27.8631 70.9417 27.7761 70.8986 27.6704 70.8485C27.5657 70.7989 27.4726 70.763 27.3923 70.7414C27.2892 70.7163 27.2046 70.7233 27.1382 70.7654C27.0719 70.8074 27.0139 70.8657 26.9654 70.9409L24.8639 74.2019C24.8139 74.2794 24.7858 74.3551 24.779 74.4288C24.7733 74.5034 24.7997 74.5843 24.86 74.671C24.8916 74.7193 24.9553 74.7865 25.0485 74.8707C25.142 74.957 25.2228 75.0241 25.2912 75.0739L25.1286 75.3263ZM34.8512 74.2716C34.7816 74.2491 34.6817 74.2202 34.5512 74.1849C34.4212 74.1484 34.2899 74.1441 34.1578 74.173C34.0424 74.1977 33.932 74.278 33.8244 74.4159C33.7189 74.5532 33.5987 74.7703 33.4635 75.0689L31.8478 78.6364L31.2101 78.3507L29.8544 73.1074L28.7945 75.4473C28.6631 75.7374 28.5826 75.9666 28.5526 76.1349C28.524 76.3038 28.5363 76.4433 28.5914 76.5518C28.632 76.6321 28.7127 76.7229 28.8328 76.8257C28.9536 76.9273 29.0525 77.0034 29.1279 77.0546L29.0041 77.3277L26.8417 76.3591L26.9655 76.0858C27.0604 76.1196 27.1729 76.1499 27.3047 76.1757C27.4348 76.2023 27.5538 76.2051 27.6589 76.1844C27.7815 76.1572 27.8903 76.0833 27.9876 75.9612C28.0833 75.8396 28.2044 75.617 28.3515 75.2921L29.4223 72.9282C29.4754 72.8108 29.5079 72.6912 29.5189 72.5707C29.53 72.4502 29.5141 72.3349 29.4707 72.2261C29.4251 72.109 29.3605 72.0051 29.2739 71.9115C29.1889 71.8172 29.0847 71.7273 28.961 71.6416L29.0849 71.3682L30.9748 72.215L32.1628 76.8077L33.02 74.9148C33.1564 74.614 33.2373 74.3806 33.2638 74.2166C33.2909 74.0513 33.2763 73.9136 33.2198 73.8047C33.1761 73.7188 33.0955 73.6278 32.9783 73.5278C32.862 73.4296 32.7655 73.3546 32.6888 73.3029L32.8093 73.0367L34.9717 74.0054L34.8512 74.2716ZM41.0833 78.3319C41.0025 78.3255 40.924 78.3175 40.861 78.3169C40.7982 78.315 40.7177 78.3218 40.6212 78.3352C40.5097 78.3498 40.4321 78.392 40.3847 78.4609C40.3382 78.5315 40.3067 78.6085 40.2917 78.6914L40.1778 79.3176C40.1547 79.4443 40.1377 79.5456 40.1261 79.6236C40.1146 79.7017 40.1014 79.7969 40.0857 79.9116C39.8044 80.0186 39.4025 80.0933 38.8825 80.1387C38.3613 80.1825 37.8937 80.1678 37.4774 80.0929C37.086 80.0224 36.73 79.8969 36.4093 79.7163C36.0877 79.5355 35.8194 79.3043 35.6039 79.0196C35.3879 78.7376 35.2367 78.4083 35.1518 78.0338C35.067 77.6577 35.0656 77.2447 35.1476 76.7943C35.2238 76.3751 35.3647 75.9998 35.5689 75.6677C35.7743 75.3359 36.0316 75.0657 36.3426 74.8558C36.648 74.6461 36.9999 74.5063 37.3975 74.4335C37.7946 74.362 38.2197 74.3664 38.6724 74.4478C38.9794 74.503 39.2575 74.5919 39.5051 74.7152C39.7529 74.8374 39.9539 74.9577 40.1088 75.0738L40.3836 74.908L40.7114 74.967L40.3853 76.9366L40.0496 76.8763C39.9647 76.2503 39.8129 75.77 39.5959 75.4344C39.3799 75.1003 39.0653 74.8953 38.6541 74.8214C38.1678 74.7338 37.7532 74.8784 37.4105 75.255C37.0677 75.6328 36.8287 76.1938 36.693 76.9389C36.549 77.7306 36.5665 78.3725 36.7454 78.867C36.9241 79.3614 37.2514 79.6515 37.729 79.7373C37.9526 79.7776 38.1578 79.7798 38.3429 79.7449C38.5294 79.709 38.6788 79.6557 38.7911 79.585L38.9895 78.4944C39.006 78.404 39.0029 78.3246 38.9814 78.2578C38.959 78.1897 38.9038 78.1237 38.8131 78.0606C38.7427 78.0119 38.6531 77.9664 38.5427 77.9224C38.4325 77.8785 38.3403 77.8459 38.2655 77.8217L38.3191 77.5268L41.0855 78.0324L41.0833 78.3319ZM7.32164 44.1198L7.54729 41.1703L7.84787 41.193C7.84821 41.2576 7.84892 41.3526 7.85007 41.4767C7.84979 41.6006 7.85914 41.687 7.8768 41.7345C7.9077 41.8318 7.95408 41.9011 8.01456 41.9427C8.0751 41.9828 8.15412 42.0073 8.25164 42.0147L10.1445 42.1578L10.3233 39.8217L8.47394 39.6818C8.38558 39.6752 8.30498 39.6875 8.2336 39.7204C8.16092 39.7518 8.10193 39.8119 8.05557 39.8981C8.03198 39.9464 8.00329 40.0273 7.97063 40.1435C7.93902 40.2611 7.9172 40.3557 7.90621 40.43L7.60566 40.4072L7.83132 37.4577L8.13186 37.4803C8.12956 37.5449 8.13018 37.6398 8.13521 37.7654C8.14015 37.8911 8.15033 37.9841 8.16716 38.042C8.19293 38.1364 8.2395 38.2045 8.30393 38.2463C8.36975 38.2869 8.4487 38.3113 8.54234 38.3184L12.4204 38.6117C12.5114 38.6186 12.5876 38.6087 12.6522 38.5805C12.7166 38.5537 12.7756 38.491 12.8294 38.3949C12.8695 38.3227 12.9071 38.2267 12.9428 38.108C12.9797 37.9896 13.0023 37.903 13.0116 37.8496L13.3122 37.8723L13.0867 40.8219L12.7859 40.7991C12.7869 40.7188 12.7809 40.6234 12.7697 40.5104C12.757 40.3987 12.7438 40.3121 12.7311 40.2518C12.7045 40.1496 12.6569 40.0787 12.5855 40.0417C12.5154 40.0034 12.4387 39.9818 12.3558 39.9755L10.7187 39.8516L10.5401 42.1878L12.1389 42.3087C12.2286 42.3155 12.3064 42.3043 12.3708 42.2761C12.434 42.2466 12.4931 42.1839 12.5482 42.0879C12.5837 42.0233 12.6195 41.9363 12.6545 41.8256C12.6907 41.7163 12.7147 41.6284 12.7276 41.5622L13.0282 41.5849L12.8027 44.5345L12.502 44.5117C12.5031 44.4287 12.4997 44.3362 12.4904 44.2313C12.4811 44.1278 12.4671 44.0331 12.4483 43.9487C12.4215 43.8491 12.3738 43.7795 12.3051 43.7401C12.2353 43.7018 12.1575 43.6787 12.0732 43.6724L8.18976 43.3787C8.09755 43.3717 8.01711 43.3827 7.94995 43.4105C7.8828 43.4398 7.82374 43.5013 7.77279 43.595C7.74314 43.6546 7.71241 43.7434 7.68248 43.8584C7.65379 43.9736 7.6332 44.0683 7.62231 44.1426L7.32164 44.1198Z" fill="#004B9D"/>
</svg>
