<?xml version="1.0" standalone="no"?><!DOCTYPE svg PUBLIC "-//W3C//DTD SVG 1.1//EN" "http://www.w3.org/Graphics/SVG/1.1/DTD/svg11.dtd"><svg t="1739563512813" class="icon" viewBox="0 0 1512 1024" version="1.1" xmlns="http://www.w3.org/2000/svg" p-id="8423" xmlns:xlink="http://www.w3.org/1999/xlink" width="295.3125" height="200"><path d="M812.526545 429.312l665.134546 262.4c33.117091 14.149818 33.117091 35.002182 0 49.012364l-665.134546 262.539636c-33.140364 14.149818-89.274182 14.149818-122.554181 0L24.861091 740.724364c-33.140364-14.149818-33.140364-35.002182 0-49.012364l665.111273-262.4c33.140364-12.148364 89.274182-12.148364 122.554181 0z" fill="#7890FA" p-id="8424"></path><path d="M812.526545 411.717818l665.134546 262.423273c33.117091 14.149818 33.117091 35.002182 0 49.012364l-665.134546 262.842181c-33.140364 13.986909-89.274182 13.986909-122.554181 0L24.861091 723.432727c-33.140364-13.870545-33.140364-35.002182 0-49.012363l665.111273-262.539637c33.140364-12.288 89.274182-12.288 122.554181-0.162909z" fill="#7890FA" p-id="8425"></path><path d="M812.526545 394.309818l665.134546 262.539637c33.117091 14.010182 33.117091 35.002182 0 49.012363l-665.134546 262.4c-33.140364 14.149818-89.274182 14.149818-122.554181 0L24.861091 705.861818c-33.140364-14.149818-33.140364-35.002182 0-49.012363l665.111273-262.539637c33.140364-12.288 89.274182-12.288 122.554181 0z" fill="#7890FA" p-id="8426"></path><path d="M812.526545 376.878545l665.134546 262.56291c33.117091 13.847273 33.117091 34.978909 0 48.98909l-665.134546 262.423273c-33.140364 14.126545-89.274182 14.126545-122.554181 0L24.861091 688.290909c-33.140364-14.149818-33.140364-35.002182 0-49.012364l665.111273-262.4c33.140364-12.288 89.274182-12.288 122.554181 0z" fill="#7890FA" p-id="8427"></path><path d="M812.526545 359.307636l665.134546 262.562909c33.117091 14.126545 33.117091 34.978909 0 48.989091l-665.134546 262.423273c-33.140364 14.126545-89.274182 14.126545-122.554181 0L24.861091 670.859636c-33.140364-14.010182-33.140364-35.002182 0-48.989091l665.111273-262.562909c33.140364-12.288 89.274182-12.288 122.554181 0z" fill="#7890FA" p-id="8428"></path><path d="M812.526545 341.876364l665.134546 262.562909c33.117091 14.126545 33.117091 35.002182 0 48.989091l-665.134546 262.423272c-33.140364 13.847273-89.274182 13.847273-122.554181 0L24.861091 653.428364c-33.140364-13.847273-33.140364-35.002182 0-48.989091L689.972364 341.876364c33.140364-12.288 89.274182-12.288 122.554181 0z" fill="#7890FA" p-id="8429"></path><path d="M812.526545 324.445091l665.134546 260.840727c33.117091 14.149818 33.117091 35.002182 0 49.012364l-665.134546 260.840727c-33.140364 14.126545-89.274182 14.126545-122.554181 0L24.861091 634.298182c-33.140364-14.149818-33.140364-35.002182 0-49.012364l665.111273-260.840727c33.140364-12.427636 89.274182-12.427636 122.554181 0z" fill="#7890FA" p-id="8430"></path><path d="M812.526545 306.734545l665.134546 260.701091c33.117091 14.149818 33.117091 35.002182 0 48.989091L812.503273 877.149091c-33.140364 14.149818-89.274182 14.149818-122.554182 0L24.861091 616.424727c-33.140364-14.126545-33.140364-34.978909 0-48.989091L689.972364 306.734545c33.140364-12.148364 89.274182-12.148364 122.554181 0z" fill="#7890FA" p-id="8431"></path><path d="M812.526545 289.303273l665.134546 260.840727c33.117091 14.010182 33.117091 35.002182 0 49.012364l-665.134546 260.701091c-33.140364 14.126545-89.274182 14.126545-122.554181 0L24.861091 599.156364c-33.140364-14.149818-33.140364-35.002182 0-49.012364l665.111273-260.840727c33.140364-12.148364 89.274182-12.148364 122.554181 0z" fill="#7890FA" p-id="8432"></path><path d="M812.526545 271.732364l665.134546 260.840727c33.117091 14.149818 33.117091 35.002182 0 49.012364l-665.134546 260.980363c-33.140364 13.847273-89.274182 13.847273-122.554181 0L24.861091 581.585455c-33.140364-14.149818-33.140364-35.002182 0-49.012364L689.972364 271.592727c33.140364-12.148364 89.274182-12.148364 122.554181 0.139637z" fill="#D4CDA7" p-id="8433"></path><path d="M812.526545 271.732364l665.134546 260.840727c33.117091 14.149818 33.117091 35.002182 0 49.012364l-665.134546 260.980363c-33.140364 13.847273-89.274182 13.847273-122.554181 0L24.861091 581.585455c-33.140364-14.149818-33.140364-35.002182 0-49.012364L689.972364 271.592727c33.140364-12.148364 89.274182-12.148364 122.554181 0.139637z" fill="#4868F8" p-id="8434"></path><path d="M413.376 551.703273h670.487273c9.774545 0 17.710545 7.959273 17.710545 17.803636v17.780364a17.757091 17.757091 0 0 1-17.710545 17.803636h-670.487273a17.757091 17.757091 0 0 1-17.733818-17.803636v-17.780364c0-9.844364 7.936-17.803636 17.733818-17.803636z m655.965091-35.607273v-349.090909c0-13.917091-11.217455-24.622545-24.715636-24.622546h-74.123637c-13.474909 0-24.669091 11.776-24.669091 24.622546v349.090909h123.531637-0.023273z m-158.813091 17.803636v-223.185454c0-14.033455-11.240727-25.972364-24.738909-25.972364h-74.123636c-13.474909 0-24.715636 11.938909-24.715637 25.995637v223.185454h123.554909z m-158.859636 0V26.158545C751.668364 11.985455 740.427636 0 726.952727 0h-74.123636c-13.474909 0-24.715636 11.985455-24.715636 26.158545v507.741091h123.554909z m-158.836364-17.803636v-349.090909c0-13.917091-11.240727-24.622545-24.715636-24.622546h-74.123637c-13.474909 0-24.715636 11.776-24.715636 24.622546v349.090909h123.554909z" fill="#DCB447" p-id="8435"></path><path d="M390.103273 551.703273h670.487272c9.774545 0 17.710545 7.959273 17.710546 17.803636v17.780364a17.757091 17.757091 0 0 1-17.710546 17.803636h-670.487272a17.757091 17.757091 0 0 1-17.733818-17.803636v-17.780364c0-9.844364 7.936-17.803636 17.733818-17.803636z m655.965091-35.607273v-349.090909c0-13.917091-11.217455-24.622545-24.715637-24.622546h-74.123636c-13.474909 0-24.669091 11.776-24.669091 24.622546v349.090909h123.531636-0.023272z m-158.813091 17.803636v-223.185454c0-14.033455-11.240727-25.972364-24.738909-25.972364h-74.123637c-13.474909 0-24.715636 11.938909-24.715636 25.995637v223.185454h123.554909z m-158.859637 0V26.158545C728.395636 11.985455 717.154909 0 703.68 0h-74.123636c-13.474909 0-24.715636 11.985455-24.715637 26.158545v507.741091h123.554909z m-158.836363-17.803636v-349.090909c0-13.917091-11.240727-24.622545-24.715637-24.622546h-74.123636c-13.474909 0-24.715636 11.776-24.715636 24.622546v349.090909h123.554909z" fill="#FFCB3C" p-id="8436"></path></svg>