<?xml version="1.0" standalone="no"?><!DOCTYPE svg PUBLIC "-//W3C//DTD SVG 1.1//EN" "http://www.w3.org/Graphics/SVG/1.1/DTD/svg11.dtd"><svg t="1741999208655" class="icon" viewBox="0 0 1024 1024" version="1.1" xmlns="http://www.w3.org/2000/svg" p-id="5603" xmlns:xlink="http://www.w3.org/1999/xlink" width="200" height="200"><path d="M17.647513 393.37833l-0.356639-1.579401a12.22762 12.22762 0 0 0 0.356639 1.579401zM992.596415 318.07657c-5.859068 0.076423-11.183177 2.012462-16.507287 4.024925-18.570698 7.030882-35.842211 16.609184-53.521312 25.525157-21.500232 10.902961-42.338134 23.156055-65.213973 31.154956-13.807021 4.8401-16.685606 2.929534-17.577204-11.74361a198.087444 198.087444 0 0 1 1.45203-40.733259c-8.431963-0.917072-11.310549 8.228169-18.188585 10.164209v-0.025474 0.025474c-3.235224 32.097503-10.648219 63.099614-32.759832 87.682226-25.397786 28.225423-74.512059 37.039499-109.462673 15.106205-8.712179-5.451481-16.787503-11.998352-25.143044-18.035739a94.43289 94.43289 0 0 1-15.335473 59.20206c-4.559883 7.08183-9.119767 14.265557-16.303494 18.82544-9.629251 6.139284-13.475856-6.292129-21.06717-7.107304-2.700266 10.266106-3.566389 21.092645-9.221663 30.518101-4.992945 8.253644-11.718136 13.959866-21.220016 15.386422-13.603227 2.063411-21.194541-4.534409-25.881796-20.939799-4.508935-15.692112-4.432512-31.715389-4.17777-47.815089 0.178319-10.750116 0.127371-21.474758 0.17832-32.224874v-0.025474l0.127371-15.870432a60.628616 60.628616 0 0 1-0.560433-2.037937c-10.597271 5.527903-19.411347 13.628701-29.830298 19.640615-51.356004 29.422711-122.93853 23.436272-163.926531-18.876388-3.719234-3.846605-7.820582-7.234675-11.74361-10.877487-17.628152-21.041696-40.911579-16.685606-63.991211-14.800515-12.966372 1.069917-26.136538-0.382113-39.153858 0.48401-12.507836 0.866123-24.862827-4.075873-37.472561-0.050949-6.90351 2.165308-13.781547-1.681298-20.837902-1.93604-21.143593-0.687804-42.00697 3.184276-63.176037 2.292679-26.416754-1.095391-52.909931-1.477504-79.377633-2.063411a20.685057 20.685057 0 0 1-9.603777-2.445524c-3.337121-1.859617-4.992945-0.713278-5.426006 2.853112 0.050948 5.604326 1.477504 10.801064 4.228718 15.692112 3.031431 0.025474 4.738203 1.783195 6.190233 4.35609 20.27747 35.740314 48.069831 65.31587 78.078449 92.649695 32.963626 29.983143 68.729414 56.654639 108.698447 76.855687 15.743061 7.973427 31.893709 15.513793 50.337035 15.997803 8.763128 0.203794 13.119217-3.642812 14.902412-11.565291 1.27371-5.527903 2.547421-11.055806 3.744709-16.583709 0.866123-3.821131 2.623843-7.463943 6.725191-7.871531 5.069367-0.48401 7.922479 3.69376 9.399983 7.693211 3.20975 8.814076 5.782645 17.85742 8.508385 26.824342 3.413544 11.183177 6.699717 22.417303 10.062313 33.60048 8.04985 13.98534 20.914325 15.106206 35.307253 14.316505 18.570698-1.018968 37.192344-1.171814 55.788516-1.630349 30.416205-0.815175 60.883358 1.375607 91.350511 1.324659 21.092645-0.050948 42.236237-1.324659 63.303408-1.350133 21.169067 0 42.440031 2.012462 63.685521 1.350133 20.76148-0.662329 41.573908-0.764226 62.335388-1.350133 20.455789-0.611381 41.064424 1.120865 61.62211 1.706772 11.004858 0.356639 19.105656-1.93604 23.079632-12.991846 0.48401-1.375607 2.343627-2.267205 3.540915-3.38807l5.80812-20.201047c0.738752-2.623843 1.375607-5.731697 4.865574-5.222213 2.72574 0.433062 4.330615 2.878586 5.247686 5.578852 5.247687 15.513793 8.941447 17.296987 24.175024 10.928435 35.128933-14.775041 65.850829-36.530015 95.018797-60.628616a341.558186 341.558186 0 0 0 46.261163-45.777152c0.764226-0.891597 1.783195-0.254742 2.42005 0.687803 20.710531-30.518102 34.695872-64.016686 44.197751-99.476783 6.750665-25.092095 10.4699-50.617252 8.508386-76.651893-0.96802-13.959866-8.584808-20.302944-22.468252-20.150099z" fill="#6ECA00" p-id="5604"></path><path d="M295.647548 206.499537c9.603777 2.012462 13.705124 4.992945 12.915424 14.571247-0.127371 1.375607 1.222762 2.90406 1.885091 4.330616 4.941996-17.577204 6.979933-35.918634 14.010815-52.935405 6.394026-15.539267 14.036289-30.110514 26.416754-42.108867 21.653077-21.016222 60.908832-16.176122 81.466518-1.986988 1.095391 0.764226 2.165308 1.604875 3.337122 2.216256 4.279667 2.165308 8.686705 8.661231 13.01732 4.738203 4.610832-4.152296-3.540915-6.954459-4.66178-11.081281-0.585907-2.088885-3.286173-4.024925-1.528452-6.292129 1.986988-2.547421 4.814625-1.299185 7.438468-0.433062 25.321363 8.661231 48.044357 22.060664 68.780363 38.79722 7.030882 5.655274 13.450382 12.074775 20.226521 18.035739 1.579401 1.426556 2.878586 4.712729 5.604326 2.980483 3.235224-2.114359 0.713278-4.865574-0.433061-7.08183-1.655824-3.260699-3.87208-6.266655-5.6298-9.50188-1.095391-1.986988-2.955008-4.305141-1.14634-6.470449 2.369101-2.853111 5.14579-0.713278 7.183727 0.636855 9.833044 6.546872 20.685057 11.081281 31.154957 16.405391 33.47311 17.016771 67.073591 19.742511 100.674071 0.229267 8.126272-4.712729 16.991297-7.056356 26.263909-8.533859 0.942546 4.865574-2.165308 6.139284-4.534409 7.744159-2.343627 1.553927-5.120316 3.184276-3.515441 6.241181 1.75772 3.311647 5.502429 2.496472 8.04985 1.222762 5.706223-2.802163 10.95391-6.495923 16.58371-9.425457 12.304043-6.368552 23.818385-15.411896 39.001013-13.883444 0.152845 0.866123 0.534958 1.655824 0.280216 1.986989-2.72574 3.439018-10.495374 4.941996-8.177221 9.680199 2.649318 5.426006 8.330066 0.178319 12.456888-0.96802 20.251996-5.680748 34.848717 0.534958 44.987452 19.30945 9.934941 18.392378 12.507836 38.695322 15.080731 58.89637 2.878586 22.672045 2.139834 45.496936 2.063411 68.296352 1.375607 7.897005-2.165308 15.411896-1.961514 23.257952 4.967471-5.120316 8.686705-12.737104 18.239533-9.068818 1.630349-13.654176 3.439018-27.257403 4.891048-40.911578 5.120316-48.42647 10.622745-96.878414 9.094293-145.686998a101.387349 101.387349 0 0 0-14.087237-49.827552c-6.648768-11.004858-16.176122-15.182628-29.040598-13.119217-14.902412 2.394576-28.149 8.635757-40.937053 16.074226-17.144142 9.98589-34.695872 19.360398-54.234589 23.512694-94.178148 19.997254-180.68856 5.222213-256.754546-57.011278-19.971779-16.328968-39.026487-34.211862-62.208017-46.082843-53.368467-27.333826-86.357566-12.558785-105.335852 38.364157-18.927337 50.821046-22.238984 104.011193-22.213509 157.634402 8.457437-0.560433 15.870432-4.687254 25.295888-2.751215z" fill="#89D600" p-id="5605"></path><path d="M822.989136 335.399032l0.050948 1.069916v0.025475c6.878036-1.93604 9.756622-11.081281 18.188585-10.16421-9.552828-3.668286-13.272063 3.948502-18.239533 9.068819z" fill="#89D600" p-id="5606"></path><path d="M738.032651 744.081756c-9.756622 4.432512-17.449833 11.565291-25.295889 18.494276-1.986988 1.75772-3.821131 3.719234-6.77614 3.668286-89.923956 80.039963-267.606559 68.576569-343.086638-38.31321v-0.025474 0.025474c-11.081281-12.023826-23.843859-17.271513-40.503991-12.584259-4.865574 1.375607-10.95391-2.190782-16.558235-2.674792-8.126272-0.662329-16.023277-0.076423-19.615141 9.272612 1.655824 11.667187 6.190233 22.5192 10.29158 33.396687 16.914874 44.987452 41.013475 85.211227 78.766253 116.009545 42.185289 34.390181 91.22314 48.732161 145.075616 50.770098 55.406403 2.037937 103.603605-14.800515 144.846349-51.483376 38.593426-34.288284 65.341344-76.932109 85.41502-124.03392-3.158802-6.419501-7.693211-4.763677-12.558784-2.521947z" fill="#4DA100" p-id="5607"></path><path d="M306.448613 290.003992l0.815174 0.305691a5.298635 5.298635 0 0 0-0.815174-0.305691z" fill="#80D100" p-id="5608"></path><path d="M23.761323 387.977798c42.338134 3.999451 84.727217 4.814625 127.167248 2.190782 12.049301-0.713278 24.200498 0.942546 36.122427 0.509484 29.422711-0.96802 58.845421 3.617338 88.242658-0.025474 11.336023-1.401081 22.748468-0.891597 34.160913-0.458536 9.552828 0.382113 16.507287 5.476955 22.977736 11.386971-6.062862-10.444425-12.074775-20.965273-16.125174-32.479616-9.043344-25.678002-10.77559-52.247601-9.858518-79.122891-0.891597-21.398335 1.146339-42.643825 3.897554-63.787418l-0.127371 0.050949c-1.783195-0.356639-2.827637-1.528453-3.464493-3.158802-5.451481-13.832495-10.979384-16.685606-26.009166-13.450382-3.489967 0.738752-6.979933 2.547421-10.342529-0.356639l0.025474 22.264458a43.306154 43.306154 0 0 1 0.025474 26.060115c-0.127371 2.700266-0.127371 5.400532-0.48401 8.04985-2.165308 16.176122-2.139834 32.759832-9.756621 47.840563-6.827088 13.50133-15.564741 17.933843-30.237886 15.513793-13.781547-2.267205-26.518651-7.489417-38.720796-13.781546-29.830298-15.335473-59.278483-31.435173-89.108781-46.770647-17.296987-8.915973-35.027036-16.940349-54.514806-20.150099-10.95391-1.808669-19.054708 2.190782-24.964724 11.157703-3.337121 5.094842-5.757171 10.622745-7.234676 16.507287-9.756622 38.797219-7.08183 77.365171 1.834143 115.805752-0.687804-4.508935 2.929534-4.101348 6.495924-3.795657z" fill="#80D100" p-id="5609"></path><path d="M23.098993 390.525218a20.76148 20.76148 0 0 0 9.603777 2.445524c26.467702 0.585907 52.960879 0.96802 79.377633 2.063411 21.169067 0.891597 42.057918-2.980482 63.176037-2.292678 7.056356 0.254742 13.934392 4.101348 20.837902 1.936039 12.609733-4.024925 24.93925 0.917072 37.472561 0.050949 13.01732-0.866123 26.162012 0.585907 39.153858-0.48401 23.079633-1.885091 46.363059-6.266655 63.991211 14.800515a1102.090676 1102.090676 0 0 0-4.254193-7.412995c-6.444975-5.910016-13.424908-11.030332-22.977735-11.386971-11.412445-0.458536-22.824891-0.96802-34.160914 0.458536-29.422711 3.591863-58.819947-0.96802-88.242658-0.025474-11.92193 0.433062-24.098601-1.222762-36.122427-0.509484-42.465505 2.623843-84.829114 1.783195-127.167248-2.190782-3.566389-0.305691-7.183727-0.713278-6.470449 3.821131l0.356639 1.579401c0.407587-3.566389 2.088885-4.712729 5.426006-2.853112zM280.745137 209.632865c15.029783-3.235224 20.557686-0.382113 26.009166 13.450382 0.636855 1.630349 1.681298 2.802163 3.464493 3.158802l0.127371-0.050949 0.101896-0.7897c-0.662329-1.45203-2.012462-2.955008-1.885091-4.330616 0.7897-9.578302-3.311647-12.558785-12.915424-14.571247-9.425457-1.961514-16.838452 2.190782-25.24494 2.776689 3.362596 2.929534 6.852562 1.120865 10.342529 0.356639z" fill="#80D100" p-id="5610"></path><path d="M294.959745 711.169079c3.87208-1.681298 49.470913 0.815175 53.368466 2.521947 4.712729 1.986988 8.381015 5.32411 11.947404 8.737653-5.32411-10.266106-12.278568-19.640615-17.500781-30.110514a374.623708 374.623708 0 0 1-22.366355-55.228084 34.44113 34.44113 0 0 1-2.037937-3.107853c-6.750665-9.272612-7.922479-20.58316-10.928435-31.104009a360.205306 360.205306 0 0 0-9.094293-28.811329c-1.299185-3.413544-2.776689-7.56584-7.38752-6.954459-3.923028 0.48401-4.559883 4.457986-5.502429 7.642262-0.560433 1.961514-0.840649 3.948502-1.248236 5.910017-4.279667 19.538718-10.877487 23.818385-30.798318 19.462295-24.684508-5.400532-46.541379-17.398884-67.481178-30.721895-60.603142-38.542477-114.124453-84.778165-154.348228-145.101091-3.337121-5.018419-5.578852-10.750116-9.731148-15.233577 1.859617 13.373959 7.87153 25.397786 13.297537 37.472561 28.81133 64.093108 75.480079 113.614969 129.103288 157.430607 29.932195 24.480714 61.927801 46.133791 93.261076 68.678466 13.042795 9.425457 23.054159 20.175573 24.811879 37.039499 0.433062 4.152296 1.171814 8.584808 3.846606 12.202146-1.986988-7.56584 4.101348-8.737653 8.788602-10.724642z" fill="#5CAB00" p-id="5611"></path><path d="M185.930133 569.40511c20.939799 13.323011 42.79667 25.321363 67.455704 30.721895 19.920831 4.35609 26.544125 0.076423 30.798318-19.462295 0.433062-1.961514 0.687804-3.948502 1.248236-5.910017 0.942546-3.184276 1.579401-7.158253 5.502429-7.642262 4.585358-0.585907 6.088336 3.566389 7.38752 6.954459 3.540915 9.425457 6.343078 19.080182 9.094293 28.811329 3.005957 10.520848 4.17777 21.805922 10.928435 31.104009 0.636855 1.120865 1.324659 2.114359 2.037937 3.107853-0.636855-2.012462-1.27371-4.050399-1.859617-6.062861-3.362596-11.183177-6.648768-22.417303-10.062313-33.600481-2.72574-8.966921-5.298635-18.010265-8.508385-26.824342-1.477504-3.999451-4.330615-8.151747-9.399983-7.693211-4.101348 0.407587-5.859068 4.024925-6.725191 7.871531-1.222762 5.553377-2.496472 11.081281-3.744709 16.583709-1.808669 7.947953-6.139284 11.769084-14.902412 11.565291-18.443327-0.48401-34.593975-7.998901-50.337036-15.997803-39.969033-20.201047-75.709347-46.872543-108.698447-76.855686-30.008617-27.333826-57.826453-56.909381-78.078448-92.649696-1.45203-2.572895-3.158802-4.305141-6.190233-4.35609 4.152296 4.483461 6.368552 10.215158 9.731148 15.233577 40.198301 60.297451 93.719613 106.558614 154.322754 145.101091zM305.811758 712.646583c5.604326 0.509484 11.692662 4.050399 16.558235 2.674792 16.660132-4.687254 29.422711 0.560433 40.503991 12.584259v-0.025474a98.432341 98.432341 0 0 0-2.623843-5.476955c-3.566389-3.413544-7.234675-6.750665-11.947404-8.737653-3.87208-1.681298-49.496387-4.203244-53.368466-2.521947-4.687254 1.986988-10.77559 3.158802-8.763128 10.750116 3.617338-9.32356 11.514342-9.934941 19.640615-9.247138z" fill="#5CAB00" p-id="5612"></path><path d="M895.259465 577.404011c-23.563643 17.296987-47.866038 33.47311-74.970595 44.860081-3.744709 1.553927-7.540366 2.802163-11.616239 3.082379-8.075324 0.534958-13.781547-2.165308-15.895906-10.520848-0.611381-2.496472-0.534958-5.527903-4.432513-6.776139-5.247687 6.979933-4.432512 16.634658-9.578302 23.767436a39.994507 39.994507 0 0 1-1.75772 3.464492c-8.177221 32.072028-19.742511 62.742975-37.778251 90.891976-8.151747 12.813527-18.468801 23.716488-28.582062 34.823243 7.005407-4.992945 12.380465-12.304043 20.430315-15.946855 3.642812-1.681298 6.90351-4.305141 10.953909-4.687254 4.432512-0.458536 8.966921-0.356639 8.610283 6.190232 9.119767-15.972329 14.494825-33.549532 21.602129-50.387984 2.623843-6.190233 6.215707-10.571796 11.998352-14.010814 21.704026-12.737104 42.414557-26.900764 62.258965-42.389083 45.445988-35.536521 86.026402-75.581976 115.958596-125.460476a380.02424 380.02424 0 0 1-67.200961 63.099614z" fill="#58A800" p-id="5613"></path><path d="M959.989428 513.667542a341.558186 341.558186 0 0 1-46.261162 45.777152c-29.193443 24.098601-59.915338 45.853575-95.018797 60.628616-15.259051 6.368552-18.927337 4.610832-24.175024-10.928435-0.917072-2.674792-2.521947-5.14579-5.247687-5.578852-3.515441-0.509484-4.126822 2.623843-4.865574 5.222213-1.910566 6.776139-3.821131 13.450382-5.808119 20.201047l-1.579401 6.266655a39.994507 39.994507 0 0 0 1.75772-3.464492c5.14579-7.107304 4.330615-16.762029 9.578302-23.767437 3.897554 1.248236 3.795657 4.279667 4.432513 6.77614 2.114359 8.35554 7.820582 11.081281 15.895906 10.520848 4.075873-0.280216 7.87153-1.553927 11.616239-3.082379 27.104558-11.361497 51.432427-27.563093 74.970595-44.860081a377.884407 377.884407 0 0 0 67.150013-63.07414c-0.662329-0.891597-1.681298-1.553927-2.445524-0.636855zM741.981153 740.362522c-4.050399 0.382113-7.311098 2.980482-10.95391 4.687254-8.024376 3.642812-13.399434 10.95391-20.430315 15.946855-1.579401 1.706772-3.133328 3.489967-4.66178 5.222212 2.929534 0.076423 4.789151-1.885091 6.77614-3.668286 7.87153-6.90351 15.539267-14.061763 25.295889-18.494275 4.865574-2.24173 9.399983-3.897554 12.558784 2.496472 0.382113-6.521397-4.152296-6.623294-8.584808-6.190232z" fill="#58A800" p-id="5614"></path><path d="M528.074225 956.613077c-8.04985-2.878586-16.456339-3.260699-27.792361-3.337122-12.278568-0.534958-26.620548 2.088885-38.389632 12.558785-10.138735 9.01787-16.074225 20.124625-12.737104 33.982594 3.337121 13.908918 14.341979 19.869883 27.053609 22.5192 20.175573 4.17777 39.357652 0.254742 57.44434-9.196189 11.183177-5.80812 17.144142-15.029783 16.023277-27.792361-1.197288-13.959866-8.075324-23.945756-21.602129-28.734907zM682.371506 895.424028c-21.474758 2.700266-44.528916 27.282877-45.726204 48.655738-0.662329 11.972878 3.770183 17.933843 15.74306 20.608635 3.87208 0.866123 7.922479 1.069917 10.750116 1.45203 14.978835-0.815175 28.63301-2.190782 40.631363-9.960416 13.98534-9.043344 18.214059-25.041147 11.463393-42.745722-5.502429-14.494825-15.844958-20.175573-32.861728-18.010265z" fill="#F89200" p-id="5615"></path><path d="M270.453556 231.540684l0.025475 26.060115a106.201975 106.201975 0 0 0-0.025475-26.060115z" fill="#89D600" p-id="5616"></path><path d="M270.453556 231.540684c1.095391 8.686705 1.069917 17.398884 0.025475 26.060115a43.306154 43.306154 0 0 0-0.025475-26.060115z" fill="#89D600" p-id="5617"></path><path d="M359.511389 716.238447c1.859617 2.90406 5.094842 5.680748 4.254193 9.501879l0.280216 0.254742c13.654176 13.297537 25.066621 28.734907 40.300197 40.758734 38.593426 30.390731 82.485487 44.834607 131.192174 47.509398 27.333826 1.502978 54.183641 0.305691 80.829663-5.757171 30.288834-6.827088 57.75003-19.640615 81.797683-39.4086 2.088885-1.706772 4.126822-3.439018 6.546871-4.712729 0.382113-0.127371 0.738752-0.356639 1.120865-0.534958 0.305691-3.005957 2.90406-4.891048 4.916523-6.90351 30.08504-29.830298 47.560347-66.666003 59.380379-106.660511 0.993494-3.337121 2.012462-6.623294 3.235225-9.909467-5.680748 6.139284-13.526805 8.304592-23.563643 7.947953-19.767986-0.738752-39.561446-2.343627-59.227534-1.706772-27.486671 0.866123-54.973342 2.139834-82.38359 1.197288-42.210763-1.426556-84.396052 1.222762-126.555867 0.050948-45.242194-1.324659-90.43344 0.101897-135.624686 0.458536-9.119767 0.076423-16.40539-1.961514-22.03519-7.234675 2.521947 5.731697 4.534409 11.667187 6.750665 17.526255 7.540366 20.226521 17.144142 39.434075 28.785856 57.62266z" fill="#5BC000" p-id="5618"></path><path d="M345.95911 648.349681c45.191246-0.356639 90.382491-1.75772 135.624685-0.458535 42.134341 1.171814 84.345104-1.477504 126.555867-0.050949 27.410248 0.942546 54.896919-0.331165 82.38359-1.197288 19.666089-0.611381 39.459549 0.96802 59.227535 1.706772 10.036838 0.382113 17.882894-1.783195 23.563642-7.947953 1.45203-3.923028 3.082379-7.795108 5.247687-11.437919-1.197288 1.120865-3.056905 2.012462-3.540915 3.388069-3.973977 11.055806-12.100249 13.323011-23.079632 12.991847-20.557686-0.585907-41.166321-2.343627-61.62211-1.706772-20.76148 0.560433-41.573908 0.662329-62.335388 1.350133-21.24549 0.662329-42.516454-1.350133-63.685521-1.350133-21.06717 0.025474-42.236237 1.299185-63.303408 1.350133-30.467153 0.050948-60.959781-2.139834-91.350511-1.324659-18.596172 0.48401-37.217818 0.611381-55.788516 1.630349-14.367454 0.7897-27.257403-0.331165-35.307253-14.316505 2.114359 3.235224 3.846605 6.623294 5.375058 10.087787 5.655274 5.32411 12.940898 7.362046 22.03519 7.285623zM705.782303 763.875216c-0.382113 0.178319-0.738752 0.407587-1.120865 0.534959-2.42005 1.27371-4.457986 2.980482-6.546872 4.712728-24.047653 19.767986-51.483375 32.581512-81.797683 39.4086-26.646022 6.037387-53.495838 7.234675-80.829663 5.757172-48.706686-2.674792-92.598747-17.118668-131.192173-47.509399-15.233577-12.023826-26.646022-27.435722-40.300198-40.758733l-0.280216-0.254743a6.750665 6.750665 0 0 1-0.866123 2.139834v0.025474c75.454605 106.889778 253.162683 118.353172 343.086638 38.31321a6.368552 6.368552 0 0 1-0.152845-2.369102zM359.511389 716.238447a308.186973 308.186973 0 0 1-28.836804-57.597186c-2.216256-5.859068-4.228719-11.820033-6.750665-17.526255a29.932195 29.932195 0 0 1-3.515441-4.024925c5.935491 18.978285 13.450382 37.319715 22.366355 55.228084 5.222213 10.444425 12.176672 19.818934 17.500781 30.110514l3.489967 3.337121c0.840649-3.846605-2.42005-6.623294-4.254193-9.527353z" fill="#5BC000" p-id="5619"></path><path d="M323.92392 641.115006a72.219381 72.219381 0 0 0-5.375058-10.087786c0.585907 2.012462 1.222762 4.050399 1.859617 6.062861 1.069917 1.502978 2.267205 2.802163 3.515441 4.024925zM360.250141 722.403205c0.917072 1.783195 1.808669 3.617338 2.623843 5.476955a6.750665 6.750665 0 0 0 0.866123-2.139834 215.792019 215.792019 0 0 1-3.489966-3.337121zM770.104679 650.33667c-11.820033 39.969033-29.29534 76.830212-59.38038 106.66051-2.012462 1.986988-4.636306 3.87208-4.916522 6.90351 1.706772-0.815175 3.311647-1.75772 4.814626-2.878585 10.113261-11.132229 20.430315-22.009716 28.582061-34.823243 18.03574-28.149 29.60103-58.845421 37.778251-90.891975a25.983693 25.983693 0 0 1-3.668286 5.171264 164.818128 164.818128 0 0 0-3.20975 9.858519z" fill="#5BC000" p-id="5620"></path><path d="M776.982715 635.255938l1.579401-6.266655a70.105021 70.105021 0 0 0-5.247687 11.437919 24.302395 24.302395 0 0 0 3.668286-5.171264zM705.960622 766.218843c1.528453-1.732246 3.082379-3.515441 4.661781-5.222212-1.528453 1.120865-3.107853 2.063411-4.814626 2.878585a5.32411 5.32411 0 0 0 0.152845 2.343627z" fill="#5BC000" p-id="5621"></path><path d="M611.960794 365.331226c18.749017 3.082379 29.575556 18.443327 37.039499 35.256305 2.649318 6.011913 4.330615 12.507836 6.444974 18.749017-0.458536-6.648768 4.152296-5.935491 8.610283-6.317604 17.908368-1.477504 35.612943 3.107853 53.546786 1.885092l0.025474-0.203794c-42.236237-6.368552-62.157068-44.656287-63.660047-80.957034a124.747198 124.747198 0 0 1 2.012463-31.53707c-8.992396-4.687254-18.290482-2.90406-27.970681-2.955008-12.915424-0.050948-26.009167-0.96802-39.026487-1.45203-13.042795-0.48401-26.21296-2.623843-39.10291 0.891597-3.719234 1.044443-6.699717 0.050948-9.654725-1.095391-7.616788-2.955008-12.304043-1.248236-13.959866 7.158253-0.611381 3.286173-1.426556 6.725191-5.604326 7.412995-2.547421 26.773393-10.011364 51.661695-28.913227 71.658948-34.644923 36.631912-86.25567 33.396687-116.442606-7.056356-14.291031-19.13113-22.21351-40.605888-22.824891-64.628067-0.534958-0.382113-1.401081-0.662329-1.579401-1.171813-5.757171-17.296987-20.048202-14.927886-32.989099-13.348485-5.298635 0.636855-6.59782-2.980482-8.635757-5.527904-1.171814 31.180431 2.063411 61.647584 15.717586 90.407966 2.751215 5.757171 6.088336 11.132229 9.298086 16.609184 1.350133 2.292679 3.591863 4.508935 3.337122 7.285623 4.381564 3.031431 7.947953 7.005407 11.794558 10.648219 40.300198 38.262261 87.121793 45.751678 138.834436 29.244392a133.281058 133.281058 0 0 0 44.758184-24.506189c2.623843-2.165308 5.32411-4.687254 9.145241-3.235224 0.407587-40.37662 36.173376-58.768999 69.799331-53.215622z" fill="#8CE400" p-id="5622"></path><path d="M533.06717 421.807546a133.5358 133.5358 0 0 1-44.758184 24.506189c-51.712643 16.507287-98.559712 9.01787-138.834435-29.244391-3.846605-3.642812-7.412995-7.616788-11.794559-10.64822a5.859068 5.859068 0 0 1-0.96802 2.623844c3.923028 3.642812 8.024376 7.030882 11.74361 10.877487 40.988001 42.338134 112.570527 48.299099 163.926531 18.876388 10.418951-6.011913 19.233027-14.112711 29.830298-19.640614l0.025474-0.585907c-3.846605-1.45203-6.546872 1.069917-9.170715 3.235224zM337.654518 406.421124c0.229268-2.776689-1.986988-4.967471-3.337121-7.285623-3.184276-5.476955-6.546872-10.852013-9.298086-16.609184-13.654176-28.760381-16.8894-59.227534-15.717587-90.407965a6.266655 6.266655 0 0 0-2.037937-1.808669l-0.815174-0.305691c-0.917072 26.900764 0.815175 53.444889 9.858518 79.122891 4.075873 11.514342 10.087787 22.03519 16.125174 32.479616 1.477504 1.350133 2.878586 2.751215 4.279667 4.126822a8.100798 8.100798 0 0 1 0.942546 0.687803z" fill="#8CE400" p-id="5623"></path><path d="M336.737446 405.733321c-1.426556-1.375607-2.827637-2.776689-4.279667-4.126822l4.254193 7.412995a5.655274 5.655274 0 0 0 0.96802-2.623844l-0.942546-0.662329z" fill="#8CE400" p-id="5624"></path><path d="M655.445267 419.311074c-4.203244 0.382113-4.024925-4.024925-4.916522-6.725191a90.866501 90.866501 0 0 0-18.749017-32.938151c-22.188035-25.24494-76.932109-10.113261-84.676269 23.461745-1.197288 5.222213-0.509484 11.157703-4.483461 15.590216l0.331165 0.127371c0.764226 0.840649 1.299185 1.783195 1.630349 2.878586l0.025475 0.127371c0.687804 0.280216 1.324659 0.585907 1.579401 1.069916 12.405939 26.111064 33.829749 44.73271 53.674157 64.679015 1.197288 1.197288 2.139834 2.572895 3.184276 3.87208l-0.025475 0.331165c3.439018-1.553927 6.368552 0.458536 8.839551 2.521946 6.470449 5.426006 11.590765 3.337121 16.354442-2.190782 14.622196-16.8894 23.843859-36.046005 24.786404-58.692576 0.178319-4.279667-0.738752-8.788602 2.267205-12.53331 0.127371-0.025474 0.229268-0.076423 0.356639-0.076423-0.178319-0.458536-0.229268-0.993494-0.17832-1.502978z m-50.642726-24.480714c-11.514342-0.025474-20.710531-5.655274-20.022728-12.304043 0.662329-6.394026 10.95391-10.240632 22.060665-8.381015 7.056356 1.197288 14.520299 2.343627 15.666638 11.055807 0.687804 5.247687-8.126272 9.705673-17.704575 9.629251z" fill="#FEC400" p-id="5625"></path><path d="M655.215999 420.890475c-3.005957 3.744709-2.088885 8.228169-2.267204 12.53331-0.942546 22.672045-10.138735 41.82865-24.786405 58.692576-4.763677 5.527903-9.883993 7.616788-16.354442 2.190782-2.470998-2.063411-5.400532-4.050399-8.83955-2.521946l-0.025474 0.30569c7.591314 0.840649 11.43792 13.272063 21.06717 7.107304 7.158253-4.559883 11.74361-11.74361 16.303494-18.82544 11.667187-18.086688 16.787503-37.752777 15.335473-59.20206a1.681298 1.681298 0 0 1-0.101897-0.382113 1.27371 1.27371 0 0 1-0.331165 0.101897zM544.556038 421.731124a7.489417 7.489417 0 0 0-1.630349-2.878586l-0.331165-0.127371-0.407587 0.458536 0.560432 2.037937c0.534958 0.280216 1.222762 0.48401 1.808669 0.687803v-0.178319zM631.754253 379.647732c8.661231 9.883993 14.825989 20.634109 18.749018 32.938151 0.891597 2.700266 0.713278 7.107304 4.916522 6.725191-2.114359-6.241181-3.770183-12.737104-6.444975-18.749017-7.463943-16.812978-18.290482-32.173925-37.039499-35.256305-33.600481-5.553377-69.391744 12.839001-69.722908 53.241096 0.127371 0.076423 0.254742 0.076423 0.382113 0.127371 3.973977-4.432512 3.286173-10.368003 4.483461-15.590216 7.769634-33.575007 62.488233-48.681212 84.676268-23.436271z" fill="#FEC400" p-id="5626"></path><path d="M542.237885 418.572322l-0.025474 0.585907a2.369101 2.369101 0 0 0 0.407587-0.458536c-0.152845-0.050948-0.280216-0.050948-0.382113-0.127371z" fill="#FEC400" p-id="5627"></path><path d="M822.224909 313.593109l0.025475-0.815174c-0.382113 0.127371-0.713278 0.305691-0.840649 0.611381-5.910016 10.826539-15.946854 11.386971-26.442229 10.902961-2.547421 17.806472-5.731697 35.434624-14.978834 51.254107-13.730598 23.563643-33.371213 38.032993-61.367368 39.306703v-0.025474a6.827088 6.827088 0 0 1-1.018968 0.050949 9.425457 9.425457 0 0 1-0.331165 1.27371c-7.463943 3.260699-15.055257 1.299185-22.69752 0.815175-12.507836-0.7897-25.219466-3.38807-37.421612 1.961514a11.870981 11.870981 0 0 1-1.706772 0.382113c0.48401 0.382113 0.662329 0.7897 0.560433 1.197288l-0.076423 0.229268c5.502429-0.96802 8.635757 3.20975 12.202146 6.215706 33.906171 28.531113 79.250262 29.320814 113.589495 1.45203 13.272063-10.801064 21.321912-25.576105 27.410248-41.446537 6.292129-16.354442 8.228169-33.804274 12.839001-50.591778 0.229268-0.178319 0.433062-0.407587 0.611381-0.585906-4.457986-7.285624 0.815175-14.825989-0.356639-22.188036z" fill="#88E400" p-id="5628"></path><path d="M821.995642 336.367051c-4.610832 16.787503-6.546872 34.237336-12.839001 50.591778-6.088336 15.895906-14.138186 30.645473-27.410249 41.446537-34.339233 27.868784-79.683324 27.079083-113.589495-1.45203-3.591863-2.980482-6.725191-7.158253-12.202146-6.215706-0.076423 0.280216-0.178319 0.458536-0.280216 0.458535 8.35554 6.037387 16.456339 12.609733 25.143044 18.03574 34.950614 21.933293 84.064888 13.119217 109.462673-15.106206 22.111613-24.582611 29.524607-55.584723 32.759832-87.682225v-0.025474l-0.433061-0.687804a3.617338 3.617338 0 0 1-0.611381 0.636855z" fill="#88E400" p-id="5629"></path><path d="M822.224909 313.593109c1.171814 7.362046-4.101348 14.902412 0.407588 22.188036l0.382113-0.382113c-0.203794-7.846056 3.337121-15.360948 1.961514-23.257953-0.815175 0.280216-1.910566 0.356639-2.700266 0.636856l-0.050949 0.815174z" fill="#88E400" p-id="5630"></path><path d="M822.607023 335.781145l0.433061 0.687803-0.050948-1.069916c-0.127371 0.127371-0.280216 0.229268-0.382113 0.382113zM664.05555 412.99347c-4.457986 0.382113-9.043344-0.331165-8.610283 6.317604a8.788602 8.788602 0 0 0 1.706772-0.382113c12.202146-5.349584 24.913776-2.751215 37.421612-1.961514 7.642263 0.48401 15.233577 2.445524 22.69752-0.815175a9.425457 9.425457 0 0 0 0.331165-1.27371c-17.933843 1.222762-35.638417-3.337121-53.546786-1.885092zM655.445267 419.311074c-0.050948 0.509484 0 1.044443 0.127371 1.502978l0.382113-0.050948 0.076423-0.229268c0.076423-0.407587-0.127371-0.840649-0.585907-1.222762z" fill="#88E400" p-id="5631"></path><path d="M655.929277 420.763104l-0.382113 0.050948 0.101897 0.382113c0.127371 0.025474 0.203794-0.152845 0.280216-0.433061z" fill="#88E400" p-id="5632"></path><path d="M545.829749 459.687694a28.531113 28.531113 0 0 1-0.534959-3.642812c-0.331165 17.347936-0.917072 34.670398 2.318153 51.916437 1.044443 5.578852 2.496472 11.132229 5.171265 16.201597 5.80812 11.081281 15.946854 14.240082 26.951712 8.202695 9.909467-5.375058 14.138186-14.724092 16.991297-24.964725 1.477504-5.043893 1.222762-10.750116 5.171264-14.978834 0.254742-0.152845 0.509484-0.229268 0.738752-0.382113l-0.636855-0.17832c-34.135439 12.456888-48.350047 3.973977-56.170629-32.173925z" fill="#6AB400" p-id="5633"></path><path d="M601.873007 492.396578c-3.948502 4.228719-3.719234 9.934941-5.171264 14.978834-2.853111 10.266106-7.08183 19.61514-16.991297 24.964724-11.004858 6.037387-21.143593 2.878586-26.951713-8.202695a56.756536 56.756536 0 0 1-5.171264-16.201596c-3.235224-17.246039-2.649318-34.568501-2.318153-51.916437-0.560433-6.419501 0.382113-12.966372-2.649318-18.978285-0.050948 10.750116 0 21.474758-0.178319 32.224874-0.254742 16.0997-0.331165 32.122977 4.17777 47.815089 4.687254 16.40539 12.253094 23.00321 25.881796 20.939799 9.50188-1.45203 16.227071-7.132778 21.220015-15.386422 5.680748-9.450931 6.521397-20.251996 9.221664-30.518102a1.885091 1.885091 0 0 1-0.356639-0.101896c-0.203794 0.152845-0.458536 0.229268-0.713278 0.382113z" fill="#6AB400" p-id="5634"></path><path d="M601.974904 491.861619c0.229268 0.076423 0.458536 0.101897 0.636855 0.17832a2.802163 2.802163 0 0 0 0.382113-0.203794l0.025474-0.331165c-0.305691 0.101897-0.687804 0.203794-1.044442 0.356639z" fill="#6AB400" p-id="5635"></path><path d="M602.637233 492.014465l0.331165 0.101896 0.025474-0.30569z" fill="#6AB400" p-id="5636"></path><path d="M547.128933 446.848693c0.534958 9.450931 2.394576 18.596172 5.6298 27.461197 6.037387 16.481813 18.723543 23.028684 35.71484 18.876388 3.923028-0.96802 7.820582-3.158802 11.947404-2.521946-21.092645-19.258502-41.879599-38.822694-55.202609-64.577119 0.305691 3.566389 0.101897 7.132778 0.203793 10.699168v1.681298c2.165308 2.139834 1.553927 5.527903 1.706772 8.381014z" fill="#F89300" p-id="5637"></path><path d="M545.422161 438.518627v-1.681298c-0.101897-3.566389 0.101897-7.132778-0.203793-10.699167a127.396516 127.396516 0 0 1-2.445524-4.941997l-0.127371 15.870432v0a5.731697 5.731697 0 0 1 2.776688 1.45203zM600.420977 490.689806a9.629251 9.629251 0 0 1 2.623844 0.7897c-1.044443-1.299185-1.986988-2.674792-3.184276-3.872079-19.844408-19.946305-41.268218-38.542477-53.674157-64.679015-0.254742-0.48401-0.866123-0.7897-1.579401-1.069917a25.193992 25.193992 0 0 1 0.611381 4.254193c13.323011 25.754425 34.109965 45.318617 55.202609 64.577118z" fill="#F89300" p-id="5638"></path><path d="M544.581512 421.858495c-0.585907-0.203794-1.299185-0.407587-1.808668-0.687804 0.764226 1.681298 1.579401 3.337121 2.445524 4.941997a28.174474 28.174474 0 0 0-0.636856-4.254193zM601.974904 491.861619l-0.382113-0.101897-1.197288-1.069916c-4.126822-0.636855-7.998901 1.553927-11.947404 2.521946-16.991297 4.152296-29.677453-2.394576-35.71484-18.876388a95.502807 95.502807 0 0 1-5.6298-27.461197c-0.152845-2.853111 0.48401-6.241181-1.706772-8.330066 0.101897 5.833594 0 11.692662-0.127371 17.526256 0.127371 1.222762 0.305691 2.445524 0.534958 3.642811 7.846056 36.122427 22.060664 44.605339 56.17063 32.148451z" fill="#F89300" p-id="5639"></path><path d="M545.422161 438.518627a6.368552 6.368552 0 0 0-2.751214-1.477504v0.025474c3.005957 6.011913 2.063411 12.558785 2.649318 18.978285 0.101897-5.833594 0.178319-11.692662 0.101896-17.526255zM601.618265 491.759722l0.382113 0.101897c0.356639-0.127371 0.713278-0.229268 1.044443-0.382113a9.119767 9.119767 0 0 0-2.623844-0.7897l1.197288 1.069916z" fill="#F89300" p-id="5640"></path><path d="M328.381906 294.309133c11.2596-0.458536 19.640615 3.566389 24.098601 13.221115 0.331165-25.754425 6.470449-49.853026 22.264458-71.12399 33.090997-44.605339 90.611759-44.605339 123.651808 0 16.227071 21.907819 22.289932 46.770647 22.264458 73.416668 1.885091-2.623843 2.700266-5.782645 4.024925-8.66123 2.343627-5.043893 6.521397-8.457437 11.972878-6.928985 11.030332 3.107853 21.933293 0 32.836254 0.127371 18.010265 0.229268 35.969582 0.840649 53.903425 2.343627 5.069367 0.407587 9.934941-1.248236 14.95336-1.375607 6.546872-0.203794 12.71163 0.534958 17.500782 5.706223l0.356639 0.560432c4.789151-15.106206 10.317054-29.804824 20.40484-42.465505 30.059566-37.854674 78.766252-34.92514 103.730977 6.4195 10.801064 17.831946 14.189134 37.523509 14.622195 57.92835 9.043344-2.598369 19.003759-3.184276 25.550631-11.616239a2.24173 2.24173 0 0 1 1.757721-0.764226c0.764226-31.817286-0.127371-63.532676-6.444975-94.840478-2.521947-12.253094-6.241181-24.098601-13.19564-34.670397-8.381015-12.813527-20.888851-17.780997-35.612943-14.087238-1.986988 0.509484-3.897554 1.095391-5.833594 1.63035-4.17777 1.069917-8.788602 3.311647-12.125723-1.069917-3.107853-4.152296 1.604875-6.90351 4.075873-10.648219-12.482362 1.910566-21.958768 7.846056-31.588018 13.19564-4.992945 2.776689-9.960415 5.680748-15.004309 8.304592-4.279667 2.24173-9.145241 4.152296-12.915423-0.254742-3.515441-4.152296 0.993494-7.285624 3.286172-11.361497-7.973427 1.018968-14.622196 3.973977-20.939799 7.514891-33.192893 18.698069-66.334839 15.946854-99.451309-0.127371a832.930191 832.930191 0 0 1-34.976088-17.85742c-0.076423 5.426006 3.286173 8.228169 4.610831 11.794558 1.299185 3.515441 3.158802 7.336572-0.891597 9.960416-3.642812 2.343627-6.419501-0.738752-8.712179-3.005957a254.35997 254.35997 0 0 0-52.145705-39.434074 165.174767 165.174767 0 0 0-36.530014-16.0997c-1.986988 3.923028 0.866123 5.6298 1.936039 7.846056 1.27371 2.700266 3.566389 5.298635 0.866123 8.253644-2.72574 2.955008-6.088336 2.267205-9.32356 0.917071-3.107853-1.324659-5.859068-3.286173-8.635756-5.196738-15.666638-10.852013-33.141945-14.46935-51.81454-12.456888-14.825989 1.604875-26.442228 9.425457-35.536521 20.914325-17.042245 21.449283-23.945756 47.025389-29.346288 73.238349-0.891597 4.330615 0.611381 10.215158-5.222213 12.482362 4.075873 6.776139 0.96802 14.010815 0.254742 20.710531-1.477504 13.959866-1.553927 27.894258-1.630349 41.879599l-0.101897 2.521947c6.11381 2.267205 12.431414 3.413544 19.054708 3.158801z" fill="#9BE900" p-id="5641"></path><path d="M316.026915 213.530419c5.400532-26.21296 12.304043-51.789066 29.346288-73.238349 9.094292-11.488868 20.710531-19.283976 35.536521-20.914325 18.647121-2.012462 36.147902 1.604875 51.81454 12.456888 2.751215 1.910566 5.527903 3.87208 8.635756 5.196738 3.235224 1.350133 6.59782 2.063411 9.32356-0.917071 2.700266-2.955008 0.407587-5.553377-0.866123-8.253644-1.069917-2.216256-3.923028-3.923028-1.936039-7.846056a166.346581 166.346581 0 0 1 36.530014 16.0997c19.003759 11.004858 36.504541 23.945756 52.145705 39.434074 2.292679 2.267205 5.069367 5.349584 8.712179 3.005957 4.050399-2.649318 2.190782-6.444975 0.891597-9.960416-1.324659-3.566389-4.687254-6.368552-4.610831-11.794558a881.407609 881.407609 0 0 0 34.950614 17.85742c33.116471 16.074225 66.28389 18.82544 99.451309 0.127371a56.298 56.298 0 0 1 20.939799-7.514892c-2.292679 4.101348-6.801614 7.209201-3.286173 11.361497 3.744709 4.381564 8.635757 2.496472 12.915424 0.254742 5.043893-2.649318 10.011364-5.527903 15.004309-8.304592 9.629251-5.349584 19.105656-11.285074 31.588018-13.195639-2.470998 3.744709-7.183727 6.495923-4.075873 10.648219 3.337121 4.381564 7.947953 2.139834 12.125723 1.069916 1.93604-0.534958 3.846605-1.120865 5.833594-1.630349 14.724092-3.69376 27.231929 1.27371 35.612943 14.087237 6.928985 10.597271 10.673693 22.417303 13.19564 34.670398 6.317604 31.307802 7.209201 63.048666 6.444975 94.840478 0.891597 0 1.93604 0.382113 2.674791 1.044442 0.076423-22.799416 0.815175-45.624307-2.06341-68.296352-2.572895-20.226521-5.14579-40.503991-15.080732-58.89637-10.113261-18.749017-24.735456-24.964724-44.987452-19.30945-4.126822 1.146339-9.833044 6.394026-12.456888 0.96802-2.318153-4.738203 5.451481-6.241181 8.177221-9.680199 0.280216-0.331165-0.127371-1.120865-0.280216-1.986989-15.208102-1.553927-26.69697 7.489417-39.001013 13.883444-5.655274 2.929534-10.902961 6.623294-16.58371 9.425457-2.572895 1.27371-6.292129 2.088885-8.049849-1.222762-1.604875-3.056905 1.171814-4.687254 3.51544-6.241181 2.369101-1.604875 5.476955-2.878586 4.534409-7.744159-9.272612 1.477504-18.137636 3.821131-26.263908 8.533859-33.600481 19.513244-67.200962 16.787503-100.674072-0.229267-10.444425-5.32411-21.321912-9.858519-31.154957-16.405391-2.037937-1.375607-4.814625-3.489967-7.183726-0.636855-1.808669 2.165308 0.050948 4.483461 1.146339 6.470449 1.732246 3.235224 3.948502 6.215707 5.6298 9.50188 1.146339 2.190782 3.668286 4.967471 0.433061 7.08183-2.700266 1.732246-3.999451-1.553927-5.604325-2.980483-6.801614-5.960965-13.221114-12.380465-20.226522-18.035739-20.736006-16.762029-43.458999-30.161463-68.780362-38.79722-2.598369-0.866123-5.451481-2.114359-7.438469 0.433062-1.75772 2.267205 0.942546 4.203244 1.528452 6.292129 1.120865 4.126822 9.272612 6.928985 4.66178 11.081281-4.330615 3.923028-8.737653-2.572895-13.01732-4.738203-1.171814-0.585907-2.24173-1.45203-3.337121-2.216256-20.557686-14.189134-59.813441-19.054708-81.466519 1.986988-12.380465 12.023826-20.022728 26.569599-26.416754 42.108867-7.030882 17.016771-9.043344 35.358201-14.010814 52.935405a7.591314 7.591314 0 0 0 0.356639 0.611381c5.833594-2.267205 4.305141-8.151747 5.196738-12.482362zM309.327198 291.150332l0.101897-2.521947c0.076423-13.98534 0.152845-27.919732 1.630349-41.879599 0.713278-6.725191 3.821131-13.959866-0.254742-20.710531l-0.48401 0.17832c-2.751215 21.169067-4.789151 42.389083-3.897553 63.787417a59.813441 59.813441 0 0 0 2.904059 1.14634z" fill="#9BE900" p-id="5642"></path><path d="M310.448063 225.426874l-0.101896 0.789701 0.48401-0.17832-0.382114-0.611381zM655.82738 301.034325c-4.789151-5.14579-10.95391-5.884542-17.500781-5.706223-5.018419 0.127371-9.883993 1.783195-14.95336 1.375607a760.812707 760.812707 0 0 0-53.903425-2.343627c-10.902961-0.127371-21.805922 2.980482-32.836255-0.127371-5.451481-1.528453-9.629251 1.885091-11.972877 6.928985-1.324659 2.90406-2.139834 6.062862-4.024925 8.66123v2.343628c4.17777-0.687804 4.967471-4.101348 5.604325-7.412995 1.630349-8.431963 6.343078-10.113261 13.959867-7.158253 2.955008 1.146339 5.935491 2.114359 9.654725 1.095391 12.889949-3.515441 26.060115-1.375607 39.102909-0.891597 13.042795 0.48401 26.111064 1.401081 39.026488 1.45203 9.680199 0.025474 18.978285-1.732246 27.97068 2.955008 0.101897-0.178319 0.152845-0.382113 0.229268-0.611381l-0.356639-0.560432zM317.937481 297.646255c12.940898-1.579401 27.231929-3.948502 32.9891 13.348485 0.178319 0.509484 1.044443 0.815175 1.5794 1.171814a142.197031 142.197031 0 0 1 0-4.661781c-4.457986-9.654725-12.813527-13.67965-24.098601-13.221114-6.623294 0.254742-12.940898-0.891597-19.054707-3.158802l-0.025475 0.993495c2.012462 2.547421 3.311647 6.164758 8.610283 5.527903zM307.263787 290.309683a6.572346 6.572346 0 0 1 2.037937 1.808669l0.025474-0.993495a26.595074 26.595074 0 0 1-2.063411-0.815174zM794.942032 323.502576v0.815175c10.495374 0.48401 20.532212-0.076423 26.442229-10.902961 0.127371-0.305691 0.48401-0.48401 0.840648-0.611381l0.025475-1.681298a2.216256 2.216256 0 0 0-1.757721 0.764226c-6.521397 8.431963-16.481813 9.01787-25.550631 11.616239zM822.275858 311.096637l-0.025474 1.681298c0.7897-0.280216 1.885091-0.382113 2.700266-0.636856a4.35609 4.35609 0 0 0-2.674792-1.044442z" fill="#9BE900" p-id="5643"></path><path d="M420.471169 252.786174c0.636855 1.197288 1.222762 2.369101 1.885092 3.515441 5.680748 10.036838 5.859068 20.09915-1.324659 29.193442-6.878036 8.661231-15.870432 10.699168-26.060115 5.553378-6.011913-3.082379-5.196739 2.496472-5.502429 4.96747-2.216256 17.984791 0.993494 34.848717 12.202146 49.496387 16.609184 21.704026 44.044906 23.232478 62.946768 3.719235 18.494275-19.029234 21.678551-53.139199 7.234676-76.779264-12.253094-19.946305-31.588018-27.410248-51.381479-19.666089zM741.955679 369.101409c23.894807-19.003759 28.021629-63.481727 7.998901-86.56136-10.979384-12.737104-24.633559-15.43737-39.58692-7.820582 0.458536 0.866123 0.840649 1.783195 1.401082 2.59837 6.292129 9.221663 7.107304 18.901863 0.713278 28.149-5.960965 8.635757-14.291031 10.597271-23.792911 5.553377-3.515441-1.834143-4.126822 0.636855-4.457986 3.031431-2.267205 17.806472-0.96802 34.874191 10.699167 49.649232 12.558785 15.794009 31.256854 17.908368 47.025389 5.400532z" fill="#3F3F3F" p-id="5644"></path></svg>