<?xml version="1.0" standalone="no"?><!DOCTYPE svg PUBLIC "-//W3C//DTD SVG 1.1//EN" "http://www.w3.org/Graphics/SVG/1.1/DTD/svg11.dtd"><svg t="1739554064953" class="icon" viewBox="0 0 1026 1024" version="1.1" xmlns="http://www.w3.org/2000/svg" p-id="20977" xmlns:xlink="http://www.w3.org/1999/xlink" width="200.390625" height="200"><path d="M588.07232 992c-19.2 19.2-51.2 22.4-67.2 6.4l-16-16 73.6-73.6 16 16c16 16 12.8 48-6.4 67.2z" fill="#FA6161" p-id="20978"></path><path d="M434.47232 979.2c-12.8 0-22.4-3.2-32-12.8-9.6-9.6-12.8-19.2-12.8-32s3.2-22.4 12.8-32l115.2-115.2c9.6-9.6 19.2-12.8 32-12.8s22.4 3.2 32 12.8c16 16 16 44.8 0 60.8l-115.2 115.2c-9.6 12.8-19.2 16-32 16zM309.67232 880c-9.6-9.6-12.8-19.2-12.8-32s3.2-22.4 12.8-32l115.2-115.2c9.6-9.6 19.2-12.8 32-12.8s22.4 3.2 32 12.8c16 16 16 44.8 0 60.8l-115.2 115.2c-9.6 9.6-19.2 12.8-32 12.8-12.8 3.2-25.6-3.2-32-9.6zM213.67232 790.4c-9.6-9.6-12.8-19.2-12.8-32s3.2-22.4 12.8-32l115.2-115.2c9.6-9.6 19.2-12.8 32-12.8s22.4 3.2 32 12.8c9.6 9.6 12.8 19.2 12.8 32s-3.2 22.4-12.8 32l-115.2 115.2c-9.6 9.6-19.2 12.8-32 12.8s-25.6-3.2-32-12.8zM114.47232 700.8c-9.6-9.6-12.8-19.2-12.8-32s3.2-22.4 12.8-32l115.2-115.2c6.4-6.4 19.2-9.6 28.8-9.6 12.8 0 22.4 3.2 32 12.8 9.6 9.6 12.8 19.2 12.8 32s-3.2 22.4-12.8 32L175.27232 704c-9.6 9.6-19.2 12.8-32 12.8-9.6-3.2-19.2-6.4-28.8-16z" fill="#4A90E2" p-id="20979"></path><path d="M978.47232 438.4c-12.8 16-51.2 57.6-73.6 80L674.47232 278.4l-115.2 108.8c-51.2 48-118.4 51.2-118.4 51.2h-9.6c-54.4 0-108.8-41.6-134.4-60.8 51.2-54.4 240-249.6 313.6-310.4 25.6-22.4 83.2-51.2 147.2-51.2 70.4 0 131.2 28.8 185.6 86.4 70.4 73.6 80 150.4 80 201.6 0 60.8-25.6 112-44.8 134.4z" fill="#4A90E2" p-id="20980"></path><path d="M908.07232 668.8c-19.2 19.2-51.2 22.4-67.2 6.4l-153.6-144-12.8 16-12.8 12.8 147.2 147.2c16 16 12.8 48-6.4 67.2-9.6 9.6-22.4 16-35.2 16-12.8 0-22.4-3.2-32-9.6l-150.4-150.4-25.6 25.6 147.2 153.6c6.4 6.4 12.8 19.2 9.6 32 0 12.8-6.4 25.6-16 35.2-9.6 9.6-22.4 16-35.2 16-12.8 0-22.4-3.2-32-9.6l-16-16c28.8-32 28.8-83.2 0-112-16-16-35.2-22.4-57.6-22.4h-16c3.2-22.4-6.4-48-22.4-67.2-16-16-35.2-22.4-57.6-22.4h-16v-9.6c0-22.4-9.6-41.6-22.4-57.6-16-16-35.2-22.4-57.6-22.4-6.4 0-12.8 0-19.2 3.2V544c0-22.4-9.6-41.6-22.4-57.6-16-16-35.2-22.4-57.6-22.4s-41.6 9.6-57.6 22.4l-73.6 73.6 6.4-6.4c-19.2-19.2-76.8-70.4-92.8-99.2 0 0 0-3.2-3.2-3.2C-26.32768 332.8-13.52768 217.6 82.47232 118.4c67.2-70.4 147.2-80 198.4-76.8 70.4 3.2 128 35.2 153.6 57.6 9.6 9.6 25.6 22.4 44.8 44.8-99.2 99.2-224 227.2-230.4 236.8l-12.8 12.8 12.8 12.8c3.2 3.2 83.2 86.4 172.8 86.4h9.6c6.4 0 83.2-6.4 144-60.8l89.6-83.2 128 131.2 118.4 124.8c19.2 12.8 16 48-3.2 64z" fill="#FA6161" p-id="20981"></path></svg>