<?xml version="1.0" standalone="no"?><!DOCTYPE svg PUBLIC "-//W3C//DTD SVG 1.1//EN" "http://www.w3.org/Graphics/SVG/1.1/DTD/svg11.dtd"><svg t="1741996868725" class="icon" viewBox="0 0 1024 1024" version="1.1" xmlns="http://www.w3.org/2000/svg" p-id="4570" xmlns:xlink="http://www.w3.org/1999/xlink" width="200" height="200"><path d="M96.122471 410.207715l240.911073-255.880056s78.683117 21.429955 112.779135 5.117601l61.507168-35.823208 82.009558 81.881618-133.281524 127.940028 343.42302 327.206622s201.825394-418.683742-292.151054-659.850695c0 0 326.662877-28.146806 471.554959 337.761674 0 0 108.333219 205.023895-56.389568 460.264252l97.394347 102.352022-138.399126 122.822427-87.127159-97.234421s-328.645947 222.295799-630.456473-15.352804l-15.384789 10.235203s40.205154 95.635171-66.624769 102.352022c0 0-126.916508-4.477901-71.774356-127.940028a80.634203 80.634203 0 0 1 82.009558-25.588006v-20.470404a226.70973 226.70973 0 0 1-56.357582-76.764017l71.74237-81.881618s222.711604 260.038107 553.564517 112.587225l-333.155833-347.677027-87.127159 92.11682z" fill="#C91116" p-id="4571"></path></svg>