<?xml version="1.0" standalone="no"?><!DOCTYPE svg PUBLIC "-//W3C//DTD SVG 1.1//EN" "http://www.w3.org/Graphics/SVG/1.1/DTD/svg11.dtd"><svg t="1741901702958" class="icon" viewBox="0 0 1024 1024" version="1.1" xmlns="http://www.w3.org/2000/svg" p-id="5361" xmlns:xlink="http://www.w3.org/1999/xlink" width="200" height="200"><path d="M500.243432 415.689032h-35.743838v265.757145h161.633622v-29.521404h-125.889784zM304.423192 651.919612v-94.807289h105.683324v-29.525274h-105.683324v-82.370163h115.011169V415.689032H268.680644v265.755855h158.524341l-0.00387-29.525275zM1005.34947 562.568403c-12.429386-12.946739-30.05811-24.094998-52.839726-33.415102-23.847288-9.325265-38.61057-17.337148-44.291138-24.085967-5.710241-6.728176-8.54988-14.765863-8.549879-24.089837 0-11.388228 3.613734-20.44385 10.878615-27.193959 7.231338-6.733337 17.090728-10.107101 29.523985-10.107101 13.452481 0 23.821484 4.667793 31.082495 13.989188 7.237789 9.323975 10.34191 19.694268 9.325265 31.083786h35.746419c0-18.645369-5.974723-35.987678-17.872565-52.063052-11.923644-16.04957-31.350849-24.087257-58.281614-24.087257-20.738006 0-38.61057 6.750109-53.617693 20.20001-15.031635 13.478285-22.536487 31.083786-22.536486 52.837146 0 15.542538 5.439308 29.020823 16.317923 40.409051 10.878615 11.412741 28.749889 21.758521 53.618982 31.085076 17.605501 7.254561 31.081206 15.290957 40.407761 24.087257 9.322684 8.811782 13.986607 18.4054 13.986607 28.75118 0 12.430676-3.884667 23.069322-11.654001 31.857881-7.769334 8.816942-19.95875 13.208642-36.521803 13.208642-12.433256 0-23.310582-4.127217-32.637137-12.430676-9.321394-8.280237-13.986607-20.206461-13.986607-35.748999v-9.323975h-35.746418v10.878616c0 21.755941 7.237789 39.894278 21.758521 54.395657 14.4988 14.519442 34.70139 21.758521 60.610351 21.758522 25.885738 0 46.355391-6.997819 61.389606-20.988297 15.010993-13.985317 22.533906-32.883557 22.537777-56.724394 0.00129-16.563053-6.213403-31.321175-18.64924-44.283396zM823.002355 408.375124c-0.73668 0.032254-2.211331 0.229648-2.211332 0.229648-24.304004 7.568069-51.995963 10.438671-78.377122 10.869584 4.252362-5.333515 11.468218-12.920936 20.645115-16.805603l-10.34836-1.097925-1.770098-7.868676s-10.815398 5.391572-18.753742 16.45339c-8.378289-10.701864-19.353666-15.658652-19.353666-15.658652l-1.450138 7.940925-10.294174 1.513356c9.005306 3.393117 16.326954 10.298044 20.841219 15.414812-46.710184-1.292739-84.778888-8.903383-84.778888-8.903383-0.692815-0.144498-1.375309-0.305768-2.086186-0.269643a9.118839 9.118839 0 0 0-4.207207 1.275966c-5.94505 3.493749-9.5304 14.137556-8.918864 26.479211 0.503162 10.145806 3.759522 19.131759 8.513755 23.426696 2.212622 2.002326 4.732301 2.997038 7.297136 2.866732 0.786997-0.037415 2.36615-0.312218 2.36615-0.312218 23.013845-7.1707 49.073754-10.129033 74.184107-10.787015v228.307718h35.745128v-227.84197c41.501815 2.050062 73.688686 8.498273 73.688687 8.498273 0.642499 0.121275 1.281127 0.361244 1.942978 0.331571 8.036397-0.427042 13.866622-12.661614 13.118331-27.743566-0.768934-15.386429-7.562908-26.704988-15.792829-26.319231z m-184.886148 48.071301c-0.267063 0.156109-0.509613 0.24384-0.741841 0.250291-0.64766 0.039995-1.366278-0.482519-1.846216-0.917303-2.674498-2.419047-5.582515-8.988533-6.040522-18.200264-0.607665-12.253924 3.460205-19.717491 5.94118-19.829735 2.429368-0.118695 7.281654 7.062327 7.876417 19.13692 0.556058 11.064398-2.705462 18.098342-5.189018 19.560091z m86.485768-11.225668h-10.300625v0.579281c-22.290066 0.514773-45.199409 2.745457-65.910321 7.988661 1.813963-4.759394 2.795773-10.717346 2.471943-17.277801-0.336731-6.730756-1.864279-12.602267-4.136247-17.129433 15.207097 2.60741 44.480791 6.797845 77.950079 7.601613 2.019098 6.510139 1.340475 12.945449-0.074829 18.237679z m101.434832 9.425897c-0.145788 0.08515-33.531216-6.281781-75.990329-8.338294v-1.087603h-9.463311c1.05664-5.502526 1.327573-11.695286 0.121275-18.147368 26.996564-0.303187 55.620018-3.122183 81.267076-10.954735 0.055477 0.154819 1.024386-0.154819 1.38305-0.180622 2.433239-0.121275 7.289395 7.059747 7.878997 19.14466 0.554768 11.064398-2.709333 18.100922-5.196758 19.563962zM0 454.894365l22.768715-4.88454-0.681203-4.838094 6.365641-5.168375 1.63076 0.48897-4.867767 5.432857 0.829571 3.384086c-0.00129 0.00129 5.239333 39.642697 16.12311 53.461583 0 0 11.425643 0.033544 16.316633-10.934092l-22.332642-42.758429-2.03974-3.439563 10.305785-11.232119 0.561219 2.963494-7.079099 9.396224 5.191597-1.114697 62.008883-16.570794 40.809-52.314633 26.428894-37.329442-108.387496 20.276129L0 454.894365z m49.632393 36.715327l-1.922336 1.283707s-5.725723-11.910742-9.797463-25.564488l11.719799 24.280781z m30.574173-104.497669c5.837967-3.901439 12.499054-3.813708 14.884558 0.212876 2.385503 4.018843-0.412851 10.445122-6.244367 14.358173-5.832806 3.902729-12.499054 3.811128-14.881977-0.206425-2.388083-4.024004 0.411561-10.451573 6.241786-14.364624z" fill="#AA6E50" p-id="5362"></path><path d="M167.285807 412.799077l-17.519061-29.526565-40.809 52.315922-62.006302 16.568214 10.42964 17.586149 7.279074 12.268116c2.355829 3.971108 6.532072 6.400476 11.906872 7.466147 0 0 10.298044 0.330281 13.702772 0.100632 11.061818-0.747002 24.013718-6.423699 36.98239-14.648458v206.518233h35.743838V439.279578c2.311964-4.110445 4.47685-8.342164 5.657345-11.292757 2.162305-5.410924 1.246293-10.850232-1.141791-14.878106-0.065798-0.113534-0.15998-0.203845-0.225777-0.309638z" fill="#AA6E50" p-id="5363"></path></svg>