<?xml version="1.0" standalone="no"?><!DOCTYPE svg PUBLIC "-//W3C//DTD SVG 1.1//EN" "http://www.w3.org/Graphics/SVG/1.1/DTD/svg11.dtd"><svg t="1740476585978" class="icon" viewBox="0 0 1024 1024" version="1.1" xmlns="http://www.w3.org/2000/svg" p-id="4610" xmlns:xlink="http://www.w3.org/1999/xlink" width="200" height="200"><path d="M239.9 347.3c0 79.3 64.2 143.5 143.5 143.5S527 426.6 527 347.3s-64.2-143.5-143.5-143.5-143.6 64.3-143.6 143.5z" fill="#FFB74D" p-id="4611"></path><path d="M670.5 672.9s-78.9-169.8-287-169.8-287 169.8-287 169.8v93.3h574v-93.3z" fill="#607D8B" p-id="4612"></path><path d="M206.6 203.7l177.9 72.7 219.3-89.5-219.2-89.6-219.2 89.6 33.6 13.7" fill="#666666" p-id="4613"></path><path d="M594.5 188.9h8.7v88.4h-8.7v-88.4z" fill="#666666" p-id="4614"></path><path d="M582.3 276h33.2v86.1h-33.2V276z" fill="#666666" p-id="4615"></path><path d="M653.2 610.6V577c0-9.5 7.7-17.2 17.2-17.2h69c9.5 0 17.2 7.7 17.2 17.2v33.6h15.1v-41.3c0-11.6-9.9-20.9-22.2-20.9h-88.6c-12.2 0-22.2 9.4-22.2 20.9v41.3h14.5z" fill="#685849" p-id="4616"></path><path d="M889.5 926.7H520.8c-17.6 0-32-14.4-32-32V645.3c0-17.6 14.4-32 32-32h368.7c17.6 0 32 14.4 32 32v249.5c-0.1 17.5-14.5 31.9-32 31.9z" fill="#CCC6AC" p-id="4617"></path><path d="M927.6 719.9c0 11.9-8.9 21.5-19.8 21.5H502.4c-10.9 0-19.8-9.6-19.8-21.5v-87.6c0-11.9 8.9-21.5 19.8-21.5h405.4c10.9 0 19.8 9.6 19.8 21.5v87.6z" fill="#50545F" p-id="4618"></path><path d="M813.2 747.5h40.6v43.8h-40.6z" fill="#937B67" p-id="4619"></path><path d="M594.6 741.6h-35.5V610.2h35.5v131.4zM851 610.8h-35.5v130.6H851V610.8z" fill="#67574A" p-id="4620"></path><path d="M556.4 751.1H597v43.8h-40.6z" fill="#937B67" p-id="4621"></path><path d="M847.7 788.5h-28.4v-35.8h28.4v35.8zM591 752.8h-28.4v35.8H591v-35.8z" fill="#ECD288" p-id="4622"></path><path d="M856.8 752.8h-46.4v-11.1h46.4v11.1zM600 741.6h-46.4v11.1H600v-11.1z" fill="#937B67" p-id="4623"></path></svg>