<?xml version="1.0" standalone="no"?><!DOCTYPE svg PUBLIC "-//W3C//DTD SVG 1.1//EN" "http://www.w3.org/Graphics/SVG/1.1/DTD/svg11.dtd"><svg t="1741039393313" class="icon" viewBox="0 0 1024 1024" version="1.1" xmlns="http://www.w3.org/2000/svg" p-id="6050" xmlns:xlink="http://www.w3.org/1999/xlink" width="200" height="200"><path d="M747.7 763.5l-204.1 45.1c-2.7 0.6-5.5 0.6-8.2 0l-209.9-45.2c-8.8-1.9-15.1-9.7-15.1-18.7V470.3h452.3v274.6c0 8.9-6.2 16.7-15 18.6z" fill="#E0F4F6" p-id="6051"></path><path d="M539.5 818.8c-2 0-4.1-0.2-6.1-0.6L323.5 773c-13.2-2.8-22.8-14.7-22.8-28.2V470.3c0-5.4 4.3-9.7 9.7-9.7h452.3c5.4 0 9.7 4.3 9.7 9.7v274.6c0 13.4-9.5 25.3-22.6 28.2l-204.1 45.1c-2.1 0.4-4.1 0.6-6.2 0.6zM320.1 480v264.8c0 4.4 3.1 8.3 7.5 9.2l209.9 45.2c1.3 0.3 2.7 0.3 4 0l204.1-45.1c4.3-0.9 7.4-4.8 7.4-9.2V480H320.1z m427.6 283.5z" fill="#603813" p-id="6052"></path><path d="M530.7 576.1L214.6 413.6c-13.9-7.1-13.9-26.9 0-34L530.7 217c5.5-2.8 12-2.8 17.5 0l316.2 162.5c13.9 7.1 13.9 26.9 0 34L548.2 576.1c-5.4 2.8-12 2.8-17.5 0z" fill="#F9C933" p-id="6053"></path><path d="M539.5 587.9c-4.5 0-9-1.1-13.2-3.2L210.1 422.2c-9.7-5-15.6-14.8-15.6-25.6 0-10.9 6-20.7 15.6-25.6l316.2-162.5c8.3-4.2 18.1-4.2 26.4 0L868.9 371c9.7 5 15.6 14.8 15.6 25.6 0 10.9-6 20.7-15.6 25.6L552.7 584.7c-4.1 2.1-8.7 3.2-13.2 3.2z m-4.3-20.4c2.7 1.4 5.9 1.4 8.7 0L860 404.9c3.2-1.6 5.1-4.8 5.1-8.4 0-3.6-1.9-6.8-5.1-8.4L543.8 225.6a9.33 9.33 0 0 0-8.6 0L219 388.1c-3.2 1.6-5.1 4.8-5.1 8.4 0 3.6 1.9 6.8 5.1 8.4l316.2 162.6z" fill="#603813" p-id="6054"></path><path d="M149.2 740.7c-0.9 0-1.8-0.1-2.7-0.4-5.1-1.5-8.1-6.8-6.6-12l88-305.8c1.5-5.1 6.8-8.1 12-6.6 5.1 1.5 8.1 6.8 6.6 12l-88 305.8c-1.2 4.2-5.1 7-9.3 7z" fill="#603813" p-id="6055"></path></svg>