<?xml version="1.0" standalone="no"?><!DOCTYPE svg PUBLIC "-//W3C//DTD SVG 1.1//EN" "http://www.w3.org/Graphics/SVG/1.1/DTD/svg11.dtd"><svg t="1739558722794" class="icon" viewBox="0 0 1024 1024" version="1.1" xmlns="http://www.w3.org/2000/svg" p-id="25734" xmlns:xlink="http://www.w3.org/1999/xlink" width="200" height="200"><path d="M286.726 942.076c-112.93 0-204.8-91.874-204.8-204.784 0-112.946 91.87-204.8 204.8-204.8 112.926 0 204.8 91.854 204.8 204.8 0 112.91-91.874 204.784-204.8 204.784z m314.87-501.766c-98.817 0-179.194-80.378-179.194-179.193 0-98.816 80.376-179.193 179.194-179.193 98.817 0 179.21 80.377 179.21 179.193 0 98.815-80.377 179.193-179.21 179.193z m212.49 394.444c-70.587 0-128.012-57.409-128.012-127.99 0-70.587 57.425-127.992 128.011-127.992 70.564 0 127.989 57.406 127.989 127.992 0 70.582-57.425 127.99-127.989 127.99zM255.683 717.537l289.11-439.93 68.462 44.99-289.11 439.93z m539.284 36.672L571.238 277.69l74.154-34.816 223.73 476.519z" fill="#17abe3" p-id="25735" data-spm-anchor-id="a313x.search_index.0.i3.59c13a81AHI7JT" class="selected"></path></svg>