<?xml version="1.0" standalone="no"?><!DOCTYPE svg PUBLIC "-//W3C//DTD SVG 1.1//EN" "http://www.w3.org/Graphics/SVG/1.1/DTD/svg11.dtd"><svg t="1739553737094" class="icon" viewBox="0 0 1258 1024" version="1.1" xmlns="http://www.w3.org/2000/svg" p-id="7568" xmlns:xlink="http://www.w3.org/1999/xlink" width="245.703125" height="200"><path d="M1075.726629 962.735543H91.223771c-27.794286 0-50.263771-22.440229-50.263771-50.234514V200.235886c0-27.794286 22.469486-50.234514 50.234514-50.234515h984.6784c27.794286 0 50.234514 22.469486 50.234515 50.234515v712.440685a50.410057 50.410057 0 0 1-50.3808 50.058972z" fill="#C4F7E0" p-id="7569"></path><path d="M1203.258514 838.4512H218.580114c-27.794286 0-50.234514-22.440229-50.234514-50.234514V75.776c0-27.794286 22.440229-50.234514 50.234514-50.234514h984.6784c27.794286 0 50.234514 22.469486 50.234515 50.234514V788.187429c0 27.618743-22.645029 50.234514-50.234515 50.234514z" fill="#31CA84" p-id="7570"></path><path d="M614.6048 333.531429a128.731429 128.731429 0 1 0 257.462857 0 128.731429 128.731429 0 0 0-257.462857 0z" fill="#FFFFFF" opacity=".503" p-id="7571"></path><path d="M743.336229 485.668571c-151.903086 0-187.245714 77.706971-187.245715 187.245715h374.491429c0-110.240914-34.874514-187.245714-187.245714-187.245715z" fill="#FFFFFF" opacity=".665" p-id="7572"></path><path d="M269.663086 138.678857a27.413943 27.413943 0 1 0 54.857143 0 27.413943 27.413943 0 0 0-54.857143 0zM354.859886 138.678857a27.4432 27.4432 0 1 0 54.857143 0 27.4432 27.4432 0 0 0-54.857143 0zM439.881143 138.678857a27.4432 27.4432 0 1 0 54.857143 0 27.4432 27.4432 0 0 0-54.857143 0z" fill="#FFFFFF" p-id="7573"></path><path d="M0.672914 837.4272a171.446857 171.446857 0 1 0 342.893715 0 171.446857 171.446857 0 0 0-342.893715 0z" fill="#328861" p-id="7574"></path><path d="M274.6368 816.859429c0-9.4208-5.851429-14.218971-15.594057-15.096686-6.173257 0-11.995429-2.925714-15.945143-8.045714-3.949714-5.149257-5.3248-11.819886-3.949714-18.168686 3.774171-17.846857 2.925714-20.392229-12.873143-29.666743l-10.093714-5.851429a20.392229 20.392229 0 0 0-30.017829 2.779429c-11.644343 9.596343-16.7936 9.4208-27.940571 0a20.567771 20.567771 0 0 0-29.988572-3.101257l-16.7936 9.771886c-7.548343 3.598629-11.146971 13.019429-8.250514 21.269942 5.149257 17.846857-2.399086 29.315657-20.392229 31.188115-7.548343 0.877714-12.522057 5.149257-12.873143 12.346514-0.848457 14.043429-0.848457 28.291657 0 42.335086 0 9.069714 5.675886 13.7216 15.096686 14.570057 6.173257 0 11.995429 2.750171 15.945143 7.723886a23.113143 23.113143 0 0 1 4.622629 17.993142c-3.423086 18.695314-3.423086 20.772571 13.370514 30.339658 3.598629 2.048 7.021714 4.476343 10.825143 6.3488 8.572343 6.173257 20.216686 4.622629 27.062857-3.774172 12.873143-11.819886 16.822857-11.644343 30.339657 0 5.3248 3.803429 10.971429 7.197257 16.822857 10.298514 12.170971-8.221257 24.341943-15.447771 35.313372-23.844571a16.852114 16.852114 0 0 0 1.521371-14.043429c-6.144-16.091429 3.803429-30.164114 21.0944-31.890285a11.702857 11.702857 0 0 0 12.346514-11.644343c0.877714-13.897143 1.024-27.940571 0.351086-41.837714zM200.411429 866.391771c-7.548343 8.074971-17.846857 12.522057-28.642743 12.522058-16.296229 0-31.012571-10.4448-37.361372-26.565486a44.821943 44.821943 0 0 1 8.747886-46.811429c11.4688-12.346514 28.964571-15.945143 44.032-9.245257 15.096686 6.670629 25.044114 22.293943 25.044114 39.789714 0.175543 11.293257-4.096 22.235429-11.819885 30.3104z" fill="#FFFFFF" p-id="7575"></path></svg>