<?xml version="1.0" standalone="no"?><!DOCTYPE svg PUBLIC "-//W3C//DTD SVG 1.1//EN" "http://www.w3.org/Graphics/SVG/1.1/DTD/svg11.dtd"><svg t="1745966145806" class="icon" viewBox="0 0 1024 1024" version="1.1" xmlns="http://www.w3.org/2000/svg" p-id="4967" xmlns:xlink="http://www.w3.org/1999/xlink" width="200" height="200"><path d="M169.472 351.232V296.96H34.304V787.968h135.168v-51.2H88.576V351.232zM705.536 351.232V296.96h135.168V787.968h-135.168v-51.2h80.896V351.232zM222.72 701.952h80.896l17.92-189.44 85.504 189.44H471.04l80.896-194.56 21.504 194.56h80.896l-33.28-351.744h-80.896l-101.888 263.68-101.376-263.68H253.44zM905.216 355.328c7.168 7.68 14.848 13.824 28.672 15.36 11.264 1.536 19.456-0.512 23.552-6.144 4.608-5.12-3.072-10.752-17.92-14.848-18.432-5.632-31.232-12.288-37.888-18.944-6.656-7.168-10.24-16.384-10.24-28.672 0-14.336 6.144-26.112 17.92-34.304 11.776-8.192 27.136-12.288 46.592-12.288 19.968 0 35.328 8.192 46.592 18.944l-20.48 27.136c-11.776-6.656-16.384-9.216-20.48-10.24-6.656-2.048-13.824-2.048-17.92-0.512-4.608 1.536-8.192 6.144-5.632 10.752 3.584 5.632 7.68 8.192 19.968 12.288 13.312 4.608 19.456 7.68 26.112 11.264 6.656 3.584 11.776 9.728 15.36 15.872s4.608 13.312 4.608 20.992c0 15.36-6.144 27.136-18.432 35.84-12.288 8.192-28.672 11.264-49.152 11.264-30.208 0-43.008-13.824-53.76-20.992l22.528-32.768z" fill="#82D6FF" p-id="4968" data-spm-anchor-id="a313x.search_index.0.i0.44a93a812x6OdK" class="selected"></path></svg>