<?xml version="1.0" standalone="no"?><!DOCTYPE svg PUBLIC "-//W3C//DTD SVG 1.1//EN" "http://www.w3.org/Graphics/SVG/1.1/DTD/svg11.dtd"><svg t="1741991559583" class="icon" viewBox="0 0 1024 1024" version="1.1" xmlns="http://www.w3.org/2000/svg" p-id="4751" data-spm-anchor-id="a313x.search_index.0.i0.1e6d3a81Z5RSc5" xmlns:xlink="http://www.w3.org/1999/xlink" width="200" height="200"><path d="M369.48 38.48c49.8-11.32 104.32 7.92 138.2 45.68 18.72 20.44 30.76 46.44 35.76 73.64 10 48.04 15.56 96.88 17.48 145.88-0.8 26.24 3.32 54.52-10.12 78.4-13.32 26.16-41.8 43.48-71.04 43.84-45.52-0.24-92.68 3.92-133.96 24.8-67.76 32.4-117.8 99.16-129.2 173.48-15.44 86.08 23.64 178 94.84 228.28 52.36 37.04 117.24 51.96 180.36 56.12 114.72 6.84 231.4-39.04 310.56-122.4 35.48-37.96 43.32-98.4 19.12-144.28-38.16-72.56-99-132.88-171.76-170.64-15.68-8.24-33.16-14.28-45.84-27.2-19.36-18.12-28.52-46.44-23.76-72.52 18.4-85.28 51.28-167.52 97.44-241.6 18.48-30.08 57.88-46.24 91.84-35.6 14.4 4 27 12.56 38.32 22.04 88.36 66.52 152.76 164.2 178.68 271.72 9.48 37.84 13.72 76.84 14.48 115.76 1.24 27.52-5.6 56.24-23.32 77.84-15.4 18.6-47.68 18.24-62.76-0.6-9.04-10-11.36-24.32-8.56-37.24 2.12-8.52 8.24-15.32 10.56-23.72 5.32-123.76-49.84-249-146.28-327.12-6.36-4.68-14.8-8.76-22.64-5.32-11.16 2.72-15.96 13.88-20.68 23.08-24.48 45.48-43.48 93.88-57.04 143.72-2.04 8-5.84 16.88-2.2 25 3.32 9.32 12.64 13.72 20.64 18.28 84.56 43.6 155.4 112.84 201.6 195.96 29.24 48.8 36.24 109.6 20.92 164.16-11.2 40-34.92 75.88-65.84 103.4-73.96 68.48-169.04 113.92-269.08 126.92-75.12 10.68-152.48 1.76-224.12-22.76-69.48-22.92-131.32-69.36-170.88-131.12-47.04-71.72-63.04-162.96-42.28-246.24 18.2-77.88 67.24-147.96 134.24-191.68 40.32-26.76 86.96-43.8 134.92-49.92 17.24-1.32 34.44-3.12 51.6-4.92 12.56-3.44 19.28-17.2 17.88-29.56-1.28-48.52-6.64-97-17.44-144.36-5.56-24.48-27.16-44.52-52.08-47.96-17.84-3.8-35.12 4.08-51.24 10.6-88.96 36.16-163.32 105.76-206.36 191.48-30.6 59.76-45.52 127.4-43.36 194.44 6.88 16.36 13.24 36.24 2.2 52.4-13.72 23.4-50 26.08-66.88 4.8-23.16-31.28-21-72.8-16.96-109.52 11.84-167.56 118.84-324.2 269.96-397.2 23.84-11.36 48.24-22.48 74.08-28.24z" fill="#f4ea2a" p-id="4752" data-spm-anchor-id="a313x.search_index.0.i1.1e6d3a81Z5RSc5" class="selected"></path></svg>