<?xml version="1.0" standalone="no"?><!DOCTYPE svg PUBLIC "-//W3C//DTD SVG 1.1//EN" "http://www.w3.org/Graphics/SVG/1.1/DTD/svg11.dtd"><svg t="1739563954791" class="icon" viewBox="0 0 1032 1024" version="1.1" xmlns="http://www.w3.org/2000/svg" p-id="18063" xmlns:xlink="http://www.w3.org/1999/xlink" width="201.5625" height="200"><path d="M577.084624 439.449841h304.270772l93.513922 144.395172-93.513922 134.334533h-304.270772" fill="#5CE68F" p-id="18064"></path><path d="M881.355396 748.927218h-304.270772c-16.985015 0-30.747673-13.762658-30.747673-30.747672s13.762658-30.747673 30.747673-30.747673h288.212287l72.53581-104.205914-73.19586-113.028445h-287.552237c-16.985015 0-30.747673-13.766758-30.747673-30.747673s13.762658-30.747673 30.747673-30.747673h304.270772a30.747673 30.747673 0 0 1 25.807547 14.033238l93.513922 144.395172a30.747673 30.747673 0 0 1-0.573956 34.281605l-93.513923 134.334533a30.747673 30.747673 0 0 1-25.23359 13.180502z" fill="#6E6E96" p-id="18065"></path><path d="M470.541888 131.161373V47.757286h106.542736v933.806826h-106.542736V409.739389" fill="#FFA607" p-id="18066"></path><path d="M577.084624 1012.311785h-106.546836a30.747673 30.747673 0 0 1-30.747673-30.747673V409.739389a30.747673 30.747673 0 0 1 61.495346 0v541.07705h45.05149V78.504958h-45.05149v52.656415a30.747673 30.747673 0 0 1-61.495346 0V47.757286a30.747673 30.747673 0 0 1 30.747673-30.747673h106.546836a30.747673 30.747673 0 0 1 30.747673 30.747673v933.806826c0 16.985015-13.762658 30.747673-30.747673 30.747673z" fill="#6E6E96" p-id="18067"></path><path d="M557.967771 161.749158H151.200657L57.682634 306.078735l93.518023 134.252539H557.967771" fill="#FFCC71" p-id="18068"></path><path d="M557.967771 471.078947H151.196557a30.743573 30.743573 0 0 1-25.229491-13.172303L32.453144 323.654105a30.747673 30.747673 0 0 1-0.573957-34.293905l93.518022-144.329576a30.747673 30.747673 0 0 1 25.803448-14.029139h406.771214c16.985015 0 30.747673 13.766758 30.747673 30.747673s-13.762658 30.747673-30.747673 30.747673H167.915092L94.723331 305.459682l72.531711 104.123919H557.967771c16.985015 0 30.747673 13.766758 30.747673 30.747673s-13.762658 30.747673-30.747673 30.747673z" fill="#6E6E96" p-id="18069"></path></svg>