<?xml version="1.0" standalone="no"?><!DOCTYPE svg PUBLIC "-//W3C//DTD SVG 1.1//EN" "http://www.w3.org/Graphics/SVG/1.1/DTD/svg11.dtd"><svg t="1739568324189" class="icon" viewBox="0 0 1024 1024" version="1.1" xmlns="http://www.w3.org/2000/svg" p-id="5683" xmlns:xlink="http://www.w3.org/1999/xlink" width="200" height="200"><path d="M512 512m-499.512195 0a499.512195 499.512195 0 1 0 999.02439 0 499.512195 499.512195 0 1 0-999.02439 0Z" fill="#EDF6FD" p-id="5684"></path><path d="M442.76761 774.268878v218.873756a486.649756 486.649756 0 0 1-94.332878-22.890146 466.993951 466.993951 0 0 1-86.528-40.96c7.39278-27.173463 30.195512-58.280585 68.408195-93.321366 38.212683-35.04078 75.688585-55.608195 112.452683-61.702244zM580.058537 774.268878v218.873756a486.649756 486.649756 0 0 0 94.332878-22.890146 466.993951 466.993951 0 0 0 86.540487-40.96c-7.405268-27.173463-30.220488-58.280585-68.420682-93.321366-38.212683-35.04078-75.688585-55.608195-112.452683-61.702244z" fill="#85C0A4" p-id="5685"></path><path d="M442.76761 859.785366c23.26478 15.684683 46.329756 23.527024 69.23239 23.527024 22.890146 0 45.592976-7.842341 68.120976-23.527024v133.369756a421.525854 421.525854 0 0 1-68.682927 5.644488c-22.890146 0-45.780293-1.873171-68.670439-5.656976V859.785366z" fill="#FFFFFF" p-id="5686"></path><path d="M442.76761 859.785366c22.890146 15.859512 45.780293 23.801756 68.682927 23.801756 22.877659 0 45.767805-7.942244 68.670439-23.801756V797.970732c-22.902634 34.01678-45.79278 51.012683-68.682927 51.012683-22.890146 0-45.780293-16.995902-68.670439-51.000195v61.802146z" fill="#ACD9C4" p-id="5687"></path><path d="M443.879024 732.672h136.241952v56.195122a68.120976 68.120976 0 1 1-136.241952 0v-56.195122z" fill="#FEE4DA" p-id="5688"></path><path d="M443.879024 745.159805h136.241952v27.623024a222.033171 222.033171 0 0 1-68.120976 10.914342 222.033171 222.033171 0 0 1-68.120976-10.914342v-27.623024z" fill="#EABAA5" p-id="5689"></path><path d="M249.756098 454.531122a305.95122 262.243902 90 1 0 524.487804 0 305.95122 262.243902 90 1 0-524.487804 0Z" fill="#FFE5DA" p-id="5690"></path><path d="M631.957854 278.265756C515.98361 337.582829 305.002146 417.841951 289.841951 609.005268l13.336976 28.547122c-6.76839 15.859512-12.762537 24.950634-17.982439 27.273366-6.830829-69.057561-36.414439-127.875122-65.286244-227.55278C191.063415 337.620293 236.31922 86.840195 491.907122 75.301463 747.52 63.762732 857.749854 323.758829 788.517463 473.262829c-28.322341 70.656-39.399024 123.879024-33.242536 159.656586-10.86439-16.408976-17.233171-25.899707-19.106342-28.472195l-8.679024 28.472195c-5.544585-156.38478-37.388488-274.606829-95.531707-354.653659z" fill="#2B335A" p-id="5691"></path><path d="M256.836683 453.906732C233.884098 466.54439 224.530732 484.901463 228.776585 508.977951c2.747317 15.572293 19.268683 33.779512 42.583415 36.589269-8.429268-36.963902-13.274537-67.509073-14.523317-91.660488zM766.289171 453.906732c22.940098 12.637659 32.293463 30.994732 28.060097 55.071219-2.747317 15.572293-19.268683 33.779512-42.583414 36.589269 8.41678-36.963902 13.262049-67.509073 14.523317-91.660488z" fill="#F4A68F" p-id="5692"></path><path d="M337.170732 581.394732a37.463415 20.717268 0 1 0 74.926829 0 37.463415 20.717268 0 1 0-74.926829 0Z" fill="#FFA6A6" p-id="5693"></path><path d="M624.390244 581.394732a37.463415 20.717268 0 1 0 74.926829 0 37.463415 20.717268 0 1 0-74.926829 0Z" fill="#FFA6A6" p-id="5694"></path><path d="M374.634146 476.38478a34.341463 28.097561 90 1 0 56.195122 0 34.341463 28.097561 90 1 0-56.195122 0Z" fill="#2F3241" p-id="5695"></path><path d="M593.170732 476.38478a34.341463 28.097561 90 1 0 56.195122 0 34.341463 28.097561 90 1 0-56.195122 0Z" fill="#2F3241" p-id="5696"></path><path d="M462.04878 623.116488c39.64878 21.066927 75.588683 21.066927 107.819708 0-17.907512 27.198439-36.089756 40.697756-54.546732 40.510439-18.456976-0.187317-36.214634-13.699122-53.272976-40.510439z" fill="#F57272" p-id="5697"></path><path d="M474.536585 485.750634c10.402341-8.316878 20.817171-12.487805 31.219513-12.487805s20.817171 4.170927 31.219512 12.487805v12.487805c-10.402341-8.316878-20.817171-12.487805-31.219512-12.487805s-20.817171 4.170927-31.219513 12.487805v-12.487805z" fill="#2B335A" p-id="5698"></path><path d="M618.146341 566.921366a87.414634 87.414634 0 1 1 0-174.829268 87.414634 87.414634 0 0 1 0 174.829268z m0-12.487805a74.926829 74.926829 0 1 0 0-149.853659 74.926829 74.926829 0 0 0 0 149.853659zM393.365854 566.921366a87.414634 87.414634 0 1 1 0-174.829268 87.414634 87.414634 0 0 1 0 174.829268z m0-12.487805a74.926829 74.926829 0 1 0 0-149.853659 74.926829 74.926829 0 0 0 0 149.853659z" fill="#2B335A" p-id="5699"></path></svg>