<?xml version="1.0" standalone="no"?><!DOCTYPE svg PUBLIC "-//W3C//DTD SVG 1.1//EN" "http://www.w3.org/Graphics/SVG/1.1/DTD/svg11.dtd"><svg t="1741901741852" class="icon" viewBox="0 0 1024 1024" version="1.1" xmlns="http://www.w3.org/2000/svg" p-id="6400" xmlns:xlink="http://www.w3.org/1999/xlink" width="200" height="200"><path d="M512 512m-317.793103 0a317.793103 317.793103 0 1 0 635.586206 0 317.793103 317.793103 0 1 0-635.586206 0Z" fill="#F37171" p-id="6401"></path><path d="M512 35.310345A476.689655 476.689655 0 1 1 35.310345 512 476.689655 476.689655 0 0 1 512 35.310345m0-35.310345a512 512 0 1 0 512 512A512 512 0 0 0 512 0z" fill="#333030" p-id="6402"></path><path d="M182.024828 442.438621l-30.72 174.433103H112.110345l30.72-174.433103H85.804138l6.17931-35.310345H247.172414l-6.355862 35.310345zM393.710345 592.154483a118.642759 118.642759 0 0 1-40.606897 24.187586 118.995862 118.995862 0 0 1-37.605517 5.826207 73.092414 73.092414 0 0 1-66.206897-32.308966 99.222069 99.222069 0 0 1-13.594482-77.85931 148.303448 148.303448 0 0 1 13.417931-40.783448 121.82069 121.82069 0 0 1 106.813793-69.737931 79.977931 79.977931 0 0 1 67.795862 33.544827 98.515862 98.515862 0 0 1 13.241379 76.976552 142.124138 142.124138 0 0 1-43.255172 80.154483z m0-126.764138a44.667586 44.667586 0 0 0-43.784828-27.718621 65.50069 65.50069 0 0 0-27.895172 6.355862 88.275862 88.275862 0 0 0-45.02069 66.736552c-1.412414 8.121379-7.944828 46.786207 17.655173 66.030345a49.434483 49.434483 0 0 0 29.307586 8.827586 61.793103 61.793103 0 0 0 24.893793-4.943448 84.215172 84.215172 0 0 0 48.022069-64.44138 85.451034 85.451034 0 0 0-3.707586-50.846896zM455.326897 616.871724l36.89931-209.743448h149.186207l-6.179311 35.310345h-110.521379l-8.651034 49.257931H617.931034l-6.002758 33.897931h-101.870345l-9.886897 56.143448H617.931034l-6.17931 35.310345zM711.68 442.262069l-9.357241 52.965517h88.275862l-6.002759 33.544828h-88.275862l-15.713103 88.275862h-38.84138l36.899311-209.743448h138.769655l-6.179311 35.310344zM809.136552 616.871724l37.075862-209.743448h39.547586l-30.72 174.08h83.155862l-6.355862 35.310345z" p-id="6403"></path></svg>