<?xml version="1.0" standalone="no"?><!DOCTYPE svg PUBLIC "-//W3C//DTD SVG 1.1//EN" "http://www.w3.org/Graphics/SVG/1.1/DTD/svg11.dtd"><svg t="1739753086570" class="icon" viewBox="0 0 1024 1024" version="1.1" xmlns="http://www.w3.org/2000/svg" p-id="6079" xmlns:xlink="http://www.w3.org/1999/xlink" width="200" height="200"><path d="M877.652874 975.235687h48.782376v48.764313h-48.782376zM877.652874 926.474986h48.782376v48.760701h-48.782376zM828.870499 975.235687h48.782375v48.764313h-48.782375z" p-id="6080"></path><path d="M828.870499 926.474986h48.782375v48.760701h-48.782375z" fill="#02A796" p-id="6081"></path><path d="M828.870499 877.714286h48.782375v48.7607h-48.782375z" p-id="6082"></path><path d="M731.305749 682.664258h48.782375v48.764313h-48.782375zM731.305749 633.903558h48.782375v48.7607h-48.782375zM731.305749 585.142857h48.782375v48.760701h-48.782375zM731.305749 731.428571h48.782375v48.760701h-48.782375z" fill="#EAD5B6" p-id="6083"></path><path d="M731.305749 780.189272h48.782375v48.760701h-48.782375z" p-id="6084"></path><path d="M682.523373 682.664258h48.782376v48.764313h-48.782376zM682.523373 536.378544h48.782376v48.764313h-48.782376zM682.523373 633.903558h48.782376v48.7607h-48.782376zM682.523373 585.142857h48.782376v48.760701h-48.782376zM682.523373 731.428571h48.782376v48.760701h-48.782376zM682.523373 780.189272h48.782376v48.760701h-48.782376zM633.740998 585.142857h48.782375v48.760701h-48.782375zM633.740998 536.378544h48.782375v48.764313h-48.782375zM633.740998 731.428571h48.782375v48.760701h-48.782375zM633.740998 682.664258h48.782375v48.764313h-48.782375zM633.740998 780.189272h48.782375v48.760701h-48.782375zM633.740998 633.903558h48.782375v48.7607h-48.782375zM389.829122 585.142857h48.782375v48.760701h-48.782375z" fill="#EAD5B6" p-id="6085"></path><path d="M389.829122 877.714286h48.782375v48.7607h-48.782375z" p-id="6086"></path><path d="M389.829122 780.189272h48.782375v48.760701h-48.782375zM389.829122 633.903558h48.782375v48.7607h-48.782375zM389.829122 682.664258h48.782375v48.764313h-48.782375zM389.829122 731.428571h48.782375v48.760701h-48.782375z" fill="#EAD5B6" p-id="6087"></path><path d="M438.611497 731.428571h48.782375v48.760701h-48.782375zM438.611497 926.474986h48.782375v48.760701h-48.782375zM438.611497 633.903558h48.782375v48.7607h-48.782375zM438.611497 877.714286h48.782375v48.7607h-48.782375zM438.611497 682.664258h48.782375v48.764313h-48.782375zM438.611497 828.949973h48.782375v48.764313h-48.782375zM438.611497 585.142857h48.782375v48.760701h-48.782375zM438.611497 780.189272h48.782375v48.760701h-48.782375zM536.176248 682.664258h48.782375v48.764313h-48.782375zM536.176248 828.949973h48.782375v48.764313h-48.782375z" fill="#814E23" p-id="6088"></path><path d="M584.958623 780.189272h48.782375v48.760701h-48.782375z" p-id="6089"></path><path d="M584.958623 731.428571h48.782375v48.760701h-48.782375z" fill="#FFFFFF" p-id="6090"></path><path d="M536.176248 780.189272h48.782375v48.760701h-48.782375zM536.176248 731.428571h48.782375v48.760701h-48.782375zM536.176248 926.474986h48.782375v48.760701h-48.782375zM536.176248 877.714286h48.782375v48.7607h-48.782375zM584.958623 682.664258h48.782375v48.764313h-48.782375zM584.958623 585.142857h48.782375v48.760701h-48.782375zM536.176248 585.142857h48.782375v48.760701h-48.782375zM584.958623 633.903558h48.782375v48.7607h-48.782375zM536.176248 633.903558h48.782375v48.7607h-48.782375zM487.393872 877.714286h48.782376v48.7607h-48.782376zM487.393872 633.903558h48.782376v48.7607h-48.782376zM487.393872 828.949973h48.782376v48.764313h-48.782376zM487.393872 926.474986h48.782376v48.760701h-48.782376zM487.393872 780.189272h48.782376v48.760701h-48.782376zM487.393872 682.664258h48.782376v48.764313h-48.782376zM487.393872 585.142857h48.782376v48.760701h-48.782376zM487.393872 731.428571h48.782376v48.760701h-48.782376z" fill="#814E23" p-id="6091"></path><path d="M341.046747 780.189272h48.782375v48.760701H341.046747zM292.264371 780.189272h48.782376v48.760701H292.264371zM243.481996 780.189272h48.782375v48.760701H243.481996z" fill="#EBD6B7" p-id="6092"></path><path d="M341.046747 731.428571h48.782375v48.760701H341.046747z" fill="#8AC6F8" p-id="6093"></path><path d="M292.264371 731.428571h48.782376v48.760701H292.264371z" fill="#814E23" p-id="6094"></path><path d="M243.481996 731.428571h48.782375v48.760701H243.481996zM341.046747 536.378544h48.782375v48.764313H341.046747z" fill="#8AC6F8" p-id="6095"></path><path d="M292.264371 536.378544h48.782376v48.764313H292.264371z" fill="#814E23" p-id="6096"></path><path d="M243.481996 536.378544h48.782375v48.764313H243.481996z" fill="#8AC6F8" p-id="6097"></path><path d="M487.393872 438.857143h48.782376v48.7607h-48.782376zM536.176248 438.857143h48.782375v48.7607h-48.782375zM438.611497 438.857143h48.782375v48.7607h-48.782375zM389.829122 438.857143h48.782375v48.7607h-48.782375zM536.176248 341.332129h48.782375v48.764313h-48.782375zM487.393872 341.332129h48.782376v48.764313h-48.782376zM487.393872 390.096442h48.782376v48.760701h-48.782376zM536.176248 390.096442h48.782375v48.760701h-48.782375zM389.829122 390.096442h48.782375v48.760701h-48.782375zM438.611497 390.096442h48.782375v48.760701h-48.782375z" fill="#EBD6B7" p-id="6098"></path><path d="M341.046747 682.664258h48.782375v48.764313H341.046747z" fill="#8AC6F8" p-id="6099"></path><path d="M341.046747 633.903558h48.782375v48.7607H341.046747z" fill="#814E23" p-id="6100"></path><path d="M341.046747 585.142857h48.782375v48.760701H341.046747z" fill="#FFFFFF" p-id="6101"></path><path d="M243.481996 585.142857h48.782375v48.760701H243.481996z" fill="#8AC6F8" p-id="6102"></path><path d="M292.264371 682.664258h48.782376v48.764313H292.264371zM292.264371 633.903558h48.782376v48.7607H292.264371zM292.264371 585.142857h48.782376v48.760701H292.264371zM243.481996 633.903558h48.782375v48.7607H243.481996z" fill="#814E23" p-id="6103"></path><path d="M243.481996 682.664258h48.782375v48.764313H243.481996z" fill="#8AC6F8" p-id="6104"></path><path d="M731.305749 877.714286h48.782375v48.7607h-48.782375zM682.523373 926.474986h48.782376v48.760701h-48.782376zM731.305749 926.474986h48.782375v48.760701h-48.782375zM633.740998 926.474986h48.782375v48.760701h-48.782375z" fill="#02A796" p-id="6105"></path><path d="M584.958623 926.474986h48.782375v48.760701h-48.782375z" fill="#814E23" p-id="6106"></path><path d="M389.829122 926.474986h48.782375v48.760701h-48.782375zM341.046747 877.714286h48.782375v48.7607H341.046747zM243.481996 877.714286h48.782375v48.7607H243.481996zM292.264371 877.714286h48.782376v48.7607H292.264371zM341.046747 926.474986h48.782375v48.760701H341.046747zM292.264371 926.474986h48.782376v48.760701H292.264371zM243.481996 926.474986h48.782375v48.760701H243.481996zM194.699621 926.474986h48.782375v48.760701H194.699621zM97.13487 926.474986h48.782376v48.760701H97.13487zM145.917246 926.474986h48.782375v48.760701H145.917246zM194.699621 877.714286h48.782375v48.7607H194.699621zM97.13487 877.714286h48.782376v48.7607H97.13487zM145.917246 877.714286h48.782375v48.7607H145.917246zM194.699621 828.949973h48.782375v48.764313H194.699621zM145.917246 828.949973h48.782375v48.764313H145.917246zM682.523373 877.714286h48.782376v48.7607h-48.782376z" fill="#02A796" p-id="6107"></path><path d="M633.740998 877.714286h48.782375v48.7607h-48.782375z" p-id="6108"></path><path d="M584.958623 877.714286h48.782375v48.7607h-48.782375z" fill="#814E23" p-id="6109"></path><path d="M682.523373 828.949973h48.782376v48.764313h-48.782376z" p-id="6110"></path><path d="M731.305749 828.949973h48.782375v48.764313h-48.782375z" fill="#02A796" p-id="6111"></path><path d="M633.740998 828.949973h48.782375v48.764313h-48.782375z" fill="#EAD5B6" p-id="6112"></path><path d="M584.958623 828.949973h48.782375v48.764313h-48.782375z" fill="#814E23" p-id="6113"></path><path d="M341.046747 828.949973h48.782375v48.764313H341.046747z" p-id="6114"></path><path d="M389.829122 828.949973h48.782375v48.764313h-48.782375z" fill="#EAD5B6" p-id="6115"></path><path d="M243.481996 828.949973h48.782375v48.764313H243.481996zM292.264371 828.949973h48.782376v48.764313H292.264371z" p-id="6116"></path><path d="M194.699621 682.664258h48.782375v48.764313H194.699621z" fill="#EBD6B7" p-id="6117"></path><path d="M194.699621 780.189272h48.782375v48.760701H194.699621z" p-id="6118"></path><path d="M194.699621 731.428571h48.782375v48.760701H194.699621zM194.699621 585.142857h48.782375v48.760701H194.699621zM194.699621 633.903558h48.782375v48.7607H194.699621zM731.305749 536.378544h48.782375v48.764313h-48.782375z" fill="#EBD6B7" p-id="6119"></path><path d="M536.176248 536.378544h48.782375v48.764313h-48.782375z" fill="#814E23" p-id="6120"></path><path d="M584.958623 536.378544h48.782375v48.764313h-48.782375zM438.611497 536.378544h48.782375v48.764313h-48.782375z" fill="#EBD6B7" p-id="6121"></path><path d="M487.393872 536.378544h48.782376v48.764313h-48.782376z" fill="#814E23" p-id="6122"></path><path d="M389.829122 536.378544h48.782375v48.764313h-48.782375zM194.699621 536.378544h48.782375v48.764313H194.699621zM731.305749 487.617843h48.782375v48.760701h-48.782375zM633.740998 487.617843h48.782375v48.760701h-48.782375zM682.523373 487.617843h48.782376v48.760701h-48.782376zM487.393872 487.617843h48.782376v48.760701h-48.782376zM584.958623 487.617843h48.782375v48.760701h-48.782375zM536.176248 487.617843h48.782375v48.760701h-48.782375zM341.046747 487.617843h48.782375v48.760701H341.046747zM438.611497 487.617843h48.782375v48.760701h-48.782375zM389.829122 487.617843h48.782375v48.760701h-48.782375zM292.264371 487.617843h48.782376v48.760701H292.264371zM243.481996 487.617843h48.782375v48.760701H243.481996zM194.699621 487.617843h48.782375v48.760701H194.699621zM682.523373 438.857143h48.782376v48.7607h-48.782376z" fill="#EBD6B7" p-id="6123"></path><path d="M731.305749 438.857143h48.782375v48.7607h-48.782375z" p-id="6124"></path><path d="M633.740998 438.857143h48.782375v48.7607h-48.782375zM584.958623 438.857143h48.782375v48.7607h-48.782375z" fill="#EBD6B7" p-id="6125"></path><path d="M682.523373 390.096442h48.782376v48.760701h-48.782376z" p-id="6126"></path><path d="M633.740998 390.096442h48.782375v48.760701h-48.782375zM584.958623 390.096442h48.782375v48.760701h-48.782375zM584.958623 341.332129h48.782375v48.764313h-48.782375z" fill="#EBD6B7" p-id="6127"></path><path d="M633.740998 341.332129h48.782375v48.764313h-48.782375z" p-id="6128"></path><path d="M438.611497 341.332129h48.782375v48.764313h-48.782375z" fill="#EBD6B7" p-id="6129"></path><path d="M584.958623 292.571429h48.782375v48.7607h-48.782375z" p-id="6130"></path><path d="M536.176248 292.571429h48.782375v48.7607h-48.782375zM438.611497 292.571429h48.782375v48.7607h-48.782375zM487.393872 292.571429h48.782376v48.7607h-48.782376z" fill="#EBD6B7" p-id="6131"></path><path d="M536.176248 243.810728h48.782375V292.571429h-48.782375zM438.611497 243.810728h48.782375V292.571429h-48.782375zM487.393872 243.810728h48.782376V292.571429h-48.782376zM389.829122 292.571429h48.782375v48.7607h-48.782375zM341.046747 292.571429h48.782375v48.7607H341.046747z" p-id="6132"></path><path d="M389.829122 341.332129h48.782375v48.764313h-48.782375z" fill="#EBD6B7" p-id="6133"></path><path d="M341.046747 341.332129h48.782375v48.764313H341.046747z" p-id="6134"></path><path d="M243.481996 390.096442h48.782375v48.760701H243.481996z" fill="#FFFFFF" p-id="6135"></path><path d="M341.046747 390.096442h48.782375v48.760701H341.046747z" fill="#EBD6B7" p-id="6136"></path><path d="M292.264371 390.096442h48.782376v48.760701H292.264371z" p-id="6137"></path><path d="M341.046747 438.857143h48.782375v48.7607H341.046747z" fill="#EBD6B7" p-id="6138"></path><path d="M243.481996 438.857143h48.782375v48.7607H243.481996z" p-id="6139"></path><path d="M292.264371 438.857143h48.782376v48.7607H292.264371z" fill="#FFFFFF" p-id="6140"></path><path d="M194.699621 438.857143h48.782375v48.7607H194.699621zM877.652874 390.096442h48.782376v48.760701h-48.782376zM877.652874 341.332129h48.782376v48.764313h-48.782376zM828.870499 438.857143h48.782375v48.7607h-48.782375z" p-id="6141"></path><path d="M828.870499 390.096442h48.782375v48.760701h-48.782375z" fill="#CB453C" p-id="6142"></path><path d="M828.870499 341.332129h48.782375v48.764313h-48.782375zM780.088124 975.235687h48.782375v48.764313h-48.782375zM780.088124 926.474986h48.782375v48.760701h-48.782375z" p-id="6143"></path><path d="M780.088124 877.714286h48.782375v48.7607h-48.782375z" fill="#02A796" p-id="6144"></path><path d="M780.088124 828.949973h48.782375v48.764313h-48.782375zM780.088124 780.189272h48.782375v48.760701h-48.782375zM780.088124 731.428571h48.782375v48.760701h-48.782375zM780.088124 682.664258h48.782375v48.764313h-48.782375zM780.088124 633.903558h48.782375v48.7607h-48.782375zM780.088124 585.142857h48.782375v48.760701h-48.782375zM780.088124 536.378544h48.782375v48.764313h-48.782375zM780.088124 487.617843h48.782375v48.760701h-48.782375zM780.088124 438.857143h48.782375v48.7607h-48.782375z" p-id="6145"></path><path d="M780.088124 390.096442h48.782375v48.760701h-48.782375zM780.088124 341.332129h48.782375v48.764313h-48.782375z" fill="#CB453C" p-id="6146"></path><path d="M780.088124 292.571429h48.782375v48.7607h-48.782375zM731.305749 975.235687h48.782375v48.764313h-48.782375z" p-id="6147"></path><path d="M731.305749 390.096442h48.782375v48.760701h-48.782375zM731.305749 341.332129h48.782375v48.764313h-48.782375zM731.305749 292.571429h48.782375v48.7607h-48.782375z" fill="#CB453C" p-id="6148"></path><path d="M731.305749 243.810728h48.782375V292.571429h-48.782375zM682.523373 975.235687h48.782376v48.764313h-48.782376z" p-id="6149"></path><path d="M682.523373 341.332129h48.782376v48.764313h-48.782376zM682.523373 292.571429h48.782376v48.7607h-48.782376zM682.523373 243.810728h48.782376V292.571429h-48.782376z" fill="#CB453C" p-id="6150"></path><path d="M682.523373 195.046415h48.782376v48.764313h-48.782376zM633.740998 975.235687h48.782375v48.764313h-48.782375z" p-id="6151"></path><path d="M633.740998 292.571429h48.782375v48.7607h-48.782375zM633.740998 243.810728h48.782375V292.571429h-48.782375zM633.740998 195.046415h48.782375v48.764313h-48.782375z" fill="#CB453C" p-id="6152"></path><path d="M633.740998 146.285714h48.782375v48.760701h-48.782375zM584.958623 975.235687h48.782375v48.764313h-48.782375z" p-id="6153"></path><path d="M584.958623 243.810728h48.782375V292.571429h-48.782375zM584.958623 195.046415h48.782375v48.764313h-48.782375zM584.958623 146.285714h48.782375v48.760701h-48.782375z" fill="#CB453C" p-id="6154"></path><path d="M584.958623 97.525014h48.782375v48.7607h-48.782375zM536.176248 975.235687h48.782375v48.764313h-48.782375z" p-id="6155"></path><path d="M536.176248 195.046415h48.782375v48.764313h-48.782375zM536.176248 146.285714h48.782375v48.760701h-48.782375z" fill="#CB453C" p-id="6156"></path><path d="M536.176248 97.525014h48.782375v48.7607h-48.782375z" fill="#CB453C" p-id="6157"></path><path d="M536.176248 48.760701h48.782375v48.764313h-48.782375zM487.393872 975.235687h48.782376v48.764313h-48.782376z" p-id="6158"></path><path d="M487.393872 195.046415h48.782376v48.764313h-48.782376zM487.393872 146.285714h48.782376v48.760701h-48.782376z" fill="#CB453C" p-id="6159"></path><path d="M487.393872 97.525014h48.782376v48.7607h-48.782376zM487.393872 48.760701h48.782376v48.764313h-48.782376z" fill="#CB453C" p-id="6160"></path><path d="M487.393872 0h48.782376v48.760701h-48.782376zM438.611497 975.235687h48.782375v48.764313h-48.782375z" p-id="6161"></path><path d="M438.611497 195.046415h48.782375v48.764313h-48.782375zM438.611497 146.285714h48.782375v48.760701h-48.782375z" fill="#CB453C" p-id="6162"></path><path d="M438.611497 97.525014h48.782375v48.7607h-48.782375zM438.611497 48.760701h48.782375v48.764313h-48.782375z" fill="#CB453C" p-id="6163"></path><path d="M438.611497 0h48.782375v48.760701h-48.782375zM389.829122 975.235687h48.782375v48.764313h-48.782375z" p-id="6164"></path><path d="M389.829122 243.810728h48.782375V292.571429h-48.782375zM389.829122 195.046415h48.782375v48.764313h-48.782375zM389.829122 146.285714h48.782375v48.760701h-48.782375z" fill="#CB453C" p-id="6165"></path><path d="M389.829122 97.525014h48.782375v48.7607h-48.782375z" fill="#CB453C" p-id="6166"></path><path d="M389.829122 48.760701h48.782375v48.764313h-48.782375zM341.046747 975.235687h48.782375v48.764313H341.046747z" p-id="6167"></path><path d="M341.046747 243.810728h48.782375V292.571429H341.046747zM341.046747 195.046415h48.782375v48.764313H341.046747zM341.046747 146.285714h48.782375v48.760701H341.046747z" fill="#CB453C" p-id="6168"></path><path d="M341.046747 97.525014h48.782375v48.7607H341.046747z" p-id="6169"></path><path d="M341.046747 48.760701h48.782375v48.764313H341.046747z" fill="#CB453C" p-id="6170"></path><path d="M341.046747 0h48.782375v48.760701H341.046747zM292.264371 975.235687h48.782376v48.764313H292.264371z" p-id="6171"></path><path d="M292.264371 341.332129h48.782376v48.764313H292.264371zM292.264371 292.571429h48.782376v48.7607H292.264371zM292.264371 243.810728h48.782376V292.571429H292.264371zM292.264371 195.046415h48.782376v48.764313H292.264371zM292.264371 146.285714h48.782376v48.760701H292.264371z" fill="#CB453C" p-id="6172"></path><path d="M292.264371 97.525014h48.782376v48.7607H292.264371zM292.264371 48.760701h48.782376v48.764313H292.264371z" fill="#CB453C" p-id="6173"></path><path d="M292.264371 0h48.782376v48.760701H292.264371zM243.481996 975.235687h48.782375v48.764313H243.481996z" p-id="6174"></path><path d="M243.481996 341.332129h48.782375v48.764313H243.481996zM243.481996 292.571429h48.782375v48.7607H243.481996zM243.481996 243.810728h48.782375V292.571429H243.481996zM243.481996 195.046415h48.782375v48.764313H243.481996zM243.481996 146.285714h48.782375v48.760701H243.481996z" fill="#CB453C" p-id="6175"></path><path d="M243.481996 97.525014h48.782375v48.7607H243.481996zM243.481996 48.760701h48.782375v48.764313H243.481996z" fill="#CB453C" p-id="6176"></path><path d="M243.481996 0h48.782375v48.760701H243.481996zM194.699621 975.235687h48.782375v48.764313H194.699621z" p-id="6177"></path><path d="M194.699621 390.096442h48.782375v48.760701H194.699621zM194.699621 341.332129h48.782375v48.764313H194.699621zM194.699621 292.571429h48.782375v48.7607H194.699621zM194.699621 243.810728h48.782375V292.571429H194.699621z" fill="#CB453C" p-id="6178"></path><path d="M194.699621 195.046415h48.782375v48.764313H194.699621zM194.699621 146.285714h48.782375v48.760701H194.699621z" p-id="6179"></path><path d="M194.699621 97.525014h48.782375v48.7607H194.699621z" p-id="6180"></path><path d="M194.699621 48.760701h48.782375v48.764313H194.699621z" fill="#CB453C" p-id="6181"></path><path d="M194.699621 0h48.782375v48.760701H194.699621zM145.917246 975.235687h48.782375v48.764313H145.917246zM145.917246 780.189272h48.782375v48.760701H145.917246zM145.917246 731.428571h48.782375v48.760701H145.917246zM145.917246 682.664258h48.782375v48.764313H145.917246zM145.917246 633.903558h48.782375v48.7607H145.917246zM145.917246 585.142857h48.782375v48.760701H145.917246zM145.917246 536.378544h48.782375v48.764313H145.917246zM145.917246 487.617843h48.782375v48.760701H145.917246zM145.917246 438.857143h48.782375v48.7607H145.917246z" p-id="6182"></path><path d="M145.917246 390.096442h48.782375v48.760701H145.917246zM145.917246 341.332129h48.782375v48.764313H145.917246zM145.917246 292.571429h48.782375v48.7607H145.917246z" fill="#CB453C" p-id="6183"></path><path d="M145.917246 243.810728h48.782375V292.571429H145.917246zM145.917246 48.760701h48.782375v48.764313H145.917246zM97.13487 975.235687h48.782376v48.764313H97.13487zM97.13487 828.949973h48.782376v48.764313H97.13487zM97.13487 390.096442h48.782376v48.760701H97.13487zM97.13487 341.332129h48.782376v48.764313H97.13487zM97.13487 292.571429h48.782376v48.7607H97.13487zM48.352495 926.474986h48.782375v48.760701H48.352495zM48.352495 877.714286h48.782375v48.7607H48.352495z" p-id="6184"></path></svg>