<?xml version="1.0" standalone="no"?><!DOCTYPE svg PUBLIC "-//W3C//DTD SVG 1.1//EN" "http://www.w3.org/Graphics/SVG/1.1/DTD/svg11.dtd"><svg t="1745410089873" class="icon" viewBox="0 0 1024 1024" version="1.1" xmlns="http://www.w3.org/2000/svg" p-id="6201" xmlns:xlink="http://www.w3.org/1999/xlink" width="200" height="200"><path d="M917.26848 106.98752C820.66432 10.752 681.74848 0 512 0 342.03648 0 202.91584 10.88512 106.35264 107.37664 9.79968 203.83744 0 342.7328 0 512.49152c0 169.79968 9.79968 308.736 106.3936 405.22752C202.9568 1014.23104 342.04672 1024 512 1024s309.03296-9.76896 405.59616-106.28096C1014.1696 821.20704 1024 682.30144 1024 512.49152c0-169.984-9.9328-309.02272-106.73152-405.504z" fill="#FF6900" p-id="6202"></path><path d="M810.06592 315.98592c3.5328 0 6.4512 2.82624 6.4512 6.31808v379.45344a6.42048 6.42048 0 0 1-6.4512 6.28736h-83.1488a6.4 6.4 0 0 1-6.4512-6.28736V322.304c0-3.4816 2.88768-6.31808 6.4512-6.31808h83.1488z m-360.77568 0c62.72 0 128.29696 2.8672 160.62464 35.2256 31.81568 31.85664 35.24608 95.27296 35.3792 156.84608v193.69984a6.4 6.4 0 0 1-6.4512 6.28736H555.7248a6.41024 6.41024 0 0 1-6.48192-6.28736V504.7296c-0.08192-34.4064-2.05824-69.7344-19.79392-87.53152-15.26784-15.3088-43.76576-18.82112-73.37984-19.5584H305.38752a6.38976 6.38976 0 0 0-6.43072 6.2976v297.82016a6.42048 6.42048 0 0 1-6.48192 6.28736H209.3056a6.37952 6.37952 0 0 1-6.42048-6.28736V322.304c0-3.4816 2.8672-6.31808 6.42048-6.31808h239.98464z m18.61632 151.11168c3.52256 0 6.4 2.83648 6.4 6.28736v228.37248c0 3.44064-2.8672 6.28736-6.4 6.28736h-87.33696a6.4 6.4 0 0 1-6.47168-6.28736V473.38496c0-3.45088 2.88768-6.28736 6.47168-6.28736h87.33696z" fill="#FFFFFF" p-id="6203"></path></svg>