<?xml version="1.0" standalone="no"?><!DOCTYPE svg PUBLIC "-//W3C//DTD SVG 1.1//EN" "http://www.w3.org/Graphics/SVG/1.1/DTD/svg11.dtd"><svg t="1741131166536" class="icon" viewBox="0 0 1024 1024" version="1.1" xmlns="http://www.w3.org/2000/svg" p-id="4765" xmlns:xlink="http://www.w3.org/1999/xlink" width="200" height="200"><path d="M488.70413 24.561881c-4.155054-5.572892-6.380272 0-6.380272 0L361.11838 1021.262784l130.874347 2.717524-3.288597-999.418427zM273.212409 815.814084l-9.215949-60.12028-32.098282 49.269879-65.023638-1.949528 41.314232 43.53945-25.974009 57.34368 58.15106-29.597373 43.460681 41.412692-3.012907-62.286422 56.555993-25.599857-64.216258-11.953164 0.059077-0.059077z m113.033216-370.705625l-65.752249 20.716192-30.522907-58.210137-19.88912 83.022307-70.360223 36.509335 55.807689 12.859005-12.957466 84.085685 54.271697-70.261762 64.216258 19.908812-22.961103-65.358405 48.147424-63.271032zM84.246078 584.489836l-36.588104 49.447109-47.39912 7.857187L29.245769 673.478878 2.523457 727.868728l47.39912-37.553021 33.535813 32.649664 2.32368-52.341862 41.314231-33.614582-43.519758-2.047988 0.669535-50.471103zM171.482515 413.541866l21.366034-26.742005-27.51 6.931654-14.552534-25.698318-13.055927 39.541933-35.800416 17.801747 24.438017 5.966736-6.084889 35.564109 28.986916-32.590587 29.026299 10.791324L171.482515 413.541866z m125.301455-140.346294l13.80423 7.955648 6.143966-19.908812 21.306958-16.777753-16.75806-2.973522v-15.812835l-17.624517 20.834346-23.689714 3.977824 8.349492 15.694681-14.493458 20.775269 22.961103-13.764846z m595.669293-147.179487s-102.005585-65.259944-295.048201-19.455892c0 0 246.684163-23.551869 308.931201 165.197848 0 0 42.948684 191.506624-103.994497 338.686112 0 0-106.278792 118.054726-177.13132 147.12041L530.865126 3.924458s-7.502727-12.465161-7.502728 6.99073v1002.096566s114.785821-40.23116 125.478685-59.746129l-15.005455-124.868226s315.449318-158.266194 379.783729-420.546578c0 0 60.061204-192.983539-121.166094-281.775659v-0.059077z" fill="#E65256" p-id="4766"></path></svg>