<?xml version="1.0" standalone="no"?><!DOCTYPE svg PUBLIC "-//W3C//DTD SVG 1.1//EN" "http://www.w3.org/Graphics/SVG/1.1/DTD/svg11.dtd"><svg t="1740476764853" class="icon" viewBox="0 0 1755 1024" version="1.1" xmlns="http://www.w3.org/2000/svg" p-id="5674" data-spm-anchor-id="a313x.search_index.0.i2.31903a81RJBHQT" xmlns:xlink="http://www.w3.org/1999/xlink" width="342.7734375" height="200"><path d="M3.451079 469.133592c0.021065-97.627279 350.461852-165.978312 549.943369-174.21105l0.175538-0.007021L876.310859 1.184078l333.353906 298.569273s537.876879 45.334474 541.166463 163.580461c3.286074 118.249498-435.513581 162.225307-435.51358 162.225307l33.503205-61.227695s197.199521-39.19064 192.81809-100.997612c-4.381431-61.80346-271.761092-104.912111-271.761092-104.912111l78.943002 71.956585v133.949627l-33.503205 61.231206L881.20135 1022.556126v-114.794908c-0.073726 0 356.205459-319.73917 356.20546-319.73917l68.214112-37.508985v-77.306987l-40.472068 37.361533 45.931304 44.193476-73.673348 35.992336-58.20844 48.753957s-348.548486 18.301604-609.99847 0l-53.988503-59.928713c153.314992 19.962195 674.031264 21.492887 708.099702 0l-74.066554-69.011056 85.33259-80.189323L916.308974 146.554214v47.212733c3.029788 2.373275 101.840194 91.932823 101.840194 91.932823l62.21422 5.195928 54.810022 50.460187-61.290889-3.918011s191.842098 169.773446 191.266333 173.129735c-0.91982 5.346891-115.904308 0-115.904309 0L950.746042 331.195739h-143.379535l38.45338-45.639911h56.200284c-5.185396-4.307705-20.892547-17.662645-20.892547-17.662645l30.368095-27.454162S837.236074 205.615769 839.072202 205.615769V146.554214l-157.921112 144.341484 57.836299-2.67169-52.650903 49.213866-62.884775 6.347459-96.496814 89.025911 26.439551 25.358237 296.122272-271.069472 61.978999 53.335502-362.142158 329.36217-54.497564-56.639129-83.745726-80.347308 80.638701-74.389543s-275.981029 42.374902-278.691337 110.70838C211.077565 518.961842 410.759195 564.327913 410.759195 564.327913v-131.516669l47.395292-25.783038-2.155608 137.284851 38.857118-31.154505 54.497564 56.639129-22.398664 20.959251S881.131135 907.757708 881.20135 907.757708v114.794907l-432.617201-396.997007C249.411579 613.341666 3.430015 566.767893 3.45459 469.133592z" fill="#027DB4" p-id="5675" data-spm-anchor-id="a313x.search_index.0.i1.31903a81RJBHQT" class="selected"></path></svg>